<?xml version="1.0" encoding="UTF-8"?>
<svg id="Layer_2" xmlns="http://www.w3.org/2000/svg" viewBox="0 0 472.24 766.08">
  <defs>
    <style>
      .cls-1 {
        fill: #fff;
      }
    </style>
  </defs>
  <g id="Layer_3">
    <g>
      <path class="cls-1" d="M136.6,706c-.29-4.38-.72-8.76-.81-13.14-.26-11.88-.3-23.77-.55-35.65-.13-5.76-.56-11.51-.85-17.27-.54.96-.72,1.94-.75,2.92-.06,2.66-.04,5.33-.07,7.99-.14,11.38-.27,22.75-.46,34.13-.01.71-.39,1.43-.65,2.12-.32.86-1.01,1.7-1,2.54.05,6.27.2,12.53.42,18.79.06,1.62.47,3.23.71,4.85.17-.02.35-.04.52-.06.75-1.29,1.27-2.83,2.32-3.8,1.13-1.05,1.26-2.11,1.17-3.42ZM163.68,695.71c-.65-8.53-1.65-17.03-2.4-25.56-.83-9.46-1.54-18.93-2.34-28.39-.07-.78-.41-1.53-.63-2.3-.46.4-.51.73-.53,1.05-.35,10.15-.97,20.3-1,30.45-.05,15.06.2,30.11.55,45.16.19,7.91.94,15.81,1.28,23.71.18,4.06.5,4.63,4.85,5.65.13-.84.31-1.67.38-2.51.2-2.65.37-5.31.54-7.97.85-13.11.3-26.21-.7-39.29ZM184.45,210.74c-6.13,6.19-12.02,11.81-17.53,17.78-8.49,9.18-15.36,19.59-21.89,30.21-2.2,3.57-3.66,7.46-3.12,12.12,22.8-7.85,45.48-15.66,68.68-23.65-8.71-12.14-17.23-24.03-26.14-36.46ZM148.44,260.82c6.12-9.96,12.96-20.44,21.42-29.59,3.72-4.03,7.61-7.89,11.72-11.97.78-.78,1.57-1.56,2.37-2.36,0,0,14.56,20.32,20.26,28.27l-57.79,19.9c.43-1.36,1.1-2.76,2.02-4.25ZM312.62,311.58c-10.42-3.61-21.14-5.93-32.14-5.11-8.04.6-16.09,2.09-23.97,3.88-17.71,4.03-34.38,11.09-50.91,18.46-20.12,8.97-39.99,18.54-61.3,24.55-.53.16-1.14,1.19-1.17,1.83-.11,3.31-.08,6.63-.02,9.94.01.66.21,1.53.65,1.92,2.34,2.07,4.51,4.25,7.67,5.33,10.48,3.58,21.22,5.63,32.25,6.17,12.79.62,25.29-.39,36.98-6.27.49-.24,1.49-.25,1.83.08,6.06,5.75,12.04,11.58,18.06,17.38.87.83,1.85,1.55,2.92,2.45v-31.89c4.86-1.71,10.04-3.38,15.11-5.34,14.53-5.59,28.17-12.73,39.57-23.59,5.98-5.69,11-12.11,14.85-19.39-.19-.2-.27-.36-.38-.4ZM295.39,328.47c-9.65,9.2-21.81,16.43-38.25,22.76-3.41,1.32-6.92,2.52-10.32,3.68-1.58.54-3.14,1.08-4.68,1.62l-2.67.94v25.67c-.54-.53-1.09-1.05-1.63-1.58-4.11-3.98-8.37-8.09-12.56-12.07-.93-.91-2.22-1.39-3.71-1.39-.68,0-1.68.11-2.71.61-8.14,4.09-17.33,6-28.93,6-1.93,0-3.91-.05-6.05-.16-10.62-.52-21.1-2.52-31.15-5.96-2.03-.69-3.63-2.13-5.48-3.79l-.15-.13c-.04-2.55-.07-5.25,0-7.95,17.89-5.22,34.92-12.9,51.42-20.34,2.9-1.31,5.81-2.62,8.72-3.92,15.75-7.02,32.61-14.21,50.17-18.21,9.15-2.08,16.58-3.29,23.38-3.79,1.37-.1,2.77-.16,4.18-.16,6.91,0,14.08,1.2,22.26,3.72-3.19,5.17-7.16,10.01-11.83,14.45ZM312.62,311.58c-10.42-3.61-21.14-5.93-32.14-5.11-8.04.6-16.09,2.09-23.97,3.88-17.71,4.03-34.38,11.09-50.91,18.46-20.12,8.97-39.99,18.54-61.3,24.55-.53.16-1.14,1.19-1.17,1.83-.11,3.31-.08,6.63-.02,9.94.01.66.21,1.53.65,1.92,2.34,2.07,4.51,4.25,7.67,5.33,10.48,3.58,21.22,5.63,32.25,6.17,12.79.62,25.29-.39,36.98-6.27.49-.24,1.49-.25,1.83.08,6.06,5.75,12.04,11.58,18.06,17.38.87.83,1.85,1.55,2.92,2.45v-31.89c4.86-1.71,10.04-3.38,15.11-5.34,14.53-5.59,28.17-12.73,39.57-23.59,5.98-5.69,11-12.11,14.85-19.39-.19-.2-.27-.36-.38-.4ZM295.39,328.47c-9.65,9.2-21.81,16.43-38.25,22.76-3.41,1.32-6.92,2.52-10.32,3.68-1.58.54-3.14,1.08-4.68,1.62l-2.67.94v25.67c-.54-.53-1.09-1.05-1.63-1.58-4.11-3.98-8.37-8.09-12.56-12.07-.93-.91-2.22-1.39-3.71-1.39-.68,0-1.68.11-2.71.61-8.14,4.09-17.33,6-28.93,6-1.93,0-3.91-.05-6.05-.16-10.62-.52-21.1-2.52-31.15-5.96-2.03-.69-3.63-2.13-5.48-3.79l-.15-.13c-.04-2.55-.07-5.25,0-7.95,17.89-5.22,34.92-12.9,51.42-20.34,2.9-1.31,5.81-2.62,8.72-3.92,15.75-7.02,32.61-14.21,50.17-18.21,9.15-2.08,16.58-3.29,23.38-3.79,1.37-.1,2.77-.16,4.18-.16,6.91,0,14.08,1.2,22.26,3.72-3.19,5.17-7.16,10.01-11.83,14.45ZM184.45,210.74c-6.13,6.19-12.02,11.81-17.53,17.78-8.49,9.18-15.36,19.59-21.89,30.21-2.2,3.57-3.66,7.46-3.12,12.12,22.8-7.85,45.48-15.66,68.68-23.65-8.71-12.14-17.23-24.03-26.14-36.46ZM148.44,260.82c6.12-9.96,12.96-20.44,21.42-29.59,3.72-4.03,7.61-7.89,11.72-11.97.78-.78,1.57-1.56,2.37-2.36,0,0,14.56,20.32,20.26,28.27l-57.79,19.9c.43-1.36,1.1-2.76,2.02-4.25ZM163.68,695.71c-.65-8.53-1.65-17.03-2.4-25.56-.83-9.46-1.54-18.93-2.34-28.39-.07-.78-.41-1.53-.63-2.3-.46.4-.51.73-.53,1.05-.35,10.15-.97,20.3-1,30.45-.05,15.06.2,30.11.55,45.16.19,7.91.94,15.81,1.28,23.71.18,4.06.5,4.63,4.85,5.65.13-.84.31-1.67.38-2.51.2-2.65.37-5.31.54-7.97.85-13.11.3-26.21-.7-39.29ZM136.6,706c-.29-4.38-.72-8.76-.81-13.14-.26-11.88-.3-23.77-.55-35.65-.13-5.76-.56-11.51-.85-17.27-.54.96-.72,1.94-.75,2.92-.06,2.66-.04,5.33-.07,7.99-.14,11.38-.27,22.75-.46,34.13-.01.71-.39,1.43-.65,2.12-.32.86-1.01,1.7-1,2.54.05,6.27.2,12.53.42,18.79.06,1.62.47,3.23.71,4.85.17-.02.35-.04.52-.06.75-1.29,1.27-2.83,2.32-3.8,1.13-1.05,1.26-2.11,1.17-3.42ZM136.6,706c-.29-4.38-.72-8.76-.81-13.14-.26-11.88-.3-23.77-.55-35.65-.13-5.76-.56-11.51-.85-17.27-.54.96-.72,1.94-.75,2.92-.06,2.66-.04,5.33-.07,7.99-.14,11.38-.27,22.75-.46,34.13-.01.71-.39,1.43-.65,2.12-.32.86-1.01,1.7-1,2.54.05,6.27.2,12.53.42,18.79.06,1.62.47,3.23.71,4.85.17-.02.35-.04.52-.06.75-1.29,1.27-2.83,2.32-3.8,1.13-1.05,1.26-2.11,1.17-3.42ZM163.68,695.71c-.65-8.53-1.65-17.03-2.4-25.56-.83-9.46-1.54-18.93-2.34-28.39-.07-.78-.41-1.53-.63-2.3-.46.4-.51.73-.53,1.05-.35,10.15-.97,20.3-1,30.45-.05,15.06.2,30.11.55,45.16.19,7.91.94,15.81,1.28,23.71.18,4.06.5,4.63,4.85,5.65.13-.84.31-1.67.38-2.51.2-2.65.37-5.31.54-7.97.85-13.11.3-26.21-.7-39.29ZM184.45,210.74c-6.13,6.19-12.02,11.81-17.53,17.78-8.49,9.18-15.36,19.59-21.89,30.21-2.2,3.57-3.66,7.46-3.12,12.12,22.8-7.85,45.48-15.66,68.68-23.65-8.71-12.14-17.23-24.03-26.14-36.46ZM148.44,260.82c6.12-9.96,12.96-20.44,21.42-29.59,3.72-4.03,7.61-7.89,11.72-11.97.78-.78,1.57-1.56,2.37-2.36,0,0,14.56,20.32,20.26,28.27l-57.79,19.9c.43-1.36,1.1-2.76,2.02-4.25ZM312.62,311.58c-10.42-3.61-21.14-5.93-32.14-5.11-8.04.6-16.09,2.09-23.97,3.88-17.71,4.03-34.38,11.09-50.91,18.46-20.12,8.97-39.99,18.54-61.3,24.55-.53.16-1.14,1.19-1.17,1.83-.11,3.31-.08,6.63-.02,9.94.01.66.21,1.53.65,1.92,2.34,2.07,4.51,4.25,7.67,5.33,10.48,3.58,21.22,5.63,32.25,6.17,12.79.62,25.29-.39,36.98-6.27.49-.24,1.49-.25,1.83.08,6.06,5.75,12.04,11.58,18.06,17.38.87.83,1.85,1.55,2.92,2.45v-31.89c4.86-1.71,10.04-3.38,15.11-5.34,14.53-5.59,28.17-12.73,39.57-23.59,5.98-5.69,11-12.11,14.85-19.39-.19-.2-.27-.36-.38-.4ZM295.39,328.47c-9.65,9.2-21.81,16.43-38.25,22.76-3.41,1.32-6.92,2.52-10.32,3.68-1.58.54-3.14,1.08-4.68,1.62l-2.67.94v25.67c-.54-.53-1.09-1.05-1.63-1.58-4.11-3.98-8.37-8.09-12.56-12.07-.93-.91-2.22-1.39-3.71-1.39-.68,0-1.68.11-2.71.61-8.14,4.09-17.33,6-28.93,6-1.93,0-3.91-.05-6.05-.16-10.62-.52-21.1-2.52-31.15-5.96-2.03-.69-3.63-2.13-5.48-3.79l-.15-.13c-.04-2.55-.07-5.25,0-7.95,17.89-5.22,34.92-12.9,51.42-20.34,2.9-1.31,5.81-2.62,8.72-3.92,15.75-7.02,32.61-14.21,50.17-18.21,9.15-2.08,16.58-3.29,23.38-3.79,1.37-.1,2.77-.16,4.18-.16,6.91,0,14.08,1.2,22.26,3.72-3.19,5.17-7.16,10.01-11.83,14.45ZM312.62,311.58c-10.42-3.61-21.14-5.93-32.14-5.11-8.04.6-16.09,2.09-23.97,3.88-17.71,4.03-34.38,11.09-50.91,18.46-20.12,8.97-39.99,18.54-61.3,24.55-.53.16-1.14,1.19-1.17,1.83-.11,3.31-.08,6.63-.02,9.94.01.66.21,1.53.65,1.92,2.34,2.07,4.51,4.25,7.67,5.33,10.48,3.58,21.22,5.63,32.25,6.17,12.79.62,25.29-.39,36.98-6.27.49-.24,1.49-.25,1.83.08,6.06,5.75,12.04,11.58,18.06,17.38.87.83,1.85,1.55,2.92,2.45v-31.89c4.86-1.71,10.04-3.38,15.11-5.34,14.53-5.59,28.17-12.73,39.57-23.59,5.98-5.69,11-12.11,14.85-19.39-.19-.2-.27-.36-.38-.4ZM295.39,328.47c-9.65,9.2-21.81,16.43-38.25,22.76-3.41,1.32-6.92,2.52-10.32,3.68-1.58.54-3.14,1.08-4.68,1.62l-2.67.94v25.67c-.54-.53-1.09-1.05-1.63-1.58-4.11-3.98-8.37-8.09-12.56-12.07-.93-.91-2.22-1.39-3.71-1.39-.68,0-1.68.11-2.71.61-8.14,4.09-17.33,6-28.93,6-1.93,0-3.91-.05-6.05-.16-10.62-.52-21.1-2.52-31.15-5.96-2.03-.69-3.63-2.13-5.48-3.79l-.15-.13c-.04-2.55-.07-5.25,0-7.95,17.89-5.22,34.92-12.9,51.42-20.34,2.9-1.31,5.81-2.62,8.72-3.92,15.75-7.02,32.61-14.21,50.17-18.21,9.15-2.08,16.58-3.29,23.38-3.79,1.37-.1,2.77-.16,4.18-.16,6.91,0,14.08,1.2,22.26,3.72-3.19,5.17-7.16,10.01-11.83,14.45ZM184.45,210.74c-6.13,6.19-12.02,11.81-17.53,17.78-8.49,9.18-15.36,19.59-21.89,30.21-2.2,3.57-3.66,7.46-3.12,12.12,22.8-7.85,45.48-15.66,68.68-23.65-8.71-12.14-17.23-24.03-26.14-36.46ZM148.44,260.82c6.12-9.96,12.96-20.44,21.42-29.59,3.72-4.03,7.61-7.89,11.72-11.97.78-.78,1.57-1.56,2.37-2.36,0,0,14.56,20.32,20.26,28.27l-57.79,19.9c.43-1.36,1.1-2.76,2.02-4.25ZM163.68,695.71c-.65-8.53-1.65-17.03-2.4-25.56-.83-9.46-1.54-18.93-2.34-28.39-.07-.78-.41-1.53-.63-2.3-.46.4-.51.73-.53,1.05-.35,10.15-.97,20.3-1,30.45-.05,15.06.2,30.11.55,45.16.19,7.91.94,15.81,1.28,23.71.18,4.06.5,4.63,4.85,5.65.13-.84.31-1.67.38-2.51.2-2.65.37-5.31.54-7.97.85-13.11.3-26.21-.7-39.29ZM136.6,706c-.29-4.38-.72-8.76-.81-13.14-.26-11.88-.3-23.77-.55-35.65-.13-5.76-.56-11.51-.85-17.27-.54.96-.72,1.94-.75,2.92-.06,2.66-.04,5.33-.07,7.99-.14,11.38-.27,22.75-.46,34.13-.01.71-.39,1.43-.65,2.12-.32.86-1.01,1.7-1,2.54.05,6.27.2,12.53.42,18.79.06,1.62.47,3.23.71,4.85.17-.02.35-.04.52-.06.75-1.29,1.27-2.83,2.32-3.8,1.13-1.05,1.26-2.11,1.17-3.42ZM136.6,706c-.29-4.38-.72-8.76-.81-13.14-.26-11.88-.3-23.77-.55-35.65-.13-5.76-.56-11.51-.85-17.27-.54.96-.72,1.94-.75,2.92-.06,2.66-.04,5.33-.07,7.99-.14,11.38-.27,22.75-.46,34.13-.01.71-.39,1.43-.65,2.12-.32.86-1.01,1.7-1,2.54.05,6.27.2,12.53.42,18.79.06,1.62.47,3.23.71,4.85.17-.02.35-.04.52-.06.75-1.29,1.27-2.83,2.32-3.8,1.13-1.05,1.26-2.11,1.17-3.42ZM163.68,695.71c-.65-8.53-1.65-17.03-2.4-25.56-.83-9.46-1.54-18.93-2.34-28.39-.07-.78-.41-1.53-.63-2.3-.46.4-.51.73-.53,1.05-.35,10.15-.97,20.3-1,30.45-.05,15.06.2,30.11.55,45.16.19,7.91.94,15.81,1.28,23.71.18,4.06.5,4.63,4.85,5.65.13-.84.31-1.67.38-2.51.2-2.65.37-5.31.54-7.97.85-13.11.3-26.21-.7-39.29ZM184.45,210.74c-6.13,6.19-12.02,11.81-17.53,17.78-8.49,9.18-15.36,19.59-21.89,30.21-2.2,3.57-3.66,7.46-3.12,12.12,22.8-7.85,45.48-15.66,68.68-23.65-8.71-12.14-17.23-24.03-26.14-36.46ZM148.44,260.82c6.12-9.96,12.96-20.44,21.42-29.59,3.72-4.03,7.61-7.89,11.72-11.97.78-.78,1.57-1.56,2.37-2.36,0,0,14.56,20.32,20.26,28.27l-57.79,19.9c.43-1.36,1.1-2.76,2.02-4.25ZM312.62,311.58c-10.42-3.61-21.14-5.93-32.14-5.11-8.04.6-16.09,2.09-23.97,3.88-17.71,4.03-34.38,11.09-50.91,18.46-20.12,8.97-39.99,18.54-61.3,24.55-.53.16-1.14,1.19-1.17,1.83-.11,3.31-.08,6.63-.02,9.94.01.66.21,1.53.65,1.92,2.34,2.07,4.51,4.25,7.67,5.33,10.48,3.58,21.22,5.63,32.25,6.17,12.79.62,25.29-.39,36.98-6.27.49-.24,1.49-.25,1.83.08,6.06,5.75,12.04,11.58,18.06,17.38.87.83,1.85,1.55,2.92,2.45v-31.89c4.86-1.71,10.04-3.38,15.11-5.34,14.53-5.59,28.17-12.73,39.57-23.59,5.98-5.69,11-12.11,14.85-19.39-.19-.2-.27-.36-.38-.4ZM295.39,328.47c-9.65,9.2-21.81,16.43-38.25,22.76-3.41,1.32-6.92,2.52-10.32,3.68-1.58.54-3.14,1.08-4.68,1.62l-2.67.94v25.67c-.54-.53-1.09-1.05-1.63-1.58-4.11-3.98-8.37-8.09-12.56-12.07-.93-.91-2.22-1.39-3.71-1.39-.68,0-1.68.11-2.71.61-8.14,4.09-17.33,6-28.93,6-1.93,0-3.91-.05-6.05-.16-10.62-.52-21.1-2.52-31.15-5.96-2.03-.69-3.63-2.13-5.48-3.79l-.15-.13c-.04-2.55-.07-5.25,0-7.95,17.89-5.22,34.92-12.9,51.42-20.34,2.9-1.31,5.81-2.62,8.72-3.92,15.75-7.02,32.61-14.21,50.17-18.21,9.15-2.08,16.58-3.29,23.38-3.79,1.37-.1,2.77-.16,4.18-.16,6.91,0,14.08,1.2,22.26,3.72-3.19,5.17-7.16,10.01-11.83,14.45ZM312.62,311.58c-10.42-3.61-21.14-5.93-32.14-5.11-8.04.6-16.09,2.09-23.97,3.88-17.71,4.03-34.38,11.09-50.91,18.46-20.12,8.97-39.99,18.54-61.3,24.55-.53.16-1.14,1.19-1.17,1.83-.11,3.31-.08,6.63-.02,9.94.01.66.21,1.53.65,1.92,2.34,2.07,4.51,4.25,7.67,5.33,10.48,3.58,21.22,5.63,32.25,6.17,12.79.62,25.29-.39,36.98-6.27.49-.24,1.49-.25,1.83.08,6.06,5.75,12.04,11.58,18.06,17.38.87.83,1.85,1.55,2.92,2.45v-31.89c4.86-1.71,10.04-3.38,15.11-5.34,14.53-5.59,28.17-12.73,39.57-23.59,5.98-5.69,11-12.11,14.85-19.39-.19-.2-.27-.36-.38-.4ZM295.39,328.47c-9.65,9.2-21.81,16.43-38.25,22.76-3.41,1.32-6.92,2.52-10.32,3.68-1.58.54-3.14,1.08-4.68,1.62l-2.67.94v25.67c-.54-.53-1.09-1.05-1.63-1.58-4.11-3.98-8.37-8.09-12.56-12.07-.93-.91-2.22-1.39-3.71-1.39-.68,0-1.68.11-2.71.61-8.14,4.09-17.33,6-28.93,6-1.93,0-3.91-.05-6.05-.16-10.62-.52-21.1-2.52-31.15-5.96-2.03-.69-3.63-2.13-5.48-3.79l-.15-.13c-.04-2.55-.07-5.25,0-7.95,17.89-5.22,34.92-12.9,51.42-20.34,2.9-1.31,5.81-2.62,8.72-3.92,15.75-7.02,32.61-14.21,50.17-18.21,9.15-2.08,16.58-3.29,23.38-3.79,1.37-.1,2.77-.16,4.18-.16,6.91,0,14.08,1.2,22.26,3.72-3.19,5.17-7.16,10.01-11.83,14.45ZM184.45,210.74c-6.13,6.19-12.02,11.81-17.53,17.78-8.49,9.18-15.36,19.59-21.89,30.21-2.2,3.57-3.66,7.46-3.12,12.12,22.8-7.85,45.48-15.66,68.68-23.65-8.71-12.14-17.23-24.03-26.14-36.46ZM148.44,260.82c6.12-9.96,12.96-20.44,21.42-29.59,3.72-4.03,7.61-7.89,11.72-11.97.78-.78,1.57-1.56,2.37-2.36,0,0,14.56,20.32,20.26,28.27l-57.79,19.9c.43-1.36,1.1-2.76,2.02-4.25ZM163.68,695.71c-.65-8.53-1.65-17.03-2.4-25.56-.83-9.46-1.54-18.93-2.34-28.39-.07-.78-.41-1.53-.63-2.3-.46.4-.51.73-.53,1.05-.35,10.15-.97,20.3-1,30.45-.05,15.06.2,30.11.55,45.16.19,7.91.94,15.81,1.28,23.71.18,4.06.5,4.63,4.85,5.65.13-.84.31-1.67.38-2.51.2-2.65.37-5.31.54-7.97.85-13.11.3-26.21-.7-39.29ZM136.6,706c-.29-4.38-.72-8.76-.81-13.14-.26-11.88-.3-23.77-.55-35.65-.13-5.76-.56-11.51-.85-17.27-.54.96-.72,1.94-.75,2.92-.06,2.66-.04,5.33-.07,7.99-.14,11.38-.27,22.75-.46,34.13-.01.71-.39,1.43-.65,2.12-.32.86-1.01,1.7-1,2.54.05,6.27.2,12.53.42,18.79.06,1.62.47,3.23.71,4.85.17-.02.35-.04.52-.06.75-1.29,1.27-2.83,2.32-3.8,1.13-1.05,1.26-2.11,1.17-3.42ZM136.6,706c-.29-4.38-.72-8.76-.81-13.14-.26-11.88-.3-23.77-.55-35.65-.13-5.76-.56-11.51-.85-17.27-.54.96-.72,1.94-.75,2.92-.06,2.66-.04,5.33-.07,7.99-.14,11.38-.27,22.75-.46,34.13-.01.71-.39,1.43-.65,2.12-.32.86-1.01,1.7-1,2.54.05,6.27.2,12.53.42,18.79.06,1.62.47,3.23.71,4.85.17-.02.35-.04.52-.06.75-1.29,1.27-2.83,2.32-3.8,1.13-1.05,1.26-2.11,1.17-3.42ZM163.68,695.71c-.65-8.53-1.65-17.03-2.4-25.56-.83-9.46-1.54-18.93-2.34-28.39-.07-.78-.41-1.53-.63-2.3-.46.4-.51.73-.53,1.05-.35,10.15-.97,20.3-1,30.45-.05,15.06.2,30.11.55,45.16.19,7.91.94,15.81,1.28,23.71.18,4.06.5,4.63,4.85,5.65.13-.84.31-1.67.38-2.51.2-2.65.37-5.31.54-7.97.85-13.11.3-26.21-.7-39.29ZM184.45,210.74c-6.13,6.19-12.02,11.81-17.53,17.78-8.49,9.18-15.36,19.59-21.89,30.21-2.2,3.57-3.66,7.46-3.12,12.12,22.8-7.85,45.48-15.66,68.68-23.65-8.71-12.14-17.23-24.03-26.14-36.46ZM148.44,260.82c6.12-9.96,12.96-20.44,21.42-29.59,3.72-4.03,7.61-7.89,11.72-11.97.78-.78,1.57-1.56,2.37-2.36,0,0,14.56,20.32,20.26,28.27l-57.79,19.9c.43-1.36,1.1-2.76,2.02-4.25ZM312.62,311.58c-10.42-3.61-21.14-5.93-32.14-5.11-8.04.6-16.09,2.09-23.97,3.88-17.71,4.03-34.38,11.09-50.91,18.46-20.12,8.97-39.99,18.54-61.3,24.55-.53.16-1.14,1.19-1.17,1.83-.11,3.31-.08,6.63-.02,9.94.01.66.21,1.53.65,1.92,2.34,2.07,4.51,4.25,7.67,5.33,10.48,3.58,21.22,5.63,32.25,6.17,12.79.62,25.29-.39,36.98-6.27.49-.24,1.49-.25,1.83.08,6.06,5.75,12.04,11.58,18.06,17.38.87.83,1.85,1.55,2.92,2.45v-31.89c4.86-1.71,10.04-3.38,15.11-5.34,14.53-5.59,28.17-12.73,39.57-23.59,5.98-5.69,11-12.11,14.85-19.39-.19-.2-.27-.36-.38-.4ZM295.39,328.47c-9.65,9.2-21.81,16.43-38.25,22.76-3.41,1.32-6.92,2.52-10.32,3.68-1.58.54-3.14,1.08-4.68,1.62l-2.67.94v25.67c-.54-.53-1.09-1.05-1.63-1.58-4.11-3.98-8.37-8.09-12.56-12.07-.93-.91-2.22-1.39-3.71-1.39-.68,0-1.68.11-2.71.61-8.14,4.09-17.33,6-28.93,6-1.93,0-3.91-.05-6.05-.16-10.62-.52-21.1-2.52-31.15-5.96-2.03-.69-3.63-2.13-5.48-3.79l-.15-.13c-.04-2.55-.07-5.25,0-7.95,17.89-5.22,34.92-12.9,51.42-20.34,2.9-1.31,5.81-2.62,8.72-3.92,15.75-7.02,32.61-14.21,50.17-18.21,9.15-2.08,16.58-3.29,23.38-3.79,1.37-.1,2.77-.16,4.18-.16,6.91,0,14.08,1.2,22.26,3.72-3.19,5.17-7.16,10.01-11.83,14.45ZM433.86,192.02c.09.05.18.1.28.15,1.48-2.69,3.06-5.16,4.25-7.81.03-.06.05-.11.07-.17-1.52,2.62-3.04,5.24-4.6,7.83ZM436.28,195.79c-.3.5-.62,1-.94,1.47l.44.22,1.87-3.38c.45-.83.91-1.63,1.37-2.42,1.04-1.81,2.12-3.68,3.02-5.68.01-.03.02-.05.03-.08-1.9,3.31-3.83,6.6-5.79,9.87ZM462.98,143.83c-.44,4.79-2.25,9.34-4.83,13.76-3.26,5.57-6.33,11.26-9.53,16.87.79-.57,1.42-1.28,1.82-1.98,4.41-7.84,8.29-14.83,11.84-21.36.57-1.05,2.28-4.21.7-7.29ZM462.98,143.83c-.44,4.79-2.25,9.34-4.83,13.76-3.26,5.57-6.33,11.26-9.53,16.87.79-.57,1.42-1.28,1.82-1.98,4.41-7.84,8.29-14.83,11.84-21.36.57-1.05,2.28-4.21.7-7.29ZM436.28,195.79c-.3.5-.62,1-.94,1.47l.44.22,1.87-3.38c.45-.83.91-1.63,1.37-2.42,1.04-1.81,2.12-3.68,3.02-5.68.01-.03.02-.05.03-.08-1.9,3.31-3.83,6.6-5.79,9.87ZM433.86,192.02c.09.05.18.1.28.15,1.48-2.69,3.06-5.16,4.25-7.81.03-.06.05-.11.07-.17-1.52,2.62-3.04,5.24-4.6,7.83ZM312.62,311.58c-10.42-3.61-21.14-5.93-32.14-5.11-8.04.6-16.09,2.09-23.97,3.88-17.71,4.03-34.38,11.09-50.91,18.46-20.12,8.97-39.99,18.54-61.3,24.55-.53.16-1.14,1.19-1.17,1.83-.11,3.31-.08,6.63-.02,9.94.01.66.21,1.53.65,1.92,2.34,2.07,4.51,4.25,7.67,5.33,10.48,3.58,21.22,5.63,32.25,6.17,12.79.62,25.29-.39,36.98-6.27.49-.24,1.49-.25,1.83.08,6.06,5.75,12.04,11.58,18.06,17.38.87.83,1.85,1.55,2.92,2.45v-31.89c4.86-1.71,10.04-3.38,15.11-5.34,14.53-5.59,28.17-12.73,39.57-23.59,5.98-5.69,11-12.11,14.85-19.39-.19-.2-.27-.36-.38-.4ZM295.39,328.47c-9.65,9.2-21.81,16.43-38.25,22.76-3.41,1.32-6.92,2.52-10.32,3.68-1.58.54-3.14,1.08-4.68,1.62l-2.67.94v25.67c-.54-.53-1.09-1.05-1.63-1.58-4.11-3.98-8.37-8.09-12.56-12.07-.93-.91-2.22-1.39-3.71-1.39-.68,0-1.68.11-2.71.61-8.14,4.09-17.33,6-28.93,6-1.93,0-3.91-.05-6.05-.16-10.62-.52-21.1-2.52-31.15-5.96-2.03-.69-3.63-2.13-5.48-3.79l-.15-.13c-.04-2.55-.07-5.25,0-7.95,17.89-5.22,34.92-12.9,51.42-20.34,2.9-1.31,5.81-2.62,8.72-3.92,15.75-7.02,32.61-14.21,50.17-18.21,9.15-2.08,16.58-3.29,23.38-3.79,1.37-.1,2.77-.16,4.18-.16,6.91,0,14.08,1.2,22.26,3.72-3.19,5.17-7.16,10.01-11.83,14.45ZM184.45,210.74c-6.13,6.19-12.02,11.81-17.53,17.78-8.49,9.18-15.36,19.59-21.89,30.21-2.2,3.57-3.66,7.46-3.12,12.12,22.8-7.85,45.48-15.66,68.68-23.65-8.71-12.14-17.23-24.03-26.14-36.46ZM148.44,260.82c6.12-9.96,12.96-20.44,21.42-29.59,3.72-4.03,7.61-7.89,11.72-11.97.78-.78,1.57-1.56,2.37-2.36,0,0,14.56,20.32,20.26,28.27l-57.79,19.9c.43-1.36,1.1-2.76,2.02-4.25ZM163.68,695.71c-.65-8.53-1.65-17.03-2.4-25.56-.83-9.46-1.54-18.93-2.34-28.39-.07-.78-.41-1.53-.63-2.3-.46.4-.51.73-.53,1.05-.35,10.15-.97,20.3-1,30.45-.05,15.06.2,30.11.55,45.16.19,7.91.94,15.81,1.28,23.71.18,4.06.5,4.63,4.85,5.65.13-.84.31-1.67.38-2.51.2-2.65.37-5.31.54-7.97.85-13.11.3-26.21-.7-39.29ZM136.6,706c-.29-4.38-.72-8.76-.81-13.14-.26-11.88-.3-23.77-.55-35.65-.13-5.76-.56-11.51-.85-17.27-.54.96-.72,1.94-.75,2.92-.06,2.66-.04,5.33-.07,7.99-.14,11.38-.27,22.75-.46,34.13-.01.71-.39,1.43-.65,2.12-.32.86-1.01,1.7-1,2.54.05,6.27.2,12.53.42,18.79.06,1.62.47,3.23.71,4.85.17-.02.35-.04.52-.06.75-1.29,1.27-2.83,2.32-3.8,1.13-1.05,1.26-2.11,1.17-3.42ZM136.6,706c-.29-4.38-.72-8.76-.81-13.14-.26-11.88-.3-23.77-.55-35.65-.13-5.76-.56-11.51-.85-17.27-.54.96-.72,1.94-.75,2.92-.06,2.66-.04,5.33-.07,7.99-.14,11.38-.27,22.75-.46,34.13-.01.71-.39,1.43-.65,2.12-.32.86-1.01,1.7-1,2.54.05,6.27.2,12.53.42,18.79.06,1.62.47,3.23.71,4.85.17-.02.35-.04.52-.06.75-1.29,1.27-2.83,2.32-3.8,1.13-1.05,1.26-2.11,1.17-3.42ZM163.68,695.71c-.65-8.53-1.65-17.03-2.4-25.56-.83-9.46-1.54-18.93-2.34-28.39-.07-.78-.41-1.53-.63-2.3-.46.4-.51.73-.53,1.05-.35,10.15-.97,20.3-1,30.45-.05,15.06.2,30.11.55,45.16.19,7.91.94,15.81,1.28,23.71.18,4.06.5,4.63,4.85,5.65.13-.84.31-1.67.38-2.51.2-2.65.37-5.31.54-7.97.85-13.11.3-26.21-.7-39.29ZM184.45,210.74c-6.13,6.19-12.02,11.81-17.53,17.78-8.49,9.18-15.36,19.59-21.89,30.21-2.2,3.57-3.66,7.46-3.12,12.12,22.8-7.85,45.48-15.66,68.68-23.65-8.71-12.14-17.23-24.03-26.14-36.46ZM148.44,260.82c6.12-9.96,12.96-20.44,21.42-29.59,3.72-4.03,7.61-7.89,11.72-11.97.78-.78,1.57-1.56,2.37-2.36,0,0,14.56,20.32,20.26,28.27l-57.79,19.9c.43-1.36,1.1-2.76,2.02-4.25ZM312.62,311.58c-10.42-3.61-21.14-5.93-32.14-5.11-8.04.6-16.09,2.09-23.97,3.88-17.71,4.03-34.38,11.09-50.91,18.46-20.12,8.97-39.99,18.54-61.3,24.55-.53.16-1.14,1.19-1.17,1.83-.11,3.31-.08,6.63-.02,9.94.01.66.21,1.53.65,1.92,2.34,2.07,4.51,4.25,7.67,5.33,10.48,3.58,21.22,5.63,32.25,6.17,12.79.62,25.29-.39,36.98-6.27.49-.24,1.49-.25,1.83.08,6.06,5.75,12.04,11.58,18.06,17.38.87.83,1.85,1.55,2.92,2.45v-31.89c4.86-1.71,10.04-3.38,15.11-5.34,14.53-5.59,28.17-12.73,39.57-23.59,5.98-5.69,11-12.11,14.85-19.39-.19-.2-.27-.36-.38-.4ZM295.39,328.47c-9.65,9.2-21.81,16.43-38.25,22.76-3.41,1.32-6.92,2.52-10.32,3.68-1.58.54-3.14,1.08-4.68,1.62l-2.67.94v25.67c-.54-.53-1.09-1.05-1.63-1.58-4.11-3.98-8.37-8.09-12.56-12.07-.93-.91-2.22-1.39-3.71-1.39-.68,0-1.68.11-2.71.61-8.14,4.09-17.33,6-28.93,6-1.93,0-3.91-.05-6.05-.16-10.62-.52-21.1-2.52-31.15-5.96-2.03-.69-3.63-2.13-5.48-3.79l-.15-.13c-.04-2.55-.07-5.25,0-7.95,17.89-5.22,34.92-12.9,51.42-20.34,2.9-1.31,5.81-2.62,8.72-3.92,15.75-7.02,32.61-14.21,50.17-18.21,9.15-2.08,16.58-3.29,23.38-3.79,1.37-.1,2.77-.16,4.18-.16,6.91,0,14.08,1.2,22.26,3.72-3.19,5.17-7.16,10.01-11.83,14.45ZM433.86,192.02c.09.05.18.1.28.15,1.48-2.69,3.06-5.16,4.25-7.81.03-.06.05-.11.07-.17-1.52,2.62-3.04,5.24-4.6,7.83ZM436.28,195.79c-.3.5-.62,1-.94,1.47l.44.22,1.87-3.38c.45-.83.91-1.63,1.37-2.42,1.04-1.81,2.12-3.68,3.02-5.68.01-.03.02-.05.03-.08-1.9,3.31-3.83,6.6-5.79,9.87ZM462.98,143.83c-.44,4.79-2.25,9.34-4.83,13.76-3.26,5.57-6.33,11.26-9.53,16.87.79-.57,1.42-1.28,1.82-1.98,4.41-7.84,8.29-14.83,11.84-21.36.57-1.05,2.28-4.21.7-7.29ZM462.98,143.83c-.44,4.79-2.25,9.34-4.83,13.76-3.26,5.57-6.33,11.26-9.53,16.87.79-.57,1.42-1.28,1.82-1.98,4.41-7.84,8.29-14.83,11.84-21.36.57-1.05,2.28-4.21.7-7.29ZM436.28,195.79c-.3.5-.62,1-.94,1.47l.44.22,1.87-3.38c.45-.83.91-1.63,1.37-2.42,1.04-1.81,2.12-3.68,3.02-5.68.01-.03.02-.05.03-.08-1.9,3.31-3.83,6.6-5.79,9.87ZM433.86,192.02c.09.05.18.1.28.15,1.48-2.69,3.06-5.16,4.25-7.81.03-.06.05-.11.07-.17-1.52,2.62-3.04,5.24-4.6,7.83ZM312.62,311.58c-10.42-3.61-21.14-5.93-32.14-5.11-8.04.6-16.09,2.09-23.97,3.88-17.71,4.03-34.38,11.09-50.91,18.46-20.12,8.97-39.99,18.54-61.3,24.55-.53.16-1.14,1.19-1.17,1.83-.11,3.31-.08,6.63-.02,9.94.01.66.21,1.53.65,1.92,2.34,2.07,4.51,4.25,7.67,5.33,10.48,3.58,21.22,5.63,32.25,6.17,12.79.62,25.29-.39,36.98-6.27.49-.24,1.49-.25,1.83.08,6.06,5.75,12.04,11.58,18.06,17.38.87.83,1.85,1.55,2.92,2.45v-31.89c4.86-1.71,10.04-3.38,15.11-5.34,14.53-5.59,28.17-12.73,39.57-23.59,5.98-5.69,11-12.11,14.85-19.39-.19-.2-.27-.36-.38-.4ZM295.39,328.47c-9.65,9.2-21.81,16.43-38.25,22.76-3.41,1.32-6.92,2.52-10.32,3.68-1.58.54-3.14,1.08-4.68,1.62l-2.67.94v25.67c-.54-.53-1.09-1.05-1.63-1.58-4.11-3.98-8.37-8.09-12.56-12.07-.93-.91-2.22-1.39-3.71-1.39-.68,0-1.68.11-2.71.61-8.14,4.09-17.33,6-28.93,6-1.93,0-3.91-.05-6.05-.16-10.62-.52-21.1-2.52-31.15-5.96-2.03-.69-3.63-2.13-5.48-3.79l-.15-.13c-.04-2.55-.07-5.25,0-7.95,17.89-5.22,34.92-12.9,51.42-20.34,2.9-1.31,5.81-2.62,8.72-3.92,15.75-7.02,32.61-14.21,50.17-18.21,9.15-2.08,16.58-3.29,23.38-3.79,1.37-.1,2.77-.16,4.18-.16,6.91,0,14.08,1.2,22.26,3.72-3.19,5.17-7.16,10.01-11.83,14.45ZM184.45,210.74c-6.13,6.19-12.02,11.81-17.53,17.78-8.49,9.18-15.36,19.59-21.89,30.21-2.2,3.57-3.66,7.46-3.12,12.12,22.8-7.85,45.48-15.66,68.68-23.65-8.71-12.14-17.23-24.03-26.14-36.46ZM148.44,260.82c6.12-9.96,12.96-20.44,21.42-29.59,3.72-4.03,7.61-7.89,11.72-11.97.78-.78,1.57-1.56,2.37-2.36,0,0,14.56,20.32,20.26,28.27l-57.79,19.9c.43-1.36,1.1-2.76,2.02-4.25ZM163.68,695.71c-.65-8.53-1.65-17.03-2.4-25.56-.83-9.46-1.54-18.93-2.34-28.39-.07-.78-.41-1.53-.63-2.3-.46.4-.51.73-.53,1.05-.35,10.15-.97,20.3-1,30.45-.05,15.06.2,30.11.55,45.16.19,7.91.94,15.81,1.28,23.71.18,4.06.5,4.63,4.85,5.65.13-.84.31-1.67.38-2.51.2-2.65.37-5.31.54-7.97.85-13.11.3-26.21-.7-39.29ZM136.6,706c-.29-4.38-.72-8.76-.81-13.14-.26-11.88-.3-23.77-.55-35.65-.13-5.76-.56-11.51-.85-17.27-.54.96-.72,1.94-.75,2.92-.06,2.66-.04,5.33-.07,7.99-.14,11.38-.27,22.75-.46,34.13-.01.71-.39,1.43-.65,2.12-.32.86-1.01,1.7-1,2.54.05,6.27.2,12.53.42,18.79.06,1.62.47,3.23.71,4.85.17-.02.35-.04.52-.06.75-1.29,1.27-2.83,2.32-3.8,1.13-1.05,1.26-2.11,1.17-3.42ZM136.6,706c-.29-4.38-.72-8.76-.81-13.14-.26-11.88-.3-23.77-.55-35.65-.13-5.76-.56-11.51-.85-17.27-.54.96-.72,1.94-.75,2.92-.06,2.66-.04,5.33-.07,7.99-.14,11.38-.27,22.75-.46,34.13-.01.71-.39,1.43-.65,2.12-.32.86-1.01,1.7-1,2.54.05,6.27.2,12.53.42,18.79.06,1.62.47,3.23.71,4.85.17-.02.35-.04.52-.06.75-1.29,1.27-2.83,2.32-3.8,1.13-1.05,1.26-2.11,1.17-3.42ZM163.68,695.71c-.65-8.53-1.65-17.03-2.4-25.56-.83-9.46-1.54-18.93-2.34-28.39-.07-.78-.41-1.53-.63-2.3-.46.4-.51.73-.53,1.05-.35,10.15-.97,20.3-1,30.45-.05,15.06.2,30.11.55,45.16.19,7.91.94,15.81,1.28,23.71.18,4.06.5,4.63,4.85,5.65.13-.84.31-1.67.38-2.51.2-2.65.37-5.31.54-7.97.85-13.11.3-26.21-.7-39.29ZM184.45,210.74c-6.13,6.19-12.02,11.81-17.53,17.78-8.49,9.18-15.36,19.59-21.89,30.21-2.2,3.57-3.66,7.46-3.12,12.12,22.8-7.85,45.48-15.66,68.68-23.65-8.71-12.14-17.23-24.03-26.14-36.46ZM148.44,260.82c6.12-9.96,12.96-20.44,21.42-29.59,3.72-4.03,7.61-7.89,11.72-11.97.78-.78,1.57-1.56,2.37-2.36,0,0,14.56,20.32,20.26,28.27l-57.79,19.9c.43-1.36,1.1-2.76,2.02-4.25ZM312.62,311.58c-10.42-3.61-21.14-5.93-32.14-5.11-8.04.6-16.09,2.09-23.97,3.88-17.71,4.03-34.38,11.09-50.91,18.46-20.12,8.97-39.99,18.54-61.3,24.55-.53.16-1.14,1.19-1.17,1.83-.11,3.31-.08,6.63-.02,9.94.01.66.21,1.53.65,1.92,2.34,2.07,4.51,4.25,7.67,5.33,10.48,3.58,21.22,5.63,32.25,6.17,12.79.62,25.29-.39,36.98-6.27.49-.24,1.49-.25,1.83.08,6.06,5.75,12.04,11.58,18.06,17.38.87.83,1.85,1.55,2.92,2.45v-31.89c4.86-1.71,10.04-3.38,15.11-5.34,14.53-5.59,28.17-12.73,39.57-23.59,5.98-5.69,11-12.11,14.85-19.39-.19-.2-.27-.36-.38-.4ZM295.39,328.47c-9.65,9.2-21.81,16.43-38.25,22.76-3.41,1.32-6.92,2.52-10.32,3.68-1.58.54-3.14,1.08-4.68,1.62l-2.67.94v25.67c-.54-.53-1.09-1.05-1.63-1.58-4.11-3.98-8.37-8.09-12.56-12.07-.93-.91-2.22-1.39-3.71-1.39-.68,0-1.68.11-2.71.61-8.14,4.09-17.33,6-28.93,6-1.93,0-3.91-.05-6.05-.16-10.62-.52-21.1-2.52-31.15-5.96-2.03-.69-3.63-2.13-5.48-3.79l-.15-.13c-.04-2.55-.07-5.25,0-7.95,17.89-5.22,34.92-12.9,51.42-20.34,2.9-1.31,5.81-2.62,8.72-3.92,15.75-7.02,32.61-14.21,50.17-18.21,9.15-2.08,16.58-3.29,23.38-3.79,1.37-.1,2.77-.16,4.18-.16,6.91,0,14.08,1.2,22.26,3.72-3.19,5.17-7.16,10.01-11.83,14.45ZM433.86,192.02c.09.05.18.1.28.15,1.48-2.69,3.06-5.16,4.25-7.81.03-.06.05-.11.07-.17-1.52,2.62-3.04,5.24-4.6,7.83ZM436.28,195.79c-.3.5-.62,1-.94,1.47l.44.22,1.87-3.38c.45-.83.91-1.63,1.37-2.42,1.04-1.81,2.12-3.68,3.02-5.68.01-.03.02-.05.03-.08-1.9,3.31-3.83,6.6-5.79,9.87ZM462.98,143.83c-.44,4.79-2.25,9.34-4.83,13.76-3.26,5.57-6.33,11.26-9.53,16.87.79-.57,1.42-1.28,1.82-1.98,4.41-7.84,8.29-14.83,11.84-21.36.57-1.05,2.28-4.21.7-7.29ZM462.98,143.83c-.44,4.79-2.25,9.34-4.83,13.76-3.26,5.57-6.33,11.26-9.53,16.87.79-.57,1.42-1.28,1.82-1.98,4.41-7.84,8.29-14.83,11.84-21.36.57-1.05,2.28-4.21.7-7.29ZM436.28,195.79c-.3.5-.62,1-.94,1.47l.44.22,1.87-3.38c.45-.83.91-1.63,1.37-2.42,1.04-1.81,2.12-3.68,3.02-5.68.01-.03.02-.05.03-.08-1.9,3.31-3.83,6.6-5.79,9.87ZM433.86,192.02c.09.05.18.1.28.15,1.48-2.69,3.06-5.16,4.25-7.81.03-.06.05-.11.07-.17-1.52,2.62-3.04,5.24-4.6,7.83ZM312.62,311.58c-10.42-3.61-21.14-5.93-32.14-5.11-8.04.6-16.09,2.09-23.97,3.88-17.71,4.03-34.38,11.09-50.91,18.46-20.12,8.97-39.99,18.54-61.3,24.55-.53.16-1.14,1.19-1.17,1.83-.11,3.31-.08,6.63-.02,9.94.01.66.21,1.53.65,1.92,2.34,2.07,4.51,4.25,7.67,5.33,10.48,3.58,21.22,5.63,32.25,6.17,12.79.62,25.29-.39,36.98-6.27.49-.24,1.49-.25,1.83.08,6.06,5.75,12.04,11.58,18.06,17.38.87.83,1.85,1.55,2.92,2.45v-31.89c4.86-1.71,10.04-3.38,15.11-5.34,14.53-5.59,28.17-12.73,39.57-23.59,5.98-5.69,11-12.11,14.85-19.39-.19-.2-.27-.36-.38-.4ZM295.39,328.47c-9.65,9.2-21.81,16.43-38.25,22.76-3.41,1.32-6.92,2.52-10.32,3.68-1.58.54-3.14,1.08-4.68,1.62l-2.67.94v25.67c-.54-.53-1.09-1.05-1.63-1.58-4.11-3.98-8.37-8.09-12.56-12.07-.93-.91-2.22-1.39-3.71-1.39-.68,0-1.68.11-2.71.61-8.14,4.09-17.33,6-28.93,6-1.93,0-3.91-.05-6.05-.16-10.62-.52-21.1-2.52-31.15-5.96-2.03-.69-3.63-2.13-5.48-3.79l-.15-.13c-.04-2.55-.07-5.25,0-7.95,17.89-5.22,34.92-12.9,51.42-20.34,2.9-1.31,5.81-2.62,8.72-3.92,15.75-7.02,32.61-14.21,50.17-18.21,9.15-2.08,16.58-3.29,23.38-3.79,1.37-.1,2.77-.16,4.18-.16,6.91,0,14.08,1.2,22.26,3.72-3.19,5.17-7.16,10.01-11.83,14.45ZM184.45,210.74c-6.13,6.19-12.02,11.81-17.53,17.78-8.49,9.18-15.36,19.59-21.89,30.21-2.2,3.57-3.66,7.46-3.12,12.12,22.8-7.85,45.48-15.66,68.68-23.65-8.71-12.14-17.23-24.03-26.14-36.46ZM148.44,260.82c6.12-9.96,12.96-20.44,21.42-29.59,3.72-4.03,7.61-7.89,11.72-11.97.78-.78,1.57-1.56,2.37-2.36,0,0,14.56,20.32,20.26,28.27l-57.79,19.9c.43-1.36,1.1-2.76,2.02-4.25ZM163.68,695.71c-.65-8.53-1.65-17.03-2.4-25.56-.83-9.46-1.54-18.93-2.34-28.39-.07-.78-.41-1.53-.63-2.3-.46.4-.51.73-.53,1.05-.35,10.15-.97,20.3-1,30.45-.05,15.06.2,30.11.55,45.16.19,7.91.94,15.81,1.28,23.71.18,4.06.5,4.63,4.85,5.65.13-.84.31-1.67.38-2.51.2-2.65.37-5.31.54-7.97.85-13.11.3-26.21-.7-39.29ZM136.6,706c-.29-4.38-.72-8.76-.81-13.14-.26-11.88-.3-23.77-.55-35.65-.13-5.76-.56-11.51-.85-17.27-.54.96-.72,1.94-.75,2.92-.06,2.66-.04,5.33-.07,7.99-.14,11.38-.27,22.75-.46,34.13-.01.71-.39,1.43-.65,2.12-.32.86-1.01,1.7-1,2.54.05,6.27.2,12.53.42,18.79.06,1.62.47,3.23.71,4.85.17-.02.35-.04.52-.06.75-1.29,1.27-2.83,2.32-3.8,1.13-1.05,1.26-2.11,1.17-3.42ZM136.6,706c-.29-4.38-.72-8.76-.81-13.14-.26-11.88-.3-23.77-.55-35.65-.13-5.76-.56-11.51-.85-17.27-.54.96-.72,1.94-.75,2.92-.06,2.66-.04,5.33-.07,7.99-.14,11.38-.27,22.75-.46,34.13-.01.71-.39,1.43-.65,2.12-.32.86-1.01,1.7-1,2.54.05,6.27.2,12.53.42,18.79.06,1.62.47,3.23.71,4.85.17-.02.35-.04.52-.06.75-1.29,1.27-2.83,2.32-3.8,1.13-1.05,1.26-2.11,1.17-3.42ZM163.68,695.71c-.65-8.53-1.65-17.03-2.4-25.56-.83-9.46-1.54-18.93-2.34-28.39-.07-.78-.41-1.53-.63-2.3-.46.4-.51.73-.53,1.05-.35,10.15-.97,20.3-1,30.45-.05,15.06.2,30.11.55,45.16.19,7.91.94,15.81,1.28,23.71.18,4.06.5,4.63,4.85,5.65.13-.84.31-1.67.38-2.51.2-2.65.37-5.31.54-7.97.85-13.11.3-26.21-.7-39.29ZM184.45,210.74c-6.13,6.19-12.02,11.81-17.53,17.78-8.49,9.18-15.36,19.59-21.89,30.21-2.2,3.57-3.66,7.46-3.12,12.12,22.8-7.85,45.48-15.66,68.68-23.65-8.71-12.14-17.23-24.03-26.14-36.46ZM148.44,260.82c6.12-9.96,12.96-20.44,21.42-29.59,3.72-4.03,7.61-7.89,11.72-11.97.78-.78,1.57-1.56,2.37-2.36,0,0,14.56,20.32,20.26,28.27l-57.79,19.9c.43-1.36,1.1-2.76,2.02-4.25ZM312.62,311.58c-10.42-3.61-21.14-5.93-32.14-5.11-8.04.6-16.09,2.09-23.97,3.88-17.71,4.03-34.38,11.09-50.91,18.46-20.12,8.97-39.99,18.54-61.3,24.55-.53.16-1.14,1.19-1.17,1.83-.11,3.31-.08,6.63-.02,9.94.01.66.21,1.53.65,1.92,2.34,2.07,4.51,4.25,7.67,5.33,10.48,3.58,21.22,5.63,32.25,6.17,12.79.62,25.29-.39,36.98-6.27.49-.24,1.49-.25,1.83.08,6.06,5.75,12.04,11.58,18.06,17.38.87.83,1.85,1.55,2.92,2.45v-31.89c4.86-1.71,10.04-3.38,15.11-5.34,14.53-5.59,28.17-12.73,39.57-23.59,5.98-5.69,11-12.11,14.85-19.39-.19-.2-.27-.36-.38-.4ZM295.39,328.47c-9.65,9.2-21.81,16.43-38.25,22.76-3.41,1.32-6.92,2.52-10.32,3.68-1.58.54-3.14,1.08-4.68,1.62l-2.67.94v25.67c-.54-.53-1.09-1.05-1.63-1.58-4.11-3.98-8.37-8.09-12.56-12.07-.93-.91-2.22-1.39-3.71-1.39-.68,0-1.68.11-2.71.61-8.14,4.09-17.33,6-28.93,6-1.93,0-3.91-.05-6.05-.16-10.62-.52-21.1-2.52-31.15-5.96-2.03-.69-3.63-2.13-5.48-3.79l-.15-.13c-.04-2.55-.07-5.25,0-7.95,17.89-5.22,34.92-12.9,51.42-20.34,2.9-1.31,5.81-2.62,8.72-3.92,15.75-7.02,32.61-14.21,50.17-18.21,9.15-2.08,16.58-3.29,23.38-3.79,1.37-.1,2.77-.16,4.18-.16,6.91,0,14.08,1.2,22.26,3.72-3.19,5.17-7.16,10.01-11.83,14.45ZM433.86,192.02c.09.05.18.1.28.15,1.48-2.69,3.06-5.16,4.25-7.81.03-.06.05-.11.07-.17-1.52,2.62-3.04,5.24-4.6,7.83ZM436.28,195.79c-.3.5-.62,1-.94,1.47l.44.22,1.87-3.38c.45-.83.91-1.63,1.37-2.42,1.04-1.81,2.12-3.68,3.02-5.68.01-.03.02-.05.03-.08-1.9,3.31-3.83,6.6-5.79,9.87ZM462.98,143.83c-.44,4.79-2.25,9.34-4.83,13.76-3.26,5.57-6.33,11.26-9.53,16.87.79-.57,1.42-1.28,1.82-1.98,4.41-7.84,8.29-14.83,11.84-21.36.57-1.05,2.28-4.21.7-7.29ZM462.98,143.83c-.44,4.79-2.25,9.34-4.83,13.76-3.26,5.57-6.33,11.26-9.53,16.87.79-.57,1.42-1.28,1.82-1.98,4.41-7.84,8.29-14.83,11.84-21.36.57-1.05,2.28-4.21.7-7.29ZM436.28,195.79c-.3.5-.62,1-.94,1.47l.44.22,1.87-3.38c.45-.83.91-1.63,1.37-2.42,1.04-1.81,2.12-3.68,3.02-5.68.01-.03.02-.05.03-.08-1.9,3.31-3.83,6.6-5.79,9.87ZM433.86,192.02c.09.05.18.1.28.15,1.48-2.69,3.06-5.16,4.25-7.81.03-.06.05-.11.07-.17-1.52,2.62-3.04,5.24-4.6,7.83ZM312.62,311.58c-10.42-3.61-21.14-5.93-32.14-5.11-8.04.6-16.09,2.09-23.97,3.88-17.71,4.03-34.38,11.09-50.91,18.46-20.12,8.97-39.99,18.54-61.3,24.55-.53.16-1.14,1.19-1.17,1.83-.11,3.31-.08,6.63-.02,9.94.01.66.21,1.53.65,1.92,2.34,2.07,4.51,4.25,7.67,5.33,10.48,3.58,21.22,5.63,32.25,6.17,12.79.62,25.29-.39,36.98-6.27.49-.24,1.49-.25,1.83.08,6.06,5.75,12.04,11.58,18.06,17.38.87.83,1.85,1.55,2.92,2.45v-31.89c4.86-1.71,10.04-3.38,15.11-5.34,14.53-5.59,28.17-12.73,39.57-23.59,5.98-5.69,11-12.11,14.85-19.39-.19-.2-.27-.36-.38-.4ZM295.39,328.47c-9.65,9.2-21.81,16.43-38.25,22.76-3.41,1.32-6.92,2.52-10.32,3.68-1.58.54-3.14,1.08-4.68,1.62l-2.67.94v25.67c-.54-.53-1.09-1.05-1.63-1.58-4.11-3.98-8.37-8.09-12.56-12.07-.93-.91-2.22-1.39-3.71-1.39-.68,0-1.68.11-2.71.61-8.14,4.09-17.33,6-28.93,6-1.93,0-3.91-.05-6.05-.16-10.62-.52-21.1-2.52-31.15-5.96-2.03-.69-3.63-2.13-5.48-3.79l-.15-.13c-.04-2.55-.07-5.25,0-7.95,17.89-5.22,34.92-12.9,51.42-20.34,2.9-1.31,5.81-2.62,8.72-3.92,15.75-7.02,32.61-14.21,50.17-18.21,9.15-2.08,16.58-3.29,23.38-3.79,1.37-.1,2.77-.16,4.18-.16,6.91,0,14.08,1.2,22.26,3.72-3.19,5.17-7.16,10.01-11.83,14.45ZM184.45,210.74c-6.13,6.19-12.02,11.81-17.53,17.78-8.49,9.18-15.36,19.59-21.89,30.21-2.2,3.57-3.66,7.46-3.12,12.12,22.8-7.85,45.48-15.66,68.68-23.65-8.71-12.14-17.23-24.03-26.14-36.46ZM148.44,260.82c6.12-9.96,12.96-20.44,21.42-29.59,3.72-4.03,7.61-7.89,11.72-11.97.78-.78,1.57-1.56,2.37-2.36,0,0,14.56,20.32,20.26,28.27l-57.79,19.9c.43-1.36,1.1-2.76,2.02-4.25ZM163.68,695.71c-.65-8.53-1.65-17.03-2.4-25.56-.83-9.46-1.54-18.93-2.34-28.39-.07-.78-.41-1.53-.63-2.3-.46.4-.51.73-.53,1.05-.35,10.15-.97,20.3-1,30.45-.05,15.06.2,30.11.55,45.16.19,7.91.94,15.81,1.28,23.71.18,4.06.5,4.63,4.85,5.65.13-.84.31-1.67.38-2.51.2-2.65.37-5.31.54-7.97.85-13.11.3-26.21-.7-39.29ZM136.6,706c-.29-4.38-.72-8.76-.81-13.14-.26-11.88-.3-23.77-.55-35.65-.13-5.76-.56-11.51-.85-17.27-.54.96-.72,1.94-.75,2.92-.06,2.66-.04,5.33-.07,7.99-.14,11.38-.27,22.75-.46,34.13-.01.71-.39,1.43-.65,2.12-.32.86-1.01,1.7-1,2.54.05,6.27.2,12.53.42,18.79.06,1.62.47,3.23.71,4.85.17-.02.35-.04.52-.06.75-1.29,1.27-2.83,2.32-3.8,1.13-1.05,1.26-2.11,1.17-3.42ZM136.6,706c-.29-4.38-.72-8.76-.81-13.14-.26-11.88-.3-23.77-.55-35.65-.13-5.76-.56-11.51-.85-17.27-.54.96-.72,1.94-.75,2.92-.06,2.66-.04,5.33-.07,7.99-.14,11.38-.27,22.75-.46,34.13-.01.71-.39,1.43-.65,2.12-.32.86-1.01,1.7-1,2.54.05,6.27.2,12.53.42,18.79.06,1.62.47,3.23.71,4.85.17-.02.35-.04.52-.06.75-1.29,1.27-2.83,2.32-3.8,1.13-1.05,1.26-2.11,1.17-3.42ZM163.68,695.71c-.65-8.53-1.65-17.03-2.4-25.56-.83-9.46-1.54-18.93-2.34-28.39-.07-.78-.41-1.53-.63-2.3-.46.4-.51.73-.53,1.05-.35,10.15-.97,20.3-1,30.45-.05,15.06.2,30.11.55,45.16.19,7.91.94,15.81,1.28,23.71.18,4.06.5,4.63,4.85,5.65.13-.84.31-1.67.38-2.51.2-2.65.37-5.31.54-7.97.85-13.11.3-26.21-.7-39.29ZM184.45,210.74c-6.13,6.19-12.02,11.81-17.53,17.78-8.49,9.18-15.36,19.59-21.89,30.21-2.2,3.57-3.66,7.46-3.12,12.12,22.8-7.85,45.48-15.66,68.68-23.65-8.71-12.14-17.23-24.03-26.14-36.46ZM148.44,260.82c6.12-9.96,12.96-20.44,21.42-29.59,3.72-4.03,7.61-7.89,11.72-11.97.78-.78,1.57-1.56,2.37-2.36,0,0,14.56,20.32,20.26,28.27l-57.79,19.9c.43-1.36,1.1-2.76,2.02-4.25ZM312.62,311.58c-10.42-3.61-21.14-5.93-32.14-5.11-8.04.6-16.09,2.09-23.97,3.88-17.71,4.03-34.38,11.09-50.91,18.46-20.12,8.97-39.99,18.54-61.3,24.55-.53.16-1.14,1.19-1.17,1.83-.11,3.31-.08,6.63-.02,9.94.01.66.21,1.53.65,1.92,2.34,2.07,4.51,4.25,7.67,5.33,10.48,3.58,21.22,5.63,32.25,6.17,12.79.62,25.29-.39,36.98-6.27.49-.24,1.49-.25,1.83.08,6.06,5.75,12.04,11.58,18.06,17.38.87.83,1.85,1.55,2.92,2.45v-31.89c4.86-1.71,10.04-3.38,15.11-5.34,14.53-5.59,28.17-12.73,39.57-23.59,5.98-5.69,11-12.11,14.85-19.39-.19-.2-.27-.36-.38-.4ZM295.39,328.47c-9.65,9.2-21.81,16.43-38.25,22.76-3.41,1.32-6.92,2.52-10.32,3.68-1.58.54-3.14,1.08-4.68,1.62l-2.67.94v25.67c-.54-.53-1.09-1.05-1.63-1.58-4.11-3.98-8.37-8.09-12.56-12.07-.93-.91-2.22-1.39-3.71-1.39-.68,0-1.68.11-2.71.61-8.14,4.09-17.33,6-28.93,6-1.93,0-3.91-.05-6.05-.16-10.62-.52-21.1-2.52-31.15-5.96-2.03-.69-3.63-2.13-5.48-3.79l-.15-.13c-.04-2.55-.07-5.25,0-7.95,17.89-5.22,34.92-12.9,51.42-20.34,2.9-1.31,5.81-2.62,8.72-3.92,15.75-7.02,32.61-14.21,50.17-18.21,9.15-2.08,16.58-3.29,23.38-3.79,1.37-.1,2.77-.16,4.18-.16,6.91,0,14.08,1.2,22.26,3.72-3.19,5.17-7.16,10.01-11.83,14.45ZM433.86,192.02c.09.05.18.1.28.15,1.48-2.69,3.06-5.16,4.25-7.81.03-.06.05-.11.07-.17-1.52,2.62-3.04,5.24-4.6,7.83ZM436.28,195.79c-.3.5-.62,1-.94,1.47l.44.22,1.87-3.38c.45-.83.91-1.63,1.37-2.42,1.04-1.81,2.12-3.68,3.02-5.68.01-.03.02-.05.03-.08-1.9,3.31-3.83,6.6-5.79,9.87ZM462.98,143.83c-.44,4.79-2.25,9.34-4.83,13.76-3.26,5.57-6.33,11.26-9.53,16.87.79-.57,1.42-1.28,1.82-1.98,4.41-7.84,8.29-14.83,11.84-21.36.57-1.05,2.28-4.21.7-7.29ZM462.98,143.83c-.44,4.79-2.25,9.34-4.83,13.76-3.26,5.57-6.33,11.26-9.53,16.87.79-.57,1.42-1.28,1.82-1.98,4.41-7.84,8.29-14.83,11.84-21.36.57-1.05,2.28-4.21.7-7.29ZM436.28,195.79c-.3.5-.62,1-.94,1.47l.44.22,1.87-3.38c.45-.83.91-1.63,1.37-2.42,1.04-1.81,2.12-3.68,3.02-5.68.01-.03.02-.05.03-.08-1.9,3.31-3.83,6.6-5.79,9.87ZM433.86,192.02c.09.05.18.1.28.15,1.48-2.69,3.06-5.16,4.25-7.81.03-.06.05-.11.07-.17-1.52,2.62-3.04,5.24-4.6,7.83ZM312.62,311.58c-10.42-3.61-21.14-5.93-32.14-5.11-8.04.6-16.09,2.09-23.97,3.88-17.71,4.03-34.38,11.09-50.91,18.46-20.12,8.97-39.99,18.54-61.3,24.55-.53.16-1.14,1.19-1.17,1.83-.11,3.31-.08,6.63-.02,9.94.01.66.21,1.53.65,1.92,2.34,2.07,4.51,4.25,7.67,5.33,10.48,3.58,21.22,5.63,32.25,6.17,12.79.62,25.29-.39,36.98-6.27.49-.24,1.49-.25,1.83.08,6.06,5.75,12.04,11.58,18.06,17.38.87.83,1.85,1.55,2.92,2.45v-31.89c4.86-1.71,10.04-3.38,15.11-5.34,14.53-5.59,28.17-12.73,39.57-23.59,5.98-5.69,11-12.11,14.85-19.39-.19-.2-.27-.36-.38-.4ZM295.39,328.47c-9.65,9.2-21.81,16.43-38.25,22.76-3.41,1.32-6.92,2.52-10.32,3.68-1.58.54-3.14,1.08-4.68,1.62l-2.67.94v25.67c-.54-.53-1.09-1.05-1.63-1.58-4.11-3.98-8.37-8.09-12.56-12.07-.93-.91-2.22-1.39-3.71-1.39-.68,0-1.68.11-2.71.61-8.14,4.09-17.33,6-28.93,6-1.93,0-3.91-.05-6.05-.16-10.62-.52-21.1-2.52-31.15-5.96-2.03-.69-3.63-2.13-5.48-3.79l-.15-.13c-.04-2.55-.07-5.25,0-7.95,17.89-5.22,34.92-12.9,51.42-20.34,2.9-1.31,5.81-2.62,8.72-3.92,15.75-7.02,32.61-14.21,50.17-18.21,9.15-2.08,16.58-3.29,23.38-3.79,1.37-.1,2.77-.16,4.18-.16,6.91,0,14.08,1.2,22.26,3.72-3.19,5.17-7.16,10.01-11.83,14.45ZM184.45,210.74c-6.13,6.19-12.02,11.81-17.53,17.78-8.49,9.18-15.36,19.59-21.89,30.21-2.2,3.57-3.66,7.46-3.12,12.12,22.8-7.85,45.48-15.66,68.68-23.65-8.71-12.14-17.23-24.03-26.14-36.46ZM148.44,260.82c6.12-9.96,12.96-20.44,21.42-29.59,3.72-4.03,7.61-7.89,11.72-11.97.78-.78,1.57-1.56,2.37-2.36,0,0,14.56,20.32,20.26,28.27l-57.79,19.9c.43-1.36,1.1-2.76,2.02-4.25ZM163.68,695.71c-.65-8.53-1.65-17.03-2.4-25.56-.83-9.46-1.54-18.93-2.34-28.39-.07-.78-.41-1.53-.63-2.3-.46.4-.51.73-.53,1.05-.35,10.15-.97,20.3-1,30.45-.05,15.06.2,30.11.55,45.16.19,7.91.94,15.81,1.28,23.71.18,4.06.5,4.63,4.85,5.65.13-.84.31-1.67.38-2.51.2-2.65.37-5.31.54-7.97.85-13.11.3-26.21-.7-39.29ZM136.6,706c-.29-4.38-.72-8.76-.81-13.14-.26-11.88-.3-23.77-.55-35.65-.13-5.76-.56-11.51-.85-17.27-.54.96-.72,1.94-.75,2.92-.06,2.66-.04,5.33-.07,7.99-.14,11.38-.27,22.75-.46,34.13-.01.71-.39,1.43-.65,2.12-.32.86-1.01,1.7-1,2.54.05,6.27.2,12.53.42,18.79.06,1.62.47,3.23.71,4.85.17-.02.35-.04.52-.06.75-1.29,1.27-2.83,2.32-3.8,1.13-1.05,1.26-2.11,1.17-3.42ZM462.98,143.83c-.44,4.79-2.25,9.34-4.83,13.76-3.26,5.57-6.33,11.26-9.53,16.87.79-.57,1.42-1.28,1.82-1.98,4.41-7.84,8.29-14.83,11.84-21.36.57-1.05,2.28-4.21.7-7.29ZM436.28,195.79c-.3.5-.62,1-.94,1.47l.44.22,1.87-3.38c.45-.83.91-1.63,1.37-2.42,1.04-1.81,2.12-3.68,3.02-5.68.01-.03.02-.05.03-.08-1.9,3.31-3.83,6.6-5.79,9.87ZM433.86,192.02c.09.05.18.1.28.15,1.48-2.69,3.06-5.16,4.25-7.81.03-.06.05-.11.07-.17-1.52,2.62-3.04,5.24-4.6,7.83ZM312.62,311.58c-10.42-3.61-21.14-5.93-32.14-5.11-8.04.6-16.09,2.09-23.97,3.88-17.71,4.03-34.38,11.09-50.91,18.46-20.12,8.97-39.99,18.54-61.3,24.55-.53.16-1.14,1.19-1.17,1.83-.11,3.31-.08,6.63-.02,9.94.01.66.21,1.53.65,1.92,2.34,2.07,4.51,4.25,7.67,5.33,10.48,3.58,21.22,5.63,32.25,6.17,12.79.62,25.29-.39,36.98-6.27.49-.24,1.49-.25,1.83.08,6.06,5.75,12.04,11.58,18.06,17.38.87.83,1.85,1.55,2.92,2.45v-31.89c4.86-1.71,10.04-3.38,15.11-5.34,14.53-5.59,28.17-12.73,39.57-23.59,5.98-5.69,11-12.11,14.85-19.39-.19-.2-.27-.36-.38-.4ZM295.39,328.47c-9.65,9.2-21.81,16.43-38.25,22.76-3.41,1.32-6.92,2.52-10.32,3.68-1.58.54-3.14,1.08-4.68,1.62l-2.67.94v25.67c-.54-.53-1.09-1.05-1.63-1.58-4.11-3.98-8.37-8.09-12.56-12.07-.93-.91-2.22-1.39-3.71-1.39-.68,0-1.68.11-2.71.61-8.14,4.09-17.33,6-28.93,6-1.93,0-3.91-.05-6.05-.16-10.62-.52-21.1-2.52-31.15-5.96-2.03-.69-3.63-2.13-5.48-3.79l-.15-.13c-.04-2.55-.07-5.25,0-7.95,17.89-5.22,34.92-12.9,51.42-20.34,2.9-1.31,5.81-2.62,8.72-3.92,15.75-7.02,32.61-14.21,50.17-18.21,9.15-2.08,16.58-3.29,23.38-3.79,1.37-.1,2.77-.16,4.18-.16,6.91,0,14.08,1.2,22.26,3.72-3.19,5.17-7.16,10.01-11.83,14.45ZM184.45,210.74c-6.13,6.19-12.02,11.81-17.53,17.78-8.49,9.18-15.36,19.59-21.89,30.21-2.2,3.57-3.66,7.46-3.12,12.12,22.8-7.85,45.48-15.66,68.68-23.65-8.71-12.14-17.23-24.03-26.14-36.46ZM148.44,260.82c6.12-9.96,12.96-20.44,21.42-29.59,3.72-4.03,7.61-7.89,11.72-11.97.78-.78,1.57-1.56,2.37-2.36,0,0,14.56,20.32,20.26,28.27l-57.79,19.9c.43-1.36,1.1-2.76,2.02-4.25ZM163.68,695.71c-.65-8.53-1.65-17.03-2.4-25.56-.83-9.46-1.54-18.93-2.34-28.39-.07-.78-.41-1.53-.63-2.3-.46.4-.51.73-.53,1.05-.35,10.15-.97,20.3-1,30.45-.05,15.06.2,30.11.55,45.16.19,7.91.94,15.81,1.28,23.71.18,4.06.5,4.63,4.85,5.65.13-.84.31-1.67.38-2.51.2-2.65.37-5.31.54-7.97.85-13.11.3-26.21-.7-39.29ZM136.6,706c-.29-4.38-.72-8.76-.81-13.14-.26-11.88-.3-23.77-.55-35.65-.13-5.76-.56-11.51-.85-17.27-.54.96-.72,1.94-.75,2.92-.06,2.66-.04,5.33-.07,7.99-.14,11.38-.27,22.75-.46,34.13-.01.71-.39,1.43-.65,2.12-.32.86-1.01,1.7-1,2.54.05,6.27.2,12.53.42,18.79.06,1.62.47,3.23.71,4.85.17-.02.35-.04.52-.06.75-1.29,1.27-2.83,2.32-3.8,1.13-1.05,1.26-2.11,1.17-3.42ZM136.6,706c-.29-4.38-.72-8.76-.81-13.14-.26-11.88-.3-23.77-.55-35.65-.13-5.76-.56-11.51-.85-17.27-.54.96-.72,1.94-.75,2.92-.06,2.66-.04,5.33-.07,7.99-.14,11.38-.27,22.75-.46,34.13-.01.71-.39,1.43-.65,2.12-.32.86-1.01,1.7-1,2.54.05,6.27.2,12.53.42,18.79.06,1.62.47,3.23.71,4.85.17-.02.35-.04.52-.06.75-1.29,1.27-2.83,2.32-3.8,1.13-1.05,1.26-2.11,1.17-3.42ZM163.68,695.71c-.65-8.53-1.65-17.03-2.4-25.56-.83-9.46-1.54-18.93-2.34-28.39-.07-.78-.41-1.53-.63-2.3-.46.4-.51.73-.53,1.05-.35,10.15-.97,20.3-1,30.45-.05,15.06.2,30.11.55,45.16.19,7.91.94,15.81,1.28,23.71.18,4.06.5,4.63,4.85,5.65.13-.84.31-1.67.38-2.51.2-2.65.37-5.31.54-7.97.85-13.11.3-26.21-.7-39.29ZM184.45,210.74c-6.13,6.19-12.02,11.81-17.53,17.78-8.49,9.18-15.36,19.59-21.89,30.21-2.2,3.57-3.66,7.46-3.12,12.12,22.8-7.85,45.48-15.66,68.68-23.65-8.71-12.14-17.23-24.03-26.14-36.46ZM148.44,260.82c6.12-9.96,12.96-20.44,21.42-29.59,3.72-4.03,7.61-7.89,11.72-11.97.78-.78,1.57-1.56,2.37-2.36,0,0,14.56,20.32,20.26,28.27l-57.79,19.9c.43-1.36,1.1-2.76,2.02-4.25ZM312.62,311.58c-10.42-3.61-21.14-5.93-32.14-5.11-8.04.6-16.09,2.09-23.97,3.88-17.71,4.03-34.38,11.09-50.91,18.46-20.12,8.97-39.99,18.54-61.3,24.55-.53.16-1.14,1.19-1.17,1.83-.11,3.31-.08,6.63-.02,9.94.01.66.21,1.53.65,1.92,2.34,2.07,4.51,4.25,7.67,5.33,10.48,3.58,21.22,5.63,32.25,6.17,12.79.62,25.29-.39,36.98-6.27.49-.24,1.49-.25,1.83.08,6.06,5.75,12.04,11.58,18.06,17.38.87.83,1.85,1.55,2.92,2.45v-31.89c4.86-1.71,10.04-3.38,15.11-5.34,14.53-5.59,28.17-12.73,39.57-23.59,5.98-5.69,11-12.11,14.85-19.39-.19-.2-.27-.36-.38-.4ZM295.39,328.47c-9.65,9.2-21.81,16.43-38.25,22.76-3.41,1.32-6.92,2.52-10.32,3.68-1.58.54-3.14,1.08-4.68,1.62l-2.67.94v25.67c-.54-.53-1.09-1.05-1.63-1.58-4.11-3.98-8.37-8.09-12.56-12.07-.93-.91-2.22-1.39-3.71-1.39-.68,0-1.68.11-2.71.61-8.14,4.09-17.33,6-28.93,6-1.93,0-3.91-.05-6.05-.16-10.62-.52-21.1-2.52-31.15-5.96-2.03-.69-3.63-2.13-5.48-3.79l-.15-.13c-.04-2.55-.07-5.25,0-7.95,17.89-5.22,34.92-12.9,51.42-20.34,2.9-1.31,5.81-2.62,8.72-3.92,15.75-7.02,32.61-14.21,50.17-18.21,9.15-2.08,16.58-3.29,23.38-3.79,1.37-.1,2.77-.16,4.18-.16,6.91,0,14.08,1.2,22.26,3.72-3.19,5.17-7.16,10.01-11.83,14.45ZM433.86,192.02c.09.05.18.1.28.15,1.48-2.69,3.06-5.16,4.25-7.81.03-.06.05-.11.07-.17-1.52,2.62-3.04,5.24-4.6,7.83ZM436.28,195.79c-.3.5-.62,1-.94,1.47l.44.22,1.87-3.38c.45-.83.91-1.63,1.37-2.42,1.04-1.81,2.12-3.68,3.02-5.68.01-.03.02-.05.03-.08-1.9,3.31-3.83,6.6-5.79,9.87ZM462.98,143.83c-.44,4.79-2.25,9.34-4.83,13.76-3.26,5.57-6.33,11.26-9.53,16.87.79-.57,1.42-1.28,1.82-1.98,4.41-7.84,8.29-14.83,11.84-21.36.57-1.05,2.28-4.21.7-7.29ZM462.98,143.83c-.44,4.79-2.25,9.34-4.83,13.76-3.26,5.57-6.33,11.26-9.53,16.87.79-.57,1.42-1.28,1.82-1.98,4.41-7.84,8.29-14.83,11.84-21.36.57-1.05,2.28-4.21.7-7.29ZM436.28,195.79c-.3.5-.62,1-.94,1.47l.44.22,1.87-3.38c.45-.83.91-1.63,1.37-2.42,1.04-1.81,2.12-3.68,3.02-5.68.01-.03.02-.05.03-.08-1.9,3.31-3.83,6.6-5.79,9.87ZM433.86,192.02c.09.05.18.1.28.15,1.48-2.69,3.06-5.16,4.25-7.81.03-.06.05-.11.07-.17-1.52,2.62-3.04,5.24-4.6,7.83ZM312.62,311.58c-10.42-3.61-21.14-5.93-32.14-5.11-8.04.6-16.09,2.09-23.97,3.88-17.71,4.03-34.38,11.09-50.91,18.46-20.12,8.97-39.99,18.54-61.3,24.55-.53.16-1.14,1.19-1.17,1.83-.11,3.31-.08,6.63-.02,9.94.01.66.21,1.53.65,1.92,2.34,2.07,4.51,4.25,7.67,5.33,10.48,3.58,21.22,5.63,32.25,6.17,12.79.62,25.29-.39,36.98-6.27.49-.24,1.49-.25,1.83.08,6.06,5.75,12.04,11.58,18.06,17.38.87.83,1.85,1.55,2.92,2.45v-31.89c4.86-1.71,10.04-3.38,15.11-5.34,14.53-5.59,28.17-12.73,39.57-23.59,5.98-5.69,11-12.11,14.85-19.39-.19-.2-.27-.36-.38-.4ZM295.39,328.47c-9.65,9.2-21.81,16.43-38.25,22.76-3.41,1.32-6.92,2.52-10.32,3.68-1.58.54-3.14,1.08-4.68,1.62l-2.67.94v25.67c-.54-.53-1.09-1.05-1.63-1.58-4.11-3.98-8.37-8.09-12.56-12.07-.93-.91-2.22-1.39-3.71-1.39-.68,0-1.68.11-2.71.61-8.14,4.09-17.33,6-28.93,6-1.93,0-3.91-.05-6.05-.16-10.62-.52-21.1-2.52-31.15-5.96-2.03-.69-3.63-2.13-5.48-3.79l-.15-.13c-.04-2.55-.07-5.25,0-7.95,17.89-5.22,34.92-12.9,51.42-20.34,2.9-1.31,5.81-2.62,8.72-3.92,15.75-7.02,32.61-14.21,50.17-18.21,9.15-2.08,16.58-3.29,23.38-3.79,1.37-.1,2.77-.16,4.18-.16,6.91,0,14.08,1.2,22.26,3.72-3.19,5.17-7.16,10.01-11.83,14.45ZM184.45,210.74c-6.13,6.19-12.02,11.81-17.53,17.78-8.49,9.18-15.36,19.59-21.89,30.21-2.2,3.57-3.66,7.46-3.12,12.12,22.8-7.85,45.48-15.66,68.68-23.65-8.71-12.14-17.23-24.03-26.14-36.46ZM148.44,260.82c6.12-9.96,12.96-20.44,21.42-29.59,3.72-4.03,7.61-7.89,11.72-11.97.78-.78,1.57-1.56,2.37-2.36,0,0,14.56,20.32,20.26,28.27l-57.79,19.9c.43-1.36,1.1-2.76,2.02-4.25ZM163.68,695.71c-.65-8.53-1.65-17.03-2.4-25.56-.83-9.46-1.54-18.93-2.34-28.39-.07-.78-.41-1.53-.63-2.3-.46.4-.51.73-.53,1.05-.35,10.15-.97,20.3-1,30.45-.05,15.06.2,30.11.55,45.16.19,7.91.94,15.81,1.28,23.71.18,4.06.5,4.63,4.85,5.65.13-.84.31-1.67.38-2.51.2-2.65.37-5.31.54-7.97.85-13.11.3-26.21-.7-39.29ZM136.6,706c-.29-4.38-.72-8.76-.81-13.14-.26-11.88-.3-23.77-.55-35.65-.13-5.76-.56-11.51-.85-17.27-.54.96-.72,1.94-.75,2.92-.06,2.66-.04,5.33-.07,7.99-.14,11.38-.27,22.75-.46,34.13-.01.71-.39,1.43-.65,2.12-.32.86-1.01,1.7-1,2.54.05,6.27.2,12.53.42,18.79.06,1.62.47,3.23.71,4.85.17-.02.35-.04.52-.06.75-1.29,1.27-2.83,2.32-3.8,1.13-1.05,1.26-2.11,1.17-3.42ZM136.6,706c-.29-4.38-.72-8.76-.81-13.14-.26-11.88-.3-23.77-.55-35.65-.13-5.76-.56-11.51-.85-17.27-.54.96-.72,1.94-.75,2.92-.06,2.66-.04,5.33-.07,7.99-.14,11.38-.27,22.75-.46,34.13-.01.71-.39,1.43-.65,2.12-.32.86-1.01,1.7-1,2.54.05,6.27.2,12.53.42,18.79.06,1.62.47,3.23.71,4.85.17-.02.35-.04.52-.06.75-1.29,1.27-2.83,2.32-3.8,1.13-1.05,1.26-2.11,1.17-3.42ZM163.68,695.71c-.65-8.53-1.65-17.03-2.4-25.56-.83-9.46-1.54-18.93-2.34-28.39-.07-.78-.41-1.53-.63-2.3-.46.4-.51.73-.53,1.05-.35,10.15-.97,20.3-1,30.45-.05,15.06.2,30.11.55,45.16.19,7.91.94,15.81,1.28,23.71.18,4.06.5,4.63,4.85,5.65.13-.84.31-1.67.38-2.51.2-2.65.37-5.31.54-7.97.85-13.11.3-26.21-.7-39.29ZM184.45,210.74c-6.13,6.19-12.02,11.81-17.53,17.78-8.49,9.18-15.36,19.59-21.89,30.21-2.2,3.57-3.66,7.46-3.12,12.12,22.8-7.85,45.48-15.66,68.68-23.65-8.71-12.14-17.23-24.03-26.14-36.46ZM148.44,260.82c6.12-9.96,12.96-20.44,21.42-29.59,3.72-4.03,7.61-7.89,11.72-11.97.78-.78,1.57-1.56,2.37-2.36,0,0,14.56,20.32,20.26,28.27l-57.79,19.9c.43-1.36,1.1-2.76,2.02-4.25ZM312.62,311.58c-10.42-3.61-21.14-5.93-32.14-5.11-8.04.6-16.09,2.09-23.97,3.88-17.71,4.03-34.38,11.09-50.91,18.46-20.12,8.97-39.99,18.54-61.3,24.55-.53.16-1.14,1.19-1.17,1.83-.11,3.31-.08,6.63-.02,9.94.01.66.21,1.53.65,1.92,2.34,2.07,4.51,4.25,7.67,5.33,10.48,3.58,21.22,5.63,32.25,6.17,12.79.62,25.29-.39,36.98-6.27.49-.24,1.49-.25,1.83.08,6.06,5.75,12.04,11.58,18.06,17.38.87.83,1.85,1.55,2.92,2.45v-31.89c4.86-1.71,10.04-3.38,15.11-5.34,14.53-5.59,28.17-12.73,39.57-23.59,5.98-5.69,11-12.11,14.85-19.39-.19-.2-.27-.36-.38-.4ZM295.39,328.47c-9.65,9.2-21.81,16.43-38.25,22.76-3.41,1.32-6.92,2.52-10.32,3.68-1.58.54-3.14,1.08-4.68,1.62l-2.67.94v25.67c-.54-.53-1.09-1.05-1.63-1.58-4.11-3.98-8.37-8.09-12.56-12.07-.93-.91-2.22-1.39-3.71-1.39-.68,0-1.68.11-2.71.61-8.14,4.09-17.33,6-28.93,6-1.93,0-3.91-.05-6.05-.16-10.62-.52-21.1-2.52-31.15-5.96-2.03-.69-3.63-2.13-5.48-3.79l-.15-.13c-.04-2.55-.07-5.25,0-7.95,17.89-5.22,34.92-12.9,51.42-20.34,2.9-1.31,5.81-2.62,8.72-3.92,15.75-7.02,32.61-14.21,50.17-18.21,9.15-2.08,16.58-3.29,23.38-3.79,1.37-.1,2.77-.16,4.18-.16,6.91,0,14.08,1.2,22.26,3.72-3.19,5.17-7.16,10.01-11.83,14.45ZM433.86,192.02c.09.05.18.1.28.15,1.48-2.69,3.06-5.16,4.25-7.81.03-.06.05-.11.07-.17-1.52,2.62-3.04,5.24-4.6,7.83ZM436.28,195.79c-.3.5-.62,1-.94,1.47l.44.22,1.87-3.38c.45-.83.91-1.63,1.37-2.42,1.04-1.81,2.12-3.68,3.02-5.68.01-.03.02-.05.03-.08-1.9,3.31-3.83,6.6-5.79,9.87ZM462.98,143.83c-.44,4.79-2.25,9.34-4.83,13.76-3.26,5.57-6.33,11.26-9.53,16.87.79-.57,1.42-1.28,1.82-1.98,4.41-7.84,8.29-14.83,11.84-21.36.57-1.05,2.28-4.21.7-7.29ZM462.98,143.83c-.44,4.79-2.25,9.34-4.83,13.76-3.26,5.57-6.33,11.26-9.53,16.87.79-.57,1.42-1.28,1.82-1.98,4.41-7.84,8.29-14.83,11.84-21.36.57-1.05,2.28-4.21.7-7.29ZM436.28,195.79c-.3.5-.62,1-.94,1.47l.44.22,1.87-3.38c.45-.83.91-1.63,1.37-2.42,1.04-1.81,2.12-3.68,3.02-5.68.01-.03.02-.05.03-.08-1.9,3.31-3.83,6.6-5.79,9.87ZM433.86,192.02c.09.05.18.1.28.15,1.48-2.69,3.06-5.16,4.25-7.81.03-.06.05-.11.07-.17-1.52,2.62-3.04,5.24-4.6,7.83ZM312.62,311.58c-10.42-3.61-21.14-5.93-32.14-5.11-8.04.6-16.09,2.09-23.97,3.88-17.71,4.03-34.38,11.09-50.91,18.46-20.12,8.97-39.99,18.54-61.3,24.55-.53.16-1.14,1.19-1.17,1.83-.11,3.31-.08,6.63-.02,9.94.01.66.21,1.53.65,1.92,2.34,2.07,4.51,4.25,7.67,5.33,10.48,3.58,21.22,5.63,32.25,6.17,12.79.62,25.29-.39,36.98-6.27.49-.24,1.49-.25,1.83.08,6.06,5.75,12.04,11.58,18.06,17.38.87.83,1.85,1.55,2.92,2.45v-31.89c4.86-1.71,10.04-3.38,15.11-5.34,14.53-5.59,28.17-12.73,39.57-23.59,5.98-5.69,11-12.11,14.85-19.39-.19-.2-.27-.36-.38-.4ZM295.39,328.47c-9.65,9.2-21.81,16.43-38.25,22.76-3.41,1.32-6.92,2.52-10.32,3.68-1.58.54-3.14,1.08-4.68,1.62l-2.67.94v25.67c-.54-.53-1.09-1.05-1.63-1.58-4.11-3.98-8.37-8.09-12.56-12.07-.93-.91-2.22-1.39-3.71-1.39-.68,0-1.68.11-2.71.61-8.14,4.09-17.33,6-28.93,6-1.93,0-3.91-.05-6.05-.16-10.62-.52-21.1-2.52-31.15-5.96-2.03-.69-3.63-2.13-5.48-3.79l-.15-.13c-.04-2.55-.07-5.25,0-7.95,17.89-5.22,34.92-12.9,51.42-20.34,2.9-1.31,5.81-2.62,8.72-3.92,15.75-7.02,32.61-14.21,50.17-18.21,9.15-2.08,16.58-3.29,23.38-3.79,1.37-.1,2.77-.16,4.18-.16,6.91,0,14.08,1.2,22.26,3.72-3.19,5.17-7.16,10.01-11.83,14.45ZM184.45,210.74c-6.13,6.19-12.02,11.81-17.53,17.78-8.49,9.18-15.36,19.59-21.89,30.21-2.2,3.57-3.66,7.46-3.12,12.12,22.8-7.85,45.48-15.66,68.68-23.65-8.71-12.14-17.23-24.03-26.14-36.46ZM148.44,260.82c6.12-9.96,12.96-20.44,21.42-29.59,3.72-4.03,7.61-7.89,11.72-11.97.78-.78,1.57-1.56,2.37-2.36,0,0,14.56,20.32,20.26,28.27l-57.79,19.9c.43-1.36,1.1-2.76,2.02-4.25ZM163.68,695.71c-.65-8.53-1.65-17.03-2.4-25.56-.83-9.46-1.54-18.93-2.34-28.39-.07-.78-.41-1.53-.63-2.3-.46.4-.51.73-.53,1.05-.35,10.15-.97,20.3-1,30.45-.05,15.06.2,30.11.55,45.16.19,7.91.94,15.81,1.28,23.71.18,4.06.5,4.63,4.85,5.65.13-.84.31-1.67.38-2.51.2-2.65.37-5.31.54-7.97.85-13.11.3-26.21-.7-39.29ZM136.6,706c-.29-4.38-.72-8.76-.81-13.14-.26-11.88-.3-23.77-.55-35.65-.13-5.76-.56-11.51-.85-17.27-.54.96-.72,1.94-.75,2.92-.06,2.66-.04,5.33-.07,7.99-.14,11.38-.27,22.75-.46,34.13-.01.71-.39,1.43-.65,2.12-.32.86-1.01,1.7-1,2.54.05,6.27.2,12.53.42,18.79.06,1.62.47,3.23.71,4.85.17-.02.35-.04.52-.06.75-1.29,1.27-2.83,2.32-3.8,1.13-1.05,1.26-2.11,1.17-3.42ZM136.6,706c-.29-4.38-.72-8.76-.81-13.14-.26-11.88-.3-23.77-.55-35.65-.13-5.76-.56-11.51-.85-17.27-.54.96-.72,1.94-.75,2.92-.06,2.66-.04,5.33-.07,7.99-.14,11.38-.27,22.75-.46,34.13-.01.71-.39,1.43-.65,2.12-.32.86-1.01,1.7-1,2.54.05,6.27.2,12.53.42,18.79.06,1.62.47,3.23.71,4.85.17-.02.35-.04.52-.06.75-1.29,1.27-2.83,2.32-3.8,1.13-1.05,1.26-2.11,1.17-3.42ZM163.68,695.71c-.65-8.53-1.65-17.03-2.4-25.56-.83-9.46-1.54-18.93-2.34-28.39-.07-.78-.41-1.53-.63-2.3-.46.4-.51.73-.53,1.05-.35,10.15-.97,20.3-1,30.45-.05,15.06.2,30.11.55,45.16.19,7.91.94,15.81,1.28,23.71.18,4.06.5,4.63,4.85,5.65.13-.84.31-1.67.38-2.51.2-2.65.37-5.31.54-7.97.85-13.11.3-26.21-.7-39.29ZM184.45,210.74c-6.13,6.19-12.02,11.81-17.53,17.78-8.49,9.18-15.36,19.59-21.89,30.21-2.2,3.57-3.66,7.46-3.12,12.12,22.8-7.85,45.48-15.66,68.68-23.65-8.71-12.14-17.23-24.03-26.14-36.46ZM148.44,260.82c6.12-9.96,12.96-20.44,21.42-29.59,3.72-4.03,7.61-7.89,11.72-11.97.78-.78,1.57-1.56,2.37-2.36,0,0,14.56,20.32,20.26,28.27l-57.79,19.9c.43-1.36,1.1-2.76,2.02-4.25ZM312.62,311.58c-10.42-3.61-21.14-5.93-32.14-5.11-8.04.6-16.09,2.09-23.97,3.88-17.71,4.03-34.38,11.09-50.91,18.46-20.12,8.97-39.99,18.54-61.3,24.55-.53.16-1.14,1.19-1.17,1.83-.11,3.31-.08,6.63-.02,9.94.01.66.21,1.53.65,1.92,2.34,2.07,4.51,4.25,7.67,5.33,10.48,3.58,21.22,5.63,32.25,6.17,12.79.62,25.29-.39,36.98-6.27.49-.24,1.49-.25,1.83.08,6.06,5.75,12.04,11.58,18.06,17.38.87.83,1.85,1.55,2.92,2.45v-31.89c4.86-1.71,10.04-3.38,15.11-5.34,14.53-5.59,28.17-12.73,39.57-23.59,5.98-5.69,11-12.11,14.85-19.39-.19-.2-.27-.36-.38-.4ZM295.39,328.47c-9.65,9.2-21.81,16.43-38.25,22.76-3.41,1.32-6.92,2.52-10.32,3.68-1.58.54-3.14,1.08-4.68,1.62l-2.67.94v25.67c-.54-.53-1.09-1.05-1.63-1.58-4.11-3.98-8.37-8.09-12.56-12.07-.93-.91-2.22-1.39-3.71-1.39-.68,0-1.68.11-2.71.61-8.14,4.09-17.33,6-28.93,6-1.93,0-3.91-.05-6.05-.16-10.62-.52-21.1-2.52-31.15-5.96-2.03-.69-3.63-2.13-5.48-3.79l-.15-.13c-.04-2.55-.07-5.25,0-7.95,17.89-5.22,34.92-12.9,51.42-20.34,2.9-1.31,5.81-2.62,8.72-3.92,15.75-7.02,32.61-14.21,50.17-18.21,9.15-2.08,16.58-3.29,23.38-3.79,1.37-.1,2.77-.16,4.18-.16,6.91,0,14.08,1.2,22.26,3.72-3.19,5.17-7.16,10.01-11.83,14.45ZM433.86,192.02c.09.05.18.1.28.15,1.48-2.69,3.06-5.16,4.25-7.81.03-.06.05-.11.07-.17-1.52,2.62-3.04,5.24-4.6,7.83ZM436.28,195.79c-.3.5-.62,1-.94,1.47l.44.22,1.87-3.38c.45-.83.91-1.63,1.37-2.42,1.04-1.81,2.12-3.68,3.02-5.68.01-.03.02-.05.03-.08-1.9,3.31-3.83,6.6-5.79,9.87ZM462.98,143.83c-.44,4.79-2.25,9.34-4.83,13.76-3.26,5.57-6.33,11.26-9.53,16.87.79-.57,1.42-1.28,1.82-1.98,4.41-7.84,8.29-14.83,11.84-21.36.57-1.05,2.28-4.21.7-7.29ZM462.98,143.83c-.44,4.79-2.25,9.34-4.83,13.76-3.26,5.57-6.33,11.26-9.53,16.87.79-.57,1.42-1.28,1.82-1.98,4.41-7.84,8.29-14.83,11.84-21.36.57-1.05,2.28-4.21.7-7.29ZM436.28,195.79c-.3.5-.62,1-.94,1.47l.44.22,1.87-3.38c.45-.83.91-1.63,1.37-2.42,1.04-1.81,2.12-3.68,3.02-5.68.01-.03.02-.05.03-.08-1.9,3.31-3.83,6.6-5.79,9.87ZM433.86,192.02c.09.05.18.1.28.15,1.48-2.69,3.06-5.16,4.25-7.81.03-.06.05-.11.07-.17-1.52,2.62-3.04,5.24-4.6,7.83ZM312.62,311.58c-10.42-3.61-21.14-5.93-32.14-5.11-8.04.6-16.09,2.09-23.97,3.88-17.71,4.03-34.38,11.09-50.91,18.46-20.12,8.97-39.99,18.54-61.3,24.55-.53.16-1.14,1.19-1.17,1.83-.11,3.31-.08,6.63-.02,9.94.01.66.21,1.53.65,1.92,2.34,2.07,4.51,4.25,7.67,5.33,10.48,3.58,21.22,5.63,32.25,6.17,12.79.62,25.29-.39,36.98-6.27.49-.24,1.49-.25,1.83.08,6.06,5.75,12.04,11.58,18.06,17.38.87.83,1.85,1.55,2.92,2.45v-31.89c4.86-1.71,10.04-3.38,15.11-5.34,14.53-5.59,28.17-12.73,39.57-23.59,5.98-5.69,11-12.11,14.85-19.39-.19-.2-.27-.36-.38-.4ZM295.39,328.47c-9.65,9.2-21.81,16.43-38.25,22.76-3.41,1.32-6.92,2.52-10.32,3.68-1.58.54-3.14,1.08-4.68,1.62l-2.67.94v25.67c-.54-.53-1.09-1.05-1.63-1.58-4.11-3.98-8.37-8.09-12.56-12.07-.93-.91-2.22-1.39-3.71-1.39-.68,0-1.68.11-2.71.61-8.14,4.09-17.33,6-28.93,6-1.93,0-3.91-.05-6.05-.16-10.62-.52-21.1-2.52-31.15-5.96-2.03-.69-3.63-2.13-5.48-3.79l-.15-.13c-.04-2.55-.07-5.25,0-7.95,17.89-5.22,34.92-12.9,51.42-20.34,2.9-1.31,5.81-2.62,8.72-3.92,15.75-7.02,32.61-14.21,50.17-18.21,9.15-2.08,16.58-3.29,23.38-3.79,1.37-.1,2.77-.16,4.18-.16,6.91,0,14.08,1.2,22.26,3.72-3.19,5.17-7.16,10.01-11.83,14.45ZM184.45,210.74c-6.13,6.19-12.02,11.81-17.53,17.78-8.49,9.18-15.36,19.59-21.89,30.21-2.2,3.57-3.66,7.46-3.12,12.12,22.8-7.85,45.48-15.66,68.68-23.65-8.71-12.14-17.23-24.03-26.14-36.46ZM148.44,260.82c6.12-9.96,12.96-20.44,21.42-29.59,3.72-4.03,7.61-7.89,11.72-11.97.78-.78,1.57-1.56,2.37-2.36,0,0,14.56,20.32,20.26,28.27l-57.79,19.9c.43-1.36,1.1-2.76,2.02-4.25ZM163.68,695.71c-.65-8.53-1.65-17.03-2.4-25.56-.83-9.46-1.54-18.93-2.34-28.39-.07-.78-.41-1.53-.63-2.3-.46.4-.51.73-.53,1.05-.35,10.15-.97,20.3-1,30.45-.05,15.06.2,30.11.55,45.16.19,7.91.94,15.81,1.28,23.71.18,4.06.5,4.63,4.85,5.65.13-.84.31-1.67.38-2.51.2-2.65.37-5.31.54-7.97.85-13.11.3-26.21-.7-39.29ZM136.6,706c-.29-4.38-.72-8.76-.81-13.14-.26-11.88-.3-23.77-.55-35.65-.13-5.76-.56-11.51-.85-17.27-.54.96-.72,1.94-.75,2.92-.06,2.66-.04,5.33-.07,7.99-.14,11.38-.27,22.75-.46,34.13-.01.71-.39,1.43-.65,2.12-.32.86-1.01,1.7-1,2.54.05,6.27.2,12.53.42,18.79.06,1.62.47,3.23.71,4.85.17-.02.35-.04.52-.06.75-1.29,1.27-2.83,2.32-3.8,1.13-1.05,1.26-2.11,1.17-3.42ZM136.6,706c-.29-4.38-.72-8.76-.81-13.14-.26-11.88-.3-23.77-.55-35.65-.13-5.76-.56-11.51-.85-17.27-.54.96-.72,1.94-.75,2.92-.06,2.66-.04,5.33-.07,7.99-.14,11.38-.27,22.75-.46,34.13-.01.71-.39,1.43-.65,2.12-.32.86-1.01,1.7-1,2.54.05,6.27.2,12.53.42,18.79.06,1.62.47,3.23.71,4.85.17-.02.35-.04.52-.06.75-1.29,1.27-2.83,2.32-3.8,1.13-1.05,1.26-2.11,1.17-3.42ZM163.68,695.71c-.65-8.53-1.65-17.03-2.4-25.56-.83-9.46-1.54-18.93-2.34-28.39-.07-.78-.41-1.53-.63-2.3-.46.4-.51.73-.53,1.05-.35,10.15-.97,20.3-1,30.45-.05,15.06.2,30.11.55,45.16.19,7.91.94,15.81,1.28,23.71.18,4.06.5,4.63,4.85,5.65.13-.84.31-1.67.38-2.51.2-2.65.37-5.31.54-7.97.85-13.11.3-26.21-.7-39.29ZM184.45,210.74c-6.13,6.19-12.02,11.81-17.53,17.78-8.49,9.18-15.36,19.59-21.89,30.21-2.2,3.57-3.66,7.46-3.12,12.12,22.8-7.85,45.48-15.66,68.68-23.65-8.71-12.14-17.23-24.03-26.14-36.46ZM148.44,260.82c6.12-9.96,12.96-20.44,21.42-29.59,3.72-4.03,7.61-7.89,11.72-11.97.78-.78,1.57-1.56,2.37-2.36,0,0,14.56,20.32,20.26,28.27l-57.79,19.9c.43-1.36,1.1-2.76,2.02-4.25ZM312.62,311.58c-10.42-3.61-21.14-5.93-32.14-5.11-8.04.6-16.09,2.09-23.97,3.88-17.71,4.03-34.38,11.09-50.91,18.46-20.12,8.97-39.99,18.54-61.3,24.55-.53.16-1.14,1.19-1.17,1.83-.11,3.31-.08,6.63-.02,9.94.01.66.21,1.53.65,1.92,2.34,2.07,4.51,4.25,7.67,5.33,10.48,3.58,21.22,5.63,32.25,6.17,12.79.62,25.29-.39,36.98-6.27.49-.24,1.49-.25,1.83.08,6.06,5.75,12.04,11.58,18.06,17.38.87.83,1.85,1.55,2.92,2.45v-31.89c4.86-1.71,10.04-3.38,15.11-5.34,14.53-5.59,28.17-12.73,39.57-23.59,5.98-5.69,11-12.11,14.85-19.39-.19-.2-.27-.36-.38-.4ZM295.39,328.47c-9.65,9.2-21.81,16.43-38.25,22.76-3.41,1.32-6.92,2.52-10.32,3.68-1.58.54-3.14,1.08-4.68,1.62l-2.67.94v25.67c-.54-.53-1.09-1.05-1.63-1.58-4.11-3.98-8.37-8.09-12.56-12.07-.93-.91-2.22-1.39-3.71-1.39-.68,0-1.68.11-2.71.61-8.14,4.09-17.33,6-28.93,6-1.93,0-3.91-.05-6.05-.16-10.62-.52-21.1-2.52-31.15-5.96-2.03-.69-3.63-2.13-5.48-3.79l-.15-.13c-.04-2.55-.07-5.25,0-7.95,17.89-5.22,34.92-12.9,51.42-20.34,2.9-1.31,5.81-2.62,8.72-3.92,15.75-7.02,32.61-14.21,50.17-18.21,9.15-2.08,16.58-3.29,23.38-3.79,1.37-.1,2.77-.16,4.18-.16,6.91,0,14.08,1.2,22.26,3.72-3.19,5.17-7.16,10.01-11.83,14.45ZM433.86,192.02c.09.05.18.1.28.15,1.48-2.69,3.06-5.16,4.25-7.81.03-.06.05-.11.07-.17-1.52,2.62-3.04,5.24-4.6,7.83ZM436.28,195.79c-.3.5-.62,1-.94,1.47l.44.22,1.87-3.38c.45-.83.91-1.63,1.37-2.42,1.04-1.81,2.12-3.68,3.02-5.68.01-.03.02-.05.03-.08-1.9,3.31-3.83,6.6-5.79,9.87ZM462.98,143.83c-.44,4.79-2.25,9.34-4.83,13.76-3.26,5.57-6.33,11.26-9.53,16.87.79-.57,1.42-1.28,1.82-1.98,4.41-7.84,8.29-14.83,11.84-21.36.57-1.05,2.28-4.21.7-7.29ZM462.98,143.83c-.44,4.79-2.25,9.34-4.83,13.76-3.26,5.57-6.33,11.26-9.53,16.87.79-.57,1.42-1.28,1.82-1.98,4.41-7.84,8.29-14.83,11.84-21.36.57-1.05,2.28-4.21.7-7.29ZM436.28,195.79c-.3.5-.62,1-.94,1.47l.44.22,1.87-3.38c.45-.83.91-1.63,1.37-2.42,1.04-1.81,2.12-3.68,3.02-5.68.01-.03.02-.05.03-.08-1.9,3.31-3.83,6.6-5.79,9.87ZM433.86,192.02c.09.05.18.1.28.15,1.48-2.69,3.06-5.16,4.25-7.81.03-.06.05-.11.07-.17-1.52,2.62-3.04,5.24-4.6,7.83ZM312.62,311.58c-10.42-3.61-21.14-5.93-32.14-5.11-8.04.6-16.09,2.09-23.97,3.88-17.71,4.03-34.38,11.09-50.91,18.46-20.12,8.97-39.99,18.54-61.3,24.55-.53.16-1.14,1.19-1.17,1.83-.11,3.31-.08,6.63-.02,9.94.01.66.21,1.53.65,1.92,2.34,2.07,4.51,4.25,7.67,5.33,10.48,3.58,21.22,5.63,32.25,6.17,12.79.62,25.29-.39,36.98-6.27.49-.24,1.49-.25,1.83.08,6.06,5.75,12.04,11.58,18.06,17.38.87.83,1.85,1.55,2.92,2.45v-31.89c4.86-1.71,10.04-3.38,15.11-5.34,14.53-5.59,28.17-12.73,39.57-23.59,5.98-5.69,11-12.11,14.85-19.39-.19-.2-.27-.36-.38-.4ZM295.39,328.47c-9.65,9.2-21.81,16.43-38.25,22.76-3.41,1.32-6.92,2.52-10.32,3.68-1.58.54-3.14,1.08-4.68,1.62l-2.67.94v25.67c-.54-.53-1.09-1.05-1.63-1.58-4.11-3.98-8.37-8.09-12.56-12.07-.93-.91-2.22-1.39-3.71-1.39-.68,0-1.68.11-2.71.61-8.14,4.09-17.33,6-28.93,6-1.93,0-3.91-.05-6.05-.16-10.62-.52-21.1-2.52-31.15-5.96-2.03-.69-3.63-2.13-5.48-3.79l-.15-.13c-.04-2.55-.07-5.25,0-7.95,17.89-5.22,34.92-12.9,51.42-20.34,2.9-1.31,5.81-2.62,8.72-3.92,15.75-7.02,32.61-14.21,50.17-18.21,9.15-2.08,16.58-3.29,23.38-3.79,1.37-.1,2.77-.16,4.18-.16,6.91,0,14.08,1.2,22.26,3.72-3.19,5.17-7.16,10.01-11.83,14.45ZM184.45,210.74c-6.13,6.19-12.02,11.81-17.53,17.78-8.49,9.18-15.36,19.59-21.89,30.21-2.2,3.57-3.66,7.46-3.12,12.12,22.8-7.85,45.48-15.66,68.68-23.65-8.71-12.14-17.23-24.03-26.14-36.46ZM148.44,260.82c6.12-9.96,12.96-20.44,21.42-29.59,3.72-4.03,7.61-7.89,11.72-11.97.78-.78,1.57-1.56,2.37-2.36,0,0,14.56,20.32,20.26,28.27l-57.79,19.9c.43-1.36,1.1-2.76,2.02-4.25ZM163.68,695.71c-.65-8.53-1.65-17.03-2.4-25.56-.83-9.46-1.54-18.93-2.34-28.39-.07-.78-.41-1.53-.63-2.3-.46.4-.51.73-.53,1.05-.35,10.15-.97,20.3-1,30.45-.05,15.06.2,30.11.55,45.16.19,7.91.94,15.81,1.28,23.71.18,4.06.5,4.63,4.85,5.65.13-.84.31-1.67.38-2.51.2-2.65.37-5.31.54-7.97.85-13.11.3-26.21-.7-39.29ZM136.6,706c-.29-4.38-.72-8.76-.81-13.14-.26-11.88-.3-23.77-.55-35.65-.13-5.76-.56-11.51-.85-17.27-.54.96-.72,1.94-.75,2.92-.06,2.66-.04,5.33-.07,7.99-.14,11.38-.27,22.75-.46,34.13-.01.71-.39,1.43-.65,2.12-.32.86-1.01,1.7-1,2.54.05,6.27.2,12.53.42,18.79.06,1.62.47,3.23.71,4.85.17-.02.35-.04.52-.06.75-1.29,1.27-2.83,2.32-3.8,1.13-1.05,1.26-2.11,1.17-3.42ZM136.6,706c-.29-4.38-.72-8.76-.81-13.14-.26-11.88-.3-23.77-.55-35.65-.13-5.76-.56-11.51-.85-17.27-.54.96-.72,1.94-.75,2.92-.06,2.66-.04,5.33-.07,7.99-.14,11.38-.27,22.75-.46,34.13-.01.71-.39,1.43-.65,2.12-.32.86-1.01,1.7-1,2.54.05,6.27.2,12.53.42,18.79.06,1.62.47,3.23.71,4.85.17-.02.35-.04.52-.06.75-1.29,1.27-2.83,2.32-3.8,1.13-1.05,1.26-2.11,1.17-3.42ZM163.68,695.71c-.65-8.53-1.65-17.03-2.4-25.56-.83-9.46-1.54-18.93-2.34-28.39-.07-.78-.41-1.53-.63-2.3-.46.4-.51.73-.53,1.05-.35,10.15-.97,20.3-1,30.45-.05,15.06.2,30.11.55,45.16.19,7.91.94,15.81,1.28,23.71.18,4.06.5,4.63,4.85,5.65.13-.84.31-1.67.38-2.51.2-2.65.37-5.31.54-7.97.85-13.11.3-26.21-.7-39.29ZM184.45,210.74c-6.13,6.19-12.02,11.81-17.53,17.78-8.49,9.18-15.36,19.59-21.89,30.21-2.2,3.57-3.66,7.46-3.12,12.12,22.8-7.85,45.48-15.66,68.68-23.65-8.71-12.14-17.23-24.03-26.14-36.46ZM148.44,260.82c6.12-9.96,12.96-20.44,21.42-29.59,3.72-4.03,7.61-7.89,11.72-11.97.78-.78,1.57-1.56,2.37-2.36,0,0,14.56,20.32,20.26,28.27l-57.79,19.9c.43-1.36,1.1-2.76,2.02-4.25ZM312.62,311.58c-10.42-3.61-21.14-5.93-32.14-5.11-8.04.6-16.09,2.09-23.97,3.88-17.71,4.03-34.38,11.09-50.91,18.46-20.12,8.97-39.99,18.54-61.3,24.55-.53.16-1.14,1.19-1.17,1.83-.11,3.31-.08,6.63-.02,9.94.01.66.21,1.53.65,1.92,2.34,2.07,4.51,4.25,7.67,5.33,10.48,3.58,21.22,5.63,32.25,6.17,12.79.62,25.29-.39,36.98-6.27.49-.24,1.49-.25,1.83.08,6.06,5.75,12.04,11.58,18.06,17.38.87.83,1.85,1.55,2.92,2.45v-31.89c4.86-1.71,10.04-3.38,15.11-5.34,14.53-5.59,28.17-12.73,39.57-23.59,5.98-5.69,11-12.11,14.85-19.39-.19-.2-.27-.36-.38-.4ZM295.39,328.47c-9.65,9.2-21.81,16.43-38.25,22.76-3.41,1.32-6.92,2.52-10.32,3.68-1.58.54-3.14,1.08-4.68,1.62l-2.67.94v25.67c-.54-.53-1.09-1.05-1.63-1.58-4.11-3.98-8.37-8.09-12.56-12.07-.93-.91-2.22-1.39-3.71-1.39-.68,0-1.68.11-2.71.61-8.14,4.09-17.33,6-28.93,6-1.93,0-3.91-.05-6.05-.16-10.62-.52-21.1-2.52-31.15-5.96-2.03-.69-3.63-2.13-5.48-3.79l-.15-.13c-.04-2.55-.07-5.25,0-7.95,17.89-5.22,34.92-12.9,51.42-20.34,2.9-1.31,5.81-2.62,8.72-3.92,15.75-7.02,32.61-14.21,50.17-18.21,9.15-2.08,16.58-3.29,23.38-3.79,1.37-.1,2.77-.16,4.18-.16,6.91,0,14.08,1.2,22.26,3.72-3.19,5.17-7.16,10.01-11.83,14.45ZM312.62,311.58c-10.42-3.61-21.14-5.93-32.14-5.11-8.04.6-16.09,2.09-23.97,3.88-17.71,4.03-34.38,11.09-50.91,18.46-20.12,8.97-39.99,18.54-61.3,24.55-.53.16-1.14,1.19-1.17,1.83-.11,3.31-.08,6.63-.02,9.94.01.66.21,1.53.65,1.92,2.34,2.07,4.51,4.25,7.67,5.33,10.48,3.58,21.22,5.63,32.25,6.17,12.79.62,25.29-.39,36.98-6.27.49-.24,1.49-.25,1.83.08,6.06,5.75,12.04,11.58,18.06,17.38.87.83,1.85,1.55,2.92,2.45v-31.89c4.86-1.71,10.04-3.38,15.11-5.34,14.53-5.59,28.17-12.73,39.57-23.59,5.98-5.69,11-12.11,14.85-19.39-.19-.2-.27-.36-.38-.4ZM295.39,328.47c-9.65,9.2-21.81,16.43-38.25,22.76-3.41,1.32-6.92,2.52-10.32,3.68-1.58.54-3.14,1.08-4.68,1.62l-2.67.94v25.67c-.54-.53-1.09-1.05-1.63-1.58-4.11-3.98-8.37-8.09-12.56-12.07-.93-.91-2.22-1.39-3.71-1.39-.68,0-1.68.11-2.71.61-8.14,4.09-17.33,6-28.93,6-1.93,0-3.91-.05-6.05-.16-10.62-.52-21.1-2.52-31.15-5.96-2.03-.69-3.63-2.13-5.48-3.79l-.15-.13c-.04-2.55-.07-5.25,0-7.95,17.89-5.22,34.92-12.9,51.42-20.34,2.9-1.31,5.81-2.62,8.72-3.92,15.75-7.02,32.61-14.21,50.17-18.21,9.15-2.08,16.58-3.29,23.38-3.79,1.37-.1,2.77-.16,4.18-.16,6.91,0,14.08,1.2,22.26,3.72-3.19,5.17-7.16,10.01-11.83,14.45ZM184.45,210.74c-6.13,6.19-12.02,11.81-17.53,17.78-8.49,9.18-15.36,19.59-21.89,30.21-2.2,3.57-3.66,7.46-3.12,12.12,22.8-7.85,45.48-15.66,68.68-23.65-8.71-12.14-17.23-24.03-26.14-36.46ZM148.44,260.82c6.12-9.96,12.96-20.44,21.42-29.59,3.72-4.03,7.61-7.89,11.72-11.97.78-.78,1.57-1.56,2.37-2.36,0,0,14.56,20.32,20.26,28.27l-57.79,19.9c.43-1.36,1.1-2.76,2.02-4.25ZM163.68,695.71c-.65-8.53-1.65-17.03-2.4-25.56-.83-9.46-1.54-18.93-2.34-28.39-.07-.78-.41-1.53-.63-2.3-.46.4-.51.73-.53,1.05-.35,10.15-.97,20.3-1,30.45-.05,15.06.2,30.11.55,45.16.19,7.91.94,15.81,1.28,23.71.18,4.06.5,4.63,4.85,5.65.13-.84.31-1.67.38-2.51.2-2.65.37-5.31.54-7.97.85-13.11.3-26.21-.7-39.29ZM136.6,706c-.29-4.38-.72-8.76-.81-13.14-.26-11.88-.3-23.77-.55-35.65-.13-5.76-.56-11.51-.85-17.27-.54.96-.72,1.94-.75,2.92-.06,2.66-.04,5.33-.07,7.99-.14,11.38-.27,22.75-.46,34.13-.01.71-.39,1.43-.65,2.12-.32.86-1.01,1.7-1,2.54.05,6.27.2,12.53.42,18.79.06,1.62.47,3.23.71,4.85.17-.02.35-.04.52-.06.75-1.29,1.27-2.83,2.32-3.8,1.13-1.05,1.26-2.11,1.17-3.42ZM136.6,706c-.29-4.38-.72-8.76-.81-13.14-.26-11.88-.3-23.77-.55-35.65-.13-5.76-.56-11.51-.85-17.27-.54.96-.72,1.94-.75,2.92-.06,2.66-.04,5.33-.07,7.99-.14,11.38-.27,22.75-.46,34.13-.01.71-.39,1.43-.65,2.12-.32.86-1.01,1.7-1,2.54.05,6.27.2,12.53.42,18.79.06,1.62.47,3.23.71,4.85.17-.02.35-.04.52-.06.75-1.29,1.27-2.83,2.32-3.8,1.13-1.05,1.26-2.11,1.17-3.42ZM163.68,695.71c-.65-8.53-1.65-17.03-2.4-25.56-.83-9.46-1.54-18.93-2.34-28.39-.07-.78-.41-1.53-.63-2.3-.46.4-.51.73-.53,1.05-.35,10.15-.97,20.3-1,30.45-.05,15.06.2,30.11.55,45.16.19,7.91.94,15.81,1.28,23.71.18,4.06.5,4.63,4.85,5.65.13-.84.31-1.67.38-2.51.2-2.65.37-5.31.54-7.97.85-13.11.3-26.21-.7-39.29ZM184.45,210.74c-6.13,6.19-12.02,11.81-17.53,17.78-8.49,9.18-15.36,19.59-21.89,30.21-2.2,3.57-3.66,7.46-3.12,12.12,22.8-7.85,45.48-15.66,68.68-23.65-8.71-12.14-17.23-24.03-26.14-36.46ZM148.44,260.82c6.12-9.96,12.96-20.44,21.42-29.59,3.72-4.03,7.61-7.89,11.72-11.97.78-.78,1.57-1.56,2.37-2.36,0,0,14.56,20.32,20.26,28.27l-57.79,19.9c.43-1.36,1.1-2.76,2.02-4.25ZM312.62,311.58c-10.42-3.61-21.14-5.93-32.14-5.11-8.04.6-16.09,2.09-23.97,3.88-17.71,4.03-34.38,11.09-50.91,18.46-20.12,8.97-39.99,18.54-61.3,24.55-.53.16-1.14,1.19-1.17,1.83-.11,3.31-.08,6.63-.02,9.94.01.66.21,1.53.65,1.92,2.34,2.07,4.51,4.25,7.67,5.33,10.48,3.58,21.22,5.63,32.25,6.17,12.79.62,25.29-.39,36.98-6.27.49-.24,1.49-.25,1.83.08,6.06,5.75,12.04,11.58,18.06,17.38.87.83,1.85,1.55,2.92,2.45v-31.89c4.86-1.71,10.04-3.38,15.11-5.34,14.53-5.59,28.17-12.73,39.57-23.59,5.98-5.69,11-12.11,14.85-19.39-.19-.2-.27-.36-.38-.4ZM295.39,328.47c-9.65,9.2-21.81,16.43-38.25,22.76-3.41,1.32-6.92,2.52-10.32,3.68-1.58.54-3.14,1.08-4.68,1.62l-2.67.94v25.67c-.54-.53-1.09-1.05-1.63-1.58-4.11-3.98-8.37-8.09-12.56-12.07-.93-.91-2.22-1.39-3.71-1.39-.68,0-1.68.11-2.71.61-8.14,4.09-17.33,6-28.93,6-1.93,0-3.91-.05-6.05-.16-10.62-.52-21.1-2.52-31.15-5.96-2.03-.69-3.63-2.13-5.48-3.79l-.15-.13c-.04-2.55-.07-5.25,0-7.95,17.89-5.22,34.92-12.9,51.42-20.34,2.9-1.31,5.81-2.62,8.72-3.92,15.75-7.02,32.61-14.21,50.17-18.21,9.15-2.08,16.58-3.29,23.38-3.79,1.37-.1,2.77-.16,4.18-.16,6.91,0,14.08,1.2,22.26,3.72-3.19,5.17-7.16,10.01-11.83,14.45ZM312.62,311.58c-10.42-3.61-21.14-5.93-32.14-5.11-8.04.6-16.09,2.09-23.97,3.88-17.71,4.03-34.38,11.09-50.91,18.46-20.12,8.97-39.99,18.54-61.3,24.55-.53.16-1.14,1.19-1.17,1.83-.11,3.31-.08,6.63-.02,9.94.01.66.21,1.53.65,1.92,2.34,2.07,4.51,4.25,7.67,5.33,10.48,3.58,21.22,5.63,32.25,6.17,12.79.62,25.29-.39,36.98-6.27.49-.24,1.49-.25,1.83.08,6.06,5.75,12.04,11.58,18.06,17.38.87.83,1.85,1.55,2.92,2.45v-31.89c4.86-1.71,10.04-3.38,15.11-5.34,14.53-5.59,28.17-12.73,39.57-23.59,5.98-5.69,11-12.11,14.85-19.39-.19-.2-.27-.36-.38-.4ZM295.39,328.47c-9.65,9.2-21.81,16.43-38.25,22.76-3.41,1.32-6.92,2.52-10.32,3.68-1.58.54-3.14,1.08-4.68,1.62l-2.67.94v25.67c-.54-.53-1.09-1.05-1.63-1.58-4.11-3.98-8.37-8.09-12.56-12.07-.93-.91-2.22-1.39-3.71-1.39-.68,0-1.68.11-2.71.61-8.14,4.09-17.33,6-28.93,6-1.93,0-3.91-.05-6.05-.16-10.62-.52-21.1-2.52-31.15-5.96-2.03-.69-3.63-2.13-5.48-3.79l-.15-.13c-.04-2.55-.07-5.25,0-7.95,17.89-5.22,34.92-12.9,51.42-20.34,2.9-1.31,5.81-2.62,8.72-3.92,15.75-7.02,32.61-14.21,50.17-18.21,9.15-2.08,16.58-3.29,23.38-3.79,1.37-.1,2.77-.16,4.18-.16,6.91,0,14.08,1.2,22.26,3.72-3.19,5.17-7.16,10.01-11.83,14.45ZM184.45,210.74c-6.13,6.19-12.02,11.81-17.53,17.78-8.49,9.18-15.36,19.59-21.89,30.21-2.2,3.57-3.66,7.46-3.12,12.12,22.8-7.85,45.48-15.66,68.68-23.65-8.71-12.14-17.23-24.03-26.14-36.46ZM148.44,260.82c6.12-9.96,12.96-20.44,21.42-29.59,3.72-4.03,7.61-7.89,11.72-11.97.78-.78,1.57-1.56,2.37-2.36,0,0,14.56,20.32,20.26,28.27l-57.79,19.9c.43-1.36,1.1-2.76,2.02-4.25ZM163.68,695.71c-.65-8.53-1.65-17.03-2.4-25.56-.83-9.46-1.54-18.93-2.34-28.39-.07-.78-.41-1.53-.63-2.3-.46.4-.51.73-.53,1.05-.35,10.15-.97,20.3-1,30.45-.05,15.06.2,30.11.55,45.16.19,7.91.94,15.81,1.28,23.71.18,4.06.5,4.63,4.85,5.65.13-.84.31-1.67.38-2.51.2-2.65.37-5.31.54-7.97.85-13.11.3-26.21-.7-39.29ZM136.6,706c-.29-4.38-.72-8.76-.81-13.14-.26-11.88-.3-23.77-.55-35.65-.13-5.76-.56-11.51-.85-17.27-.54.96-.72,1.94-.75,2.92-.06,2.66-.04,5.33-.07,7.99-.14,11.38-.27,22.75-.46,34.13-.01.71-.39,1.43-.65,2.12-.32.86-1.01,1.7-1,2.54.05,6.27.2,12.53.42,18.79.06,1.62.47,3.23.71,4.85.17-.02.35-.04.52-.06.75-1.29,1.27-2.83,2.32-3.8,1.13-1.05,1.26-2.11,1.17-3.42ZM136.6,706c-.29-4.38-.72-8.76-.81-13.14-.26-11.88-.3-23.77-.55-35.65-.13-5.76-.56-11.51-.85-17.27-.54.96-.72,1.94-.75,2.92-.06,2.66-.04,5.33-.07,7.99-.14,11.38-.27,22.75-.46,34.13-.01.71-.39,1.43-.65,2.12-.32.86-1.01,1.7-1,2.54.05,6.27.2,12.53.42,18.79.06,1.62.47,3.23.71,4.85.17-.02.35-.04.52-.06.75-1.29,1.27-2.83,2.32-3.8,1.13-1.05,1.26-2.11,1.17-3.42ZM163.68,695.71c-.65-8.53-1.65-17.03-2.4-25.56-.83-9.46-1.54-18.93-2.34-28.39-.07-.78-.41-1.53-.63-2.3-.46.4-.51.73-.53,1.05-.35,10.15-.97,20.3-1,30.45-.05,15.06.2,30.11.55,45.16.19,7.91.94,15.81,1.28,23.71.18,4.06.5,4.63,4.85,5.65.13-.84.31-1.67.38-2.51.2-2.65.37-5.31.54-7.97.85-13.11.3-26.21-.7-39.29ZM184.45,210.74c-6.13,6.19-12.02,11.81-17.53,17.78-8.49,9.18-15.36,19.59-21.89,30.21-2.2,3.57-3.66,7.46-3.12,12.12,22.8-7.85,45.48-15.66,68.68-23.65-8.71-12.14-17.23-24.03-26.14-36.46ZM148.44,260.82c6.12-9.96,12.96-20.44,21.42-29.59,3.72-4.03,7.61-7.89,11.72-11.97.78-.78,1.57-1.56,2.37-2.36,0,0,14.56,20.32,20.26,28.27l-57.79,19.9c.43-1.36,1.1-2.76,2.02-4.25ZM312.62,311.58c-10.42-3.61-21.14-5.93-32.14-5.11-8.04.6-16.09,2.09-23.97,3.88-17.71,4.03-34.38,11.09-50.91,18.46-20.12,8.97-39.99,18.54-61.3,24.55-.53.16-1.14,1.19-1.17,1.83-.11,3.31-.08,6.63-.02,9.94.01.66.21,1.53.65,1.92,2.34,2.07,4.51,4.25,7.67,5.33,10.48,3.58,21.22,5.63,32.25,6.17,12.79.62,25.29-.39,36.98-6.27.49-.24,1.49-.25,1.83.08,6.06,5.75,12.04,11.58,18.06,17.38.87.83,1.85,1.55,2.92,2.45v-31.89c4.86-1.71,10.04-3.38,15.11-5.34,14.53-5.59,28.17-12.73,39.57-23.59,5.98-5.69,11-12.11,14.85-19.39-.19-.2-.27-.36-.38-.4ZM295.39,328.47c-9.65,9.2-21.81,16.43-38.25,22.76-3.41,1.32-6.92,2.52-10.32,3.68-1.58.54-3.14,1.08-4.68,1.62l-2.67.94v25.67c-.54-.53-1.09-1.05-1.63-1.58-4.11-3.98-8.37-8.09-12.56-12.07-.93-.91-2.22-1.39-3.71-1.39-.68,0-1.68.11-2.71.61-8.14,4.09-17.33,6-28.93,6-1.93,0-3.91-.05-6.05-.16-10.62-.52-21.1-2.52-31.15-5.96-2.03-.69-3.63-2.13-5.48-3.79l-.15-.13c-.04-2.55-.07-5.25,0-7.95,17.89-5.22,34.92-12.9,51.42-20.34,2.9-1.31,5.81-2.62,8.72-3.92,15.75-7.02,32.61-14.21,50.17-18.21,9.15-2.08,16.58-3.29,23.38-3.79,1.37-.1,2.77-.16,4.18-.16,6.91,0,14.08,1.2,22.26,3.72-3.19,5.17-7.16,10.01-11.83,14.45ZM312.62,311.58c-10.42-3.61-21.14-5.93-32.14-5.11-8.04.6-16.09,2.09-23.97,3.88-17.71,4.03-34.38,11.09-50.91,18.46-20.12,8.97-39.99,18.54-61.3,24.55-.53.16-1.14,1.19-1.17,1.83-.11,3.31-.08,6.63-.02,9.94.01.66.21,1.53.65,1.92,2.34,2.07,4.51,4.25,7.67,5.33,10.48,3.58,21.22,5.63,32.25,6.17,12.79.62,25.29-.39,36.98-6.27.49-.24,1.49-.25,1.83.08,6.06,5.75,12.04,11.58,18.06,17.38.87.83,1.85,1.55,2.92,2.45v-31.89c4.86-1.71,10.04-3.38,15.11-5.34,14.53-5.59,28.17-12.73,39.57-23.59,5.98-5.69,11-12.11,14.85-19.39-.19-.2-.27-.36-.38-.4ZM295.39,328.47c-9.65,9.2-21.81,16.43-38.25,22.76-3.41,1.32-6.92,2.52-10.32,3.68-1.58.54-3.14,1.08-4.68,1.62l-2.67.94v25.67c-.54-.53-1.09-1.05-1.63-1.58-4.11-3.98-8.37-8.09-12.56-12.07-.93-.91-2.22-1.39-3.71-1.39-.68,0-1.68.11-2.71.61-8.14,4.09-17.33,6-28.93,6-1.93,0-3.91-.05-6.05-.16-10.62-.52-21.1-2.52-31.15-5.96-2.03-.69-3.63-2.13-5.48-3.79l-.15-.13c-.04-2.55-.07-5.25,0-7.95,17.89-5.22,34.92-12.9,51.42-20.34,2.9-1.31,5.81-2.62,8.72-3.92,15.75-7.02,32.61-14.21,50.17-18.21,9.15-2.08,16.58-3.29,23.38-3.79,1.37-.1,2.77-.16,4.18-.16,6.91,0,14.08,1.2,22.26,3.72-3.19,5.17-7.16,10.01-11.83,14.45ZM184.45,210.74c-6.13,6.19-12.02,11.81-17.53,17.78-8.49,9.18-15.36,19.59-21.89,30.21-2.2,3.57-3.66,7.46-3.12,12.12,22.8-7.85,45.48-15.66,68.68-23.65-8.71-12.14-17.23-24.03-26.14-36.46ZM148.44,260.82c6.12-9.96,12.96-20.44,21.42-29.59,3.72-4.03,7.61-7.89,11.72-11.97.78-.78,1.57-1.56,2.37-2.36,0,0,14.56,20.32,20.26,28.27l-57.79,19.9c.43-1.36,1.1-2.76,2.02-4.25ZM163.68,695.71c-.65-8.53-1.65-17.03-2.4-25.56-.83-9.46-1.54-18.93-2.34-28.39-.07-.78-.41-1.53-.63-2.3-.46.4-.51.73-.53,1.05-.35,10.15-.97,20.3-1,30.45-.05,15.06.2,30.11.55,45.16.19,7.91.94,15.81,1.28,23.71.18,4.06.5,4.63,4.85,5.65.13-.84.31-1.67.38-2.51.2-2.65.37-5.31.54-7.97.85-13.11.3-26.21-.7-39.29ZM136.6,706c-.29-4.38-.72-8.76-.81-13.14-.26-11.88-.3-23.77-.55-35.65-.13-5.76-.56-11.51-.85-17.27-.54.96-.72,1.94-.75,2.92-.06,2.66-.04,5.33-.07,7.99-.14,11.38-.27,22.75-.46,34.13-.01.71-.39,1.43-.65,2.12-.32.86-1.01,1.7-1,2.54.05,6.27.2,12.53.42,18.79.06,1.62.47,3.23.71,4.85.17-.02.35-.04.52-.06.75-1.29,1.27-2.83,2.32-3.8,1.13-1.05,1.26-2.11,1.17-3.42ZM136.6,706c-.29-4.38-.72-8.76-.81-13.14-.26-11.88-.3-23.77-.55-35.65-.13-5.76-.56-11.51-.85-17.27-.54.96-.72,1.94-.75,2.92-.06,2.66-.04,5.33-.07,7.99-.14,11.38-.27,22.75-.46,34.13-.01.71-.39,1.43-.65,2.12-.32.86-1.01,1.7-1,2.54.05,6.27.2,12.53.42,18.79.06,1.62.47,3.23.71,4.85.17-.02.35-.04.52-.06.75-1.29,1.27-2.83,2.32-3.8,1.13-1.05,1.26-2.11,1.17-3.42ZM163.68,695.71c-.65-8.53-1.65-17.03-2.4-25.56-.83-9.46-1.54-18.93-2.34-28.39-.07-.78-.41-1.53-.63-2.3-.46.4-.51.73-.53,1.05-.35,10.15-.97,20.3-1,30.45-.05,15.06.2,30.11.55,45.16.19,7.91.94,15.81,1.28,23.71.18,4.06.5,4.63,4.85,5.65.13-.84.31-1.67.38-2.51.2-2.65.37-5.31.54-7.97.85-13.11.3-26.21-.7-39.29ZM184.45,210.74c-6.13,6.19-12.02,11.81-17.53,17.78-8.49,9.18-15.36,19.59-21.89,30.21-2.2,3.57-3.66,7.46-3.12,12.12,22.8-7.85,45.48-15.66,68.68-23.65-8.71-12.14-17.23-24.03-26.14-36.46ZM148.44,260.82c6.12-9.96,12.96-20.44,21.42-29.59,3.72-4.03,7.61-7.89,11.72-11.97.78-.78,1.57-1.56,2.37-2.36,0,0,14.56,20.32,20.26,28.27l-57.79,19.9c.43-1.36,1.1-2.76,2.02-4.25ZM312.62,311.58c-10.42-3.61-21.14-5.93-32.14-5.11-8.04.6-16.09,2.09-23.97,3.88-17.71,4.03-34.38,11.09-50.91,18.46-20.12,8.97-39.99,18.54-61.3,24.55-.53.16-1.14,1.19-1.17,1.83-.11,3.31-.08,6.63-.02,9.94.01.66.21,1.53.65,1.92,2.34,2.07,4.51,4.25,7.67,5.33,10.48,3.58,21.22,5.63,32.25,6.17,12.79.62,25.29-.39,36.98-6.27.49-.24,1.49-.25,1.83.08,6.06,5.75,12.04,11.58,18.06,17.38.87.83,1.85,1.55,2.92,2.45v-31.89c4.86-1.71,10.04-3.38,15.11-5.34,14.53-5.59,28.17-12.73,39.57-23.59,5.98-5.69,11-12.11,14.85-19.39-.19-.2-.27-.36-.38-.4ZM295.39,328.47c-9.65,9.2-21.81,16.43-38.25,22.76-3.41,1.32-6.92,2.52-10.32,3.68-1.58.54-3.14,1.08-4.68,1.62l-2.67.94v25.67c-.54-.53-1.09-1.05-1.63-1.58-4.11-3.98-8.37-8.09-12.56-12.07-.93-.91-2.22-1.39-3.71-1.39-.68,0-1.68.11-2.71.61-8.14,4.09-17.33,6-28.93,6-1.93,0-3.91-.05-6.05-.16-10.62-.52-21.1-2.52-31.15-5.96-2.03-.69-3.63-2.13-5.48-3.79l-.15-.13c-.04-2.55-.07-5.25,0-7.95,17.89-5.22,34.92-12.9,51.42-20.34,2.9-1.31,5.81-2.62,8.72-3.92,15.75-7.02,32.61-14.21,50.17-18.21,9.15-2.08,16.58-3.29,23.38-3.79,1.37-.1,2.77-.16,4.18-.16,6.91,0,14.08,1.2,22.26,3.72-3.19,5.17-7.16,10.01-11.83,14.45ZM312.62,311.58c-10.42-3.61-21.14-5.93-32.14-5.11-8.04.6-16.09,2.09-23.97,3.88-17.71,4.03-34.38,11.09-50.91,18.46-20.12,8.97-39.99,18.54-61.3,24.55-.53.16-1.14,1.19-1.17,1.83-.11,3.31-.08,6.63-.02,9.94.01.66.21,1.53.65,1.92,2.34,2.07,4.51,4.25,7.67,5.33,10.48,3.58,21.22,5.63,32.25,6.17,12.79.62,25.29-.39,36.98-6.27.49-.24,1.49-.25,1.83.08,6.06,5.75,12.04,11.58,18.06,17.38.87.83,1.85,1.55,2.92,2.45v-31.89c4.86-1.71,10.04-3.38,15.11-5.34,14.53-5.59,28.17-12.73,39.57-23.59,5.98-5.69,11-12.11,14.85-19.39-.19-.2-.27-.36-.38-.4ZM295.39,328.47c-9.65,9.2-21.81,16.43-38.25,22.76-3.41,1.32-6.92,2.52-10.32,3.68-1.58.54-3.14,1.08-4.68,1.62l-2.67.94v25.67c-.54-.53-1.09-1.05-1.63-1.58-4.11-3.98-8.37-8.09-12.56-12.07-.93-.91-2.22-1.39-3.71-1.39-.68,0-1.68.11-2.71.61-8.14,4.09-17.33,6-28.93,6-1.93,0-3.91-.05-6.05-.16-10.62-.52-21.1-2.52-31.15-5.96-2.03-.69-3.63-2.13-5.48-3.79l-.15-.13c-.04-2.55-.07-5.25,0-7.95,17.89-5.22,34.92-12.9,51.42-20.34,2.9-1.31,5.81-2.62,8.72-3.92,15.75-7.02,32.61-14.21,50.17-18.21,9.15-2.08,16.58-3.29,23.38-3.79,1.37-.1,2.77-.16,4.18-.16,6.91,0,14.08,1.2,22.26,3.72-3.19,5.17-7.16,10.01-11.83,14.45ZM184.45,210.74c-6.13,6.19-12.02,11.81-17.53,17.78-8.49,9.18-15.36,19.59-21.89,30.21-2.2,3.57-3.66,7.46-3.12,12.12,22.8-7.85,45.48-15.66,68.68-23.65-8.71-12.14-17.23-24.03-26.14-36.46ZM148.44,260.82c6.12-9.96,12.96-20.44,21.42-29.59,3.72-4.03,7.61-7.89,11.72-11.97.78-.78,1.57-1.56,2.37-2.36,0,0,14.56,20.32,20.26,28.27l-57.79,19.9c.43-1.36,1.1-2.76,2.02-4.25ZM163.68,695.71c-.65-8.53-1.65-17.03-2.4-25.56-.83-9.46-1.54-18.93-2.34-28.39-.07-.78-.41-1.53-.63-2.3-.46.4-.51.73-.53,1.05-.35,10.15-.97,20.3-1,30.45-.05,15.06.2,30.11.55,45.16.19,7.91.94,15.81,1.28,23.71.18,4.06.5,4.63,4.85,5.65.13-.84.31-1.67.38-2.51.2-2.65.37-5.31.54-7.97.85-13.11.3-26.21-.7-39.29ZM136.6,706c-.29-4.38-.72-8.76-.81-13.14-.26-11.88-.3-23.77-.55-35.65-.13-5.76-.56-11.51-.85-17.27-.54.96-.72,1.94-.75,2.92-.06,2.66-.04,5.33-.07,7.99-.14,11.38-.27,22.75-.46,34.13-.01.71-.39,1.43-.65,2.12-.32.86-1.01,1.7-1,2.54.05,6.27.2,12.53.42,18.79.06,1.62.47,3.23.71,4.85.17-.02.35-.04.52-.06.75-1.29,1.27-2.83,2.32-3.8,1.13-1.05,1.26-2.11,1.17-3.42Z"/>
      <path class="cls-1" d="M455.68,212.63c-.52,2.09-1.41,4.23-2.66,5.98-1.4,1.96-3.24,3.69-5.13,5.22-11.82,9.56-19.62,22.02-24.94,35.95-4.08,10.7-7.19,21.77-10.47,32.75-.49,1.63.04,3.93.89,5.48,1.29,2.36,3.27,4.36,4.97,6.49,4.26,5.34,8.53,10.68,12.81,16.01,1.02,1.27,1.44,2.52.69,4.13-.51,1.09-.69,2.33-1.02,3.51-1.62,5.77-3.63,7.46-9.58,8.28-10.23,1.41-20.47,2.86-30.69,4.38-.71.1-1.5.77-1.96,1.39-6.25,8.63-12.17,17.51-18.78,25.86-3.23,4.08-3.57,7.59-2.11,12.43,2.71,9.05,4.56,18.36,6.85,27.54.8,3.24.17,6.02-1.79,8.72-5.03,6.93-8.15,7.75-15.29,3.28-6.04-3.79-11.84-7.92-17.85-11.75-5.11-3.26-5.14-3.13-9.79.57-7.26,5.79-14.64,11.42-23.07,15.48-3.22,1.55-5.24,4.18-6.67,7.35-2.8,6.21-3.91,12.88-5.25,19.49-1.62,8.08-3.44,16.12-5.04,24.21-.87,4.43-3.42,7.05-7.72,8.17-1.16.3-2.26.81-3.57,1.3-.14-2.86-.37-5.5-.4-8.15-.19-19.81-.46-39.63-.45-59.45,0-6.9.68-13.8,1.15-20.7.05-.65.72-1.57,1.33-1.82,17.23-6.91,31.95-17.6,45.49-30.07,10.6-9.76,21.09-19.66,29.44-31.54,5.43-7.72,10.35-15.72,13-24.91,1.39-4.82,4.2-8.78,7.88-12.18,16.27-15.04,29.64-32.33,40.16-51.84,2.95-5.46,5.32-11.11,6.4-17.28,1.1-6.37,4.57-11.58,8.58-16.44,2.98-3.61,6.06-7.15,9.14-10.68.38-.43,1.01-.84,1.57-.89,3.5-.37,7.02-.61,10.53-.93,1.29-.11,1.89.31,2.19,1.69.92,4.29,2.25,8.57,1.16,12.97Z"/>
      <path class="cls-1" d="M302.02,70.28c-1.24.34-2.53.47-3.46.63-5.2-.33-9.6-1.83-13.41-4.89-1.97-1.58-1.9-3.46.5-4.33,1.93-.7,4.21-.89,6.27-.67,4.28.46,8.2,2.05,11.21,5.29,1.99,2.14,1.66,3.22-1.11,3.97Z"/>
      <path class="cls-1" d="M344.54,225.41c-.64,3.65-2.3,6.79-5.4,9.01-2.83,2.03-5.86,2.22-8.93.65-.55-.28-1.18-1.21-1.12-1.75.5-3.99,1.61-7.87,4.9-10.44,1.71-1.35,3.99-1.97,6.01-2.91.09.18.18.37.26.55,4.33,0,5.01.68,4.28,4.89Z"/>
      <path class="cls-1" d="M307.55,246v57.77c-2.9-.73-5.47-1.29-7.96-2.11-.46-.15-.81-1.37-.82-2.1-.05-10.31-.03-20.62-.03-30.92v-24.37c3.14.62,6.06,1.19,8.81,1.73Z"/>
      <path class="cls-1" d="M352.76,251.73c-.43,16.96-.85,33.9-1.28,51.01-4.57.75-9.06,1.49-13.93,2.29.52-18.17,1.03-36.06,1.55-54.33,4.48.34,8.95.67,13.66,1.03Z"/>
      <path class="cls-1" d="M462.98,143.83c-.44,4.79-2.25,9.34-4.83,13.76-3.26,5.57-6.33,11.26-9.53,16.87.79-.57,1.42-1.28,1.82-1.98,4.41-7.84,8.29-14.83,11.84-21.36.57-1.05,2.28-4.21.7-7.29ZM436.28,195.79c-.3.5-.62,1-.94,1.47l.44.22,1.87-3.38c.45-.83.91-1.63,1.37-2.42,1.04-1.81,2.12-3.68,3.02-5.68.01-.03.02-.05.03-.08-1.9,3.31-3.83,6.6-5.79,9.87Z"/>
      <path class="cls-1" d="M471.18,130.42c-2.24-4.38-4.66-8.67-6.51-11.9-.93-1.62-2.19-3-3.56-3.87-3.75-2.4-7.58-4.79-11.28-7.1-3.44-2.14-6.88-4.29-10.3-6.46-24.81-15.81-50.47-32.2-76.27-48.71-4.93-3.15-9.6-4.68-14.3-4.68-.38,0-.76.01-1.15.03l-1.56-3.04c-2.36-4.57-4.79-9.29-7.28-13.89-1-1.87-2.93-3.44-4.96-4.02l-1.77-.49c-5.02-1.37-10.21-2.79-15.47-3.81-6.55-1.26-13.21-2.44-19.65-3.58-5.54-.98-11.28-1.99-16.89-3.05l-.54-.1c-1.87-.36-3.21-.62-4.49-.62-4.06,0-5.81,2.5-8.21,5.94-.49.69-.96,1.38-1.43,2.1-.03-.02-.05-.05-.07-.07-1.93-2.14-4.19-4.61-6.54-6.93-.58-.57-1.71-1.68-3.39-2.26l.22-.46-4.48-1.34c-.76-.23-1.48-.47-2.2-.71-1.71-.56-3.47-1.15-5.38-1.47-13.84-2.32-27.95-3-41.59-3.65-2.28-.11-4.57-.22-6.85-.34-12.71-.66-24.14-1.4-35.42-3.8l-.17-.04c-1.48-1.86-3.42-2.1-4.3-2.1-1.18,0-2.17.37-2.82.61l-3.61,1.3c-8.28,2.98-16.84,6.07-25.23,9.18-1.79.65-3.61,1.59-5.72,2.94-1.7,1.07-2.91,3.27-2.94,5.38-.03,8.38,0,16.9.02,25.13l.07,16.86c.03,7.57.06,15.14.07,22.7-.04.16-.16.48-.23.67-.22.57-.51,1.18-.82,1.83-.73,1.56-1.56,3.32-1.84,5.38-.36,2.6-.44,5.18-.51,7.68-.14,4.59-.26,8.92-2.12,12.74l-.19.4c-.1.21-.25.52-.35.7-6.64,5.1-12.92,11.1-18.68,17.85-9.88,11.56-18.85,25.27-27.42,41.89-2.32,4.48-5.39,6.78-9.96,7.46-6.04.91-12.15,1.61-18.17,2.09-12.75,1.02-16.28,2.99-23.56,13.15-2.81,3.91-4.8,8.42-6.09,13.77-1.51,6.3,0,11.4,4.46,15.16.52.43,1.07,1.16,1.64,1.93.19.25.38.5.56.73,15.1,19.68,22.61,41.75,22.98,67.5.11,7.35-2.28,11.68-7.97,14.49-5.27,2.6-10.54,5.05-15.65,7.27-9.86,4.28-12.41,8.78-10.92,19.26.05.35.12.69.19,1.03l.06.25c2.08,10.54,6.49,20.77,13.12,30.42,4.57,6.66,9.47,13.64,14.55,20.74,1.19,1.69,3.47,2.89,5.56,2.92.62,0,1.24.01,1.86.01,4.03,0,8.19-.08,12.72-.24.94-.04,1.85-.1,2.77-.18-.91,2.88-1.93,5.74-2.83,8.18-.95,2.55-.8,5.04.46,7.63l2.39,4.92c5.3,10.9,10.78,22.17,15.92,33.36,2.81,6.13,6.43,10.19,11.36,12.8,2.7,1.42,4.45,2.63,5.38,4.57,1.1,2.28,3.13,3.65,5.43,3.65,1.29,0,2.56-.42,3.79-1.25,1.14-.77,2.33-1.48,3.59-2.24,1.09-.66,2.21-1.34,3.32-2.06,5.98-3.92,11.41-7.51,16.61-10.99.43.51.86,1.01,1.29,1.51,1.6,1.87,3.12,3.63,4.51,5.49,4.13,5.53,7.65,10.48,10.78,15.13.89,1.32,1.46,2.72,1.52,3.75.16,2.29.11,4.62.06,7.08-.04,1.95-.08,3.96-.01,5.99-.02.01-1.22.69-1.22.69-3.69,2.13-7.52,4.32-11.11,6.87-4.94,3.5-8.07,8.47-9.06,14.36-.99,5.95.22,11.93,3.58,17.79.9,1.56,1.84,3.11,2.77,4.63-7.32,6.93-12.2,15.98-15.63,28.83-2.54,9.53-4.05,19.75-4.74,32.17-.43,7.73-.72,15.58-1,23.17-.15,4.18-.3,8.35-.48,12.52-1.74,41.99-2.25,78.98-1.55,113.06.04,1.92.71,4.01,1.8,5.56,3.72,5.4,9.23,8.14,16.39,8.14.77,0,1.58-.03,2.38-.09.21-.02.41-.03.6-.03.92,0,1.38.15,2.14.99.73.8,3.33,3.42,6.5,3.42.28,0,.55-.03.82-.07,1.8-.27,3.61-.45,5.54-.64,4.84-.47,9.8-.96,14.61-2.99.03.06.07.13.1.2,2.06,3.97,5.12,6.08,9.36,6.44,1.78.16,3.66.69,5.66,1.26,1.02.29,2.08.59,3.17.85.08.02.16.05.25.07.53.15,1.25.36,2.09.36,1.32,0,2.25-.51,2.82-.96.51-.4.98-.55,1.74-.55.83,0,1.85.19,2.93.4l.4.07c.6.11,1.21.17,1.79.17.65,0,1.27-.07,1.9-.21,2.24-.54,4.65-1.14,7.08-1.91.57-.18,1.18-.33,1.79-.48,2.26-.57,4.83-1.21,6.86-3.09,1.1-1.01,2.38-1.92,3.75-2.87,2.04-1.43,4.16-2.91,6.05-5.03,2.25-2.51,3.36-5.08,3.61-8.33.94-11.99-.52-23.57-2.38-36.38-.3-2.05-.6-4.1-.9-6.15-1.63-11.11-3.31-22.6-4.38-33.9-1.13-12.05-2.06-24.35-2.95-36.24-.76-10.07-1.55-20.48-2.45-30.72-1.22-13.78-3.66-25.84-7.46-36.85-4.73-13.79-11.29-23.45-20.49-30.09.45-.8.89-1.64,1.32-2.53.35-.77.67-1.55,1.01-2.41.3-.82.57-1.63.8-2.42,3.17-11.13.03-23.11-8-30.53-.24-.23-.48-.44-.73-.65,6.82-.27,10.34-5.76,11.86-8.14,1.15-1.8,2.31-3.58,3.47-5.37,3.13-4.82,6.37-9.8,9.27-14.94.89-1.58,1.28-1.58,1.92-1.58.34,0,.76.04,1.23.12,1.9.31,2.49.73,3.18,1.61,5.05,6.55,10.24,13.15,15.25,19.54,4.29,5.46,8.58,10.92,12.83,16.39.96,1.25,3.22,4.17,7.14,4.17,1.21,0,2.47-.29,3.75-.87.42-.19,1.12-.31,1.87-.44.52-.09,1.04-.18,1.56-.3l6.21-1.43c2.98-.69,5.97-1.37,8.99-2.07l2.99-.7.82-23.18c2.05,2.26,4.08,4.61,6.05,6.88,1.82,2.1,3.69,4.26,5.58,6.37,2.25,2.51,4.99,5.19,9.08,5.19,2.49,0,4.84-1.01,7.01-2.09,4.44-2.22,9.11-4.68,14.26-7.51,2.32-1.27,2.89-3.97,3.02-5.08.26-2.1.45-4.22.64-6.27.37-4.03.71-7.84,1.5-11.55,1.53-7.2,3.5-14.5,5.4-21.55.59-2.16,1.17-4.31,1.74-6.47.03-.04.08-.08.12-.11,2.62-1.86,5.26-3.69,7.9-5.52,5.05-3.51,10.28-7.13,15.28-10.96,1.85-1.42,2.74-1.42,3.03-1.42.8,0,1.87.45,3.25,1.37,5.5,3.69,11.29,7.04,16.88,10.28,1.84,1.07,3.67,2.13,5.53,3.22,1.11.65,2.51,1.03,3.72,1.03.93,0,1.78-.21,2.54-.63,8.25-4.63,14.13-10.43,17.98-17.75.93-1.76.68-3.85.15-5.21-.47-1.2-.98-2.35-1.48-3.46-.82-1.84-1.6-3.57-2.05-5.26-1.9-7.22-3.61-14.65-5.27-21.84l-.6-2.58c.67-.95,1.35-1.89,2.04-2.83,1.22-1.68,2.49-3.43,3.67-5.24,1.21-1.87,2.35-3.78,3.45-5.63,1.16-1.94,2.26-3.78,3.44-5.58,3.58-5.47,8.49-8.84,14.6-9.99,3.87-.74,7.9-1.28,11.8-1.81,2.35-.31,4.7-.63,7.05-.99.61-.09,1.19-.18,1.58-.18h.02c1.02,1.52,2.58,2.4,4.3,2.4s3.45-.97,4.59-2.66c5.79-8.61,9-16.36,10.12-24.37.32-2.19-.83-4.8-2.69-6.08-7.33-5.01-12.42-12.3-16.78-19.53,3.02-6.93,4.2-14.08,5.01-20.8,1.43-11.83,5.38-20.54,12.42-27.41,5.07-4.93,9.92-10.18,14.6-15.25,2.21-2.39,4.42-4.77,6.65-7.14,2.95-3.13,4.13-6.44,3.6-10.13-.77-5.23-1.51-10.46-2.28-15.87l-1.23-8.61h-10.09c3.91-10.05,9.55-19.38,15.02-28.1,2.13-3.39,4.34-7.57,4.7-12.82.13-1.93.35-3.84.58-5.87.21-1.85.43-3.77.57-5.73.08-1.2.06-3.53-1.03-5.67ZM468.22,135.82c-.29,3.88-.89,7.73-1.15,11.6-.28,4.11-1.96,7.55-4.1,10.97-6.16,9.82-12.11,19.77-16.1,30.73-.37,1.01-.67,2.04-1.14,3.49h12.23c1.04,7.29,2.01,14.18,3.02,21.06.4,2.77-.74,4.89-2.55,6.81-7.03,7.43-13.8,15.13-21.13,22.26-8.47,8.27-12.22,18.4-13.6,29.8-.86,7.08-2.1,14.1-5.14,20.66-.22.48-.15,1.3.12,1.76,4.93,8.28,10.36,16.13,18.5,21.69.58.4,1.09,1.52.99,2.21-1.17,8.39-4.81,15.76-9.48,22.71-.75,1.11-1.66,1.15-2.24.27-1.47-2.18-3.41-1.88-5.54-1.55-6.33.97-12.71,1.62-18.99,2.82-7.35,1.39-13.11,5.47-17.2,11.73-2.4,3.67-4.51,7.54-6.9,11.22-1.83,2.83-3.92,5.5-5.85,8.28-.36.52-.76,1.28-.64,1.82,1.98,8.55,3.91,17.11,6.14,25.59.84,3.15,2.48,6.09,3.67,9.15.22.56.3,1.4.04,1.89-3.74,7.11-9.48,12.25-16.4,16.13-.54.3-1.66,0-2.3-.37-7.44-4.38-15.02-8.56-22.19-13.36-4.05-2.71-7.01-2.82-10.94.2-7.48,5.73-15.38,10.92-23.06,16.39-.7.49-1.4,1.32-1.61,2.12-2.5,9.46-5.21,18.88-7.24,28.44-1.27,5.94-1.46,12.11-2.2,18.17-.09.73-.42,1.75-.97,2.05-4.66,2.56-9.37,5.06-14.13,7.44-5.33,2.67-7.32,2.28-11.32-2.19-4.09-4.56-8-9.26-12.12-13.79-1.78-1.95-3.88-3.61-6.18-5.72-.35,9.91-.68,19.35-1.02,28.91-5.14,1.19-10.17,2.34-15.2,3.5-1.4.32-2.9.41-4.19,1-2.8,1.27-4.41.05-6.07-2.1-9.32-12.01-18.79-23.9-28.08-35.93-1.55-2.01-3.28-2.72-5.69-3.12-3.44-.56-5.45.18-7.29,3.45-3.88,6.89-8.36,13.44-12.62,20.12-2.34,3.65-5.07,6.73-10,6.25-.33-.03-.65-.14-1.18-.27.48-.74.85-1.31,1.35-2.08-4.44-1.82-8.78-3.59-13.59-5.55.55,3.57,1.03,6.71,1.52,9.86,3.77.69,7.08,2.21,9.84,4.33.55.42,1.08.87,1.59,1.34,6.86,6.34,9.65,16.7,6.86,26.49-.21.72-.45,1.44-.71,2.15-.28.72-.58,1.43-.9,2.14-.5,1.05-1.07,2.1-1.71,3.12-.43.68-.9,1.35-1.39,2.01.02.03.03.07.05.1.04.11.08.23.15.27,11.46,7,17.73,17.79,21.94,30.06,4.01,11.64,6.17,23.7,7.25,35.9,1.98,22.31,3.31,44.69,5.41,66.99,1.27,13.46,3.36,26.85,5.3,40.24,1.71,11.78,3.29,23.55,2.35,35.5-.18,2.33-.88,4.05-2.6,5.97-2.8,3.13-6.54,4.86-9.54,7.64-1.73,1.6-4.68,1.92-7.12,2.68-2.25.71-4.54,1.29-6.83,1.84-.65.15-1.38.12-2.04,0-2.85-.54-5.66-1.19-8.27.88-.32.25-1.16-.09-1.75-.23-3.13-.75-6.23-1.92-9.4-2.2-3.12-.27-4.87-1.81-6.16-4.3-.61-1.2-1.08-2.48-1.7-3.91-6.95,4.53-15.03,4.06-22.7,5.23-1.14.17-2.82-1.05-3.75-2.08-1.7-1.88-3.43-2.47-6.02-2.27-6.02.48-11.5-1-15.17-6.33-.65-.93-1.07-2.22-1.09-3.36-.77-37.62,0-75.23,1.55-112.82.5-11.88.81-23.77,1.47-35.64.59-10.58,1.87-21.08,4.61-31.36,2.99-11.19,7.6-21.44,16.93-29.08-1.52-2.51-3.04-4.93-4.46-7.4-2.7-4.7-4.01-9.71-3.11-15.14.83-4.94,3.43-8.92,7.43-11.76,3.8-2.69,7.9-4.99,11.95-7.32,1.46-.83,2.13-1.64,2.07-3.46-.16-4.46.24-8.94-.06-13.38-.12-1.96-1.07-4.04-2.19-5.71-3.49-5.19-7.15-10.27-10.9-15.29-2.19-2.93-4.67-5.64-7.01-8.46-.89-1.07-1.78-1.11-2.96-.31-5.92,3.97-11.87,7.9-17.83,11.8-2.29,1.5-4.7,2.81-6.96,4.34-1.56,1.05-2.72.54-3.38-.83-1.51-3.15-4.25-4.86-7.11-6.37-4.63-2.44-7.43-6.21-9.6-10.93-5.91-12.88-12.15-25.61-18.34-38.36-.76-1.56-.9-2.9-.31-4.48,1.16-3.17,2.29-6.36,3.27-9.59.39-1.28.33-2.69.53-4.48-2.71.25-5.17.58-7.64.67-4.8.17-9.6.26-14.41.23-.79-.01-1.86-.58-2.32-1.23-4.9-6.85-9.74-13.74-14.51-20.69-6.06-8.82-10.42-18.39-12.5-28.93-.07-.35-.16-.7-.21-1.06-1.24-8.74.4-11.5,8.55-15.04,5.34-2.32,10.62-4.78,15.83-7.35,7.49-3.7,10.32-9.85,10.2-18.14-.37-25.93-8-49.27-23.81-69.87-.88-1.14-1.71-2.38-2.79-3.29-3.62-3.04-4.18-6.88-3.15-11.16,1.07-4.45,2.76-8.63,5.45-12.37,6.61-9.23,9.23-10.59,20.63-11.5,6.16-.49,12.32-1.2,18.44-2.12,5.9-.88,10.07-4.07,12.92-9.58,7.54-14.62,16.18-28.57,26.91-41.13,5.49-6.43,11.54-12.28,18.27-17.43.69-.53,1.09-1.52,1.5-2.36,3.35-6.89,2.01-14.42,3-21.64.3-2.17,1.62-4.21,2.43-6.32.24-.63.5-1.32.5-1.98-.02-11.37-.08-22.75-.12-34.12-.03-10.22-.08-20.45-.04-30.67,0-.69.5-1.66,1.07-2.02,1.57-1,3.23-1.93,4.97-2.57,9.51-3.52,19.06-6.95,28.6-10.39,1.17-.42,2.4-1.03,3.22.78.22.5,1.35.66,2.1.82,11.88,2.53,23.96,3.26,36.04,3.89,16.04.82,32.11,1.27,47.99,3.94,2.34.39,4.58,1.31,7.09,2.06-1.21,2.53-3.05,2.52-4.69,2.45-5.47-.22-10.96-.35-16.4-.95-16.02-1.77-32.01-3.94-48.05-5.6-14.45-1.5-28.94-1.86-43.14,2.02-4.07,1.11-7.97,2.86-11.88,4.49-.69.28-1.42,1.43-1.45,2.2-.51,16.57-.85,33.14-1.4,49.71-.16,4.72-.92,9.43-1.32,14.15-.07.85-.03,2.02.47,2.58,5.93,6.65,11.96,13.22,17.98,19.8.23.25.59.38,1.08.69.44-1.72.8-3.31,1.26-4.88,8.34-28.36,27.32-45.1,56.03-50.97,7.41-1.51,14.95-.53,22.39.45,15.41,2.01,30.78,4.47,46.24,6.05,9.07.92,18.28.48,27.42.7,2.16.05,4.32.17,6.47.43,5.98.71,10.04,8.23,7.08,13.29-.57.98-1.81,1.94-2.91,2.19-8.42,1.91-15.89-.65-22.94-5.13-1.16-.74-2.55-1.33-3.91-1.55-14-2.22-27.99-4.52-42.04-6.45-13.82-1.9-27.69-2.74-41.44.68-18.94,4.71-32.23,16.33-40.59,33.73-2.01,4.18-3.46,8.66-4.85,13.1-1.43,4.54-.21,8.59,3.4,11.72,7.72,6.7,15.25,13.65,23.33,19.9,5.07,3.92,10.28,7.58,15.61,11.02,2.06,1.33,4.14,2.63,6.24,3.89,13.93,8.42,28.64,15.49,43.72,21.81,24.62,10.33,49.47,20.07,75.36,26.82,7.78,2.02,15.71,3.5,23.82,5.28,4.64-12.58,12.75-22.64,19.56-33.47,4.12-6.56,7.6-13.38,8.81-21.17,1.26-8.14-.4-15.48-6.52-21.17-5.37-4.99-11.05-9.67-16.84-14.16-5.74-4.45-11.92-8.34-17.67-12.79-3.51-2.72-6.62-5.99-9.82-9.1-1.26-1.21-2.25-2.68-.97-4.87,1.11.76,2.32,1.31,3.16,2.2,6.43,6.81,14.15,12.01,21.67,17.46,8.52,6.17,17.15,12.2,24.52,19.79.4.42.8.83,1.2,1.25,3.02,3.26,6.2,6.38,5.74,11.47-.14,1.52.4,3.13.8,4.66,1.51,5.69.21,10.53-3.19,15.42-6,8.61-11.53,17.57-16.98,26.55-3.55,5.84-6.15,12.17-8.13,19,6.51.7,12.86,1.49,19.24,2.06,10.27.91,20.6,1.47,30.84.01,6.46-.93,12.81-2.66,19.21-4.03.77-.17,1.53-.44,2.31-.54,7.57-.97,13.27-4.8,17.36-10.87.32-.47.64-.97.94-1.47,1.96-3.27,3.89-6.56,5.79-9.87,1.23-2.73,2.28-5.52,3.29-8.22.27-.72.54-1.45.82-2.18.9-.15,1.73-.55,2.44-1.06,3.2-5.61,6.27-11.3,9.53-16.87,2.58-4.42,4.39-8.97,4.83-13.76.26-2.82.05-5.73-.77-8.74-1.32-4.89-4.06-9.05-7.94-12.11-7.51-5.92-15.25-11.57-23.08-17.07-4.94-3.47-10.32-6.32-15.32-9.71-7.43-5.05-14.78-10.26-22.04-15.55-11.37-8.3-23.47-15.4-36.08-21.59-3.61-1.77-7.76-2.66-11.77-3.31-2.91-.48-5.99.1-9,.18-1.58.04-3.53.67-4.01-1.69-.32-1.55,1.02-2.32,3.81-2.35,1.08-.01,2.16-.01,3.24-.03.13,0,.25-.09.61-.23-.68-1.42-1.3-2.86-2.05-4.22-2.13-3.84-4.26-7.68-6.52-11.44-.46-.76-1.46-1.43-2.34-1.65-8.02-1.99-16.01-4.15-24.12-5.71-9.39-1.81-18.89-3.09-28.35-4.5-.74-.11-1.8.28-2.33.82-2.06,2.1-3.97,4.36-6.13,6.77.36.38.81.89,1.3,1.37,4.8,4.66,9.63,9.32,14.42,14,1.22,1.19,3.21,2.74,1.81,4.27-1.46,1.58-3.35-.22-4.61-1.37-5.42-4.95-10.73-10.01-16.07-15.03-2.99-2.81-6.19-5.44-8.88-8.52-2.14-2.43-3.65-5.41-5.51-8.26,2.37-1.34,3.73-.28,4.89.86,2.2,2.17,4.3,4.46,6.38,6.76,1.1,1.22,2.08,2.56,3.37,4.17,1.77-2.68,3.02-4.66,4.37-6.58,3.41-4.88,3.39-4.7,9.22-3.59,12.16,2.3,24.38,4.28,36.53,6.63,5.71,1.11,11.33,2.7,16.95,4.23.95.27,2.01,1.16,2.48,2.04,3.15,5.83,6.15,11.73,9.19,17.61.47.91.84,1.7,2.21,1.54,5.26-.62,9.88,1.12,14.26,3.92,25.41,16.26,50.84,32.5,76.28,48.71,7.17,4.56,14.42,8.99,21.58,13.56.91.58,1.69,1.53,2.23,2.48,2.22,3.87,4.4,7.77,6.42,11.74.53,1.04.69,2.4.61,3.58ZM154.55,489.9l-.03.04c-.82-.33-1.66-.62-2.52-.87-.01-.07-.02-.15-.03-.22.86.35,1.72.7,2.58,1.05ZM135.07,66.41c.05-.87.13-1.74.23-2.61.23-2.05.55-4.1.87-6.15.98-6.47,2.04-12.93,3.08-19.49h10.17c-1.64,5.81-3.13,11.5-4.85,17.11-2.91,9.56-6.12,19.05-7.32,29.04-.24,1.93-.42,3.86-.65,5.91-2.83.33-3.77-.71-3.33-3.75.51-3.63,1.36-7.23,1.7-10.87.29-3.04-.09-6.14.1-9.19ZM136.54,31.37c-.34.33-.36,1.05-.43,1.6-.05.4-.1.79-.15,1.19-1.1,8.45-2.24,16.91-3.2,25.37-.14,1.22-.57,1.95-1.26,2.43-.55.41-1.27.65-2.12.85-.85-4.69.17-9.11.94-13.56.6-3.47,1.28-6.93,1.73-10.43.24-1.84.51-3.87-.03-5.56-.9-2.81.29-4.39,2.35-5.7,3.4-2.16,6.83-4.26,10.31-6.27.58-.34,1.53-.34,2.21-.14,6.02,1.69,12.02,3.46,18.02,5.22.41.12.92.19,1.18.47.41.42.85,1.01.86,1.53,0,.31-.81.92-1.23.9-1.99-.11-4.03-.17-5.95-.65-3.12-.79-6.13-2.1-9.27-2.82-5.84-1.34-10.07,1.82-13.96,5.57ZM209.14,86.09c-2.24,1.7-4.51,3.34-6.78,5.01-1.47,1.08-2.94,2.17-4.39,3.29-.09.06-.18.13-.27.2-.72.56-1.32,1.67-1.44,2.59-.59,4.7-1,9.43-1.48,14.24h-3.59c.61-7.4,1.2-14.75,1.82-22.33,6.72-.12,12.18-2.94,17.06-7.15,2.51-2.16,5.1-4.23,7.7-6.28.88-.69,1.9-1.2,2.96-1.87.49.79.85,1.39,1.38,2.26-4.34,3.37-8.62,6.75-12.97,10.04ZM213.36,98.23c-2.69,9.37-5.33,18.6-8.01,27.97-.77-.08-1.37-.15-2.1-.24-.75,7.25-1.5,14.47-2.23,21.7-.23,2.29-.7,3.41-2.03,3.83-.96-.59-1.91-1.18-2.85-1.77,1.86-17.7,3.74-35.4,5.62-53.2.05-.46.1-.93.15-1.39.42.11.85.23,1.26.34,3.39.92,6.63,1.79,10.19,2.76ZM431.37,187.22c.3-1.32.74-2.63,1.3-3.86,5.59-12.38,11.2-24.75,16.89-37.08.38-.83,1.38-1.66,2.26-1.9,1.34-.37,2.86-.44,4.25-.27,1.24.15,2.14.42,2.73.85,1.13.8,1.09,2.17-.04,4.26-3.88,7.13-7.83,14.23-11.81,21.3-.23.4-.79.85-1.26,1-.14.06-.27.08-.38.07-1.57-.14-2.18.71-2.65,1.94-1.35,3.53-2.61,7.1-4.15,10.56-.01.03-.03.07-.05.1-.02.06-.04.11-.07.17-1.19,2.65-2.77,5.12-4.25,7.81-.1-.05-.19-.1-.28-.15-2.32-1.26-2.92-2.84-2.49-4.8Z"/>
      <path class="cls-1" d="M246.05,490.97c.05,1.33-.39,2-1.63,2.3-4.25,1.02-8.48,2.11-12.75,3.02-.48.1-1.49-.67-1.7-1.24-4.44-11.82-8.85-23.64-13.11-35.52-.68-1.9-1.82-2.71-3.54-2.82-3.3-.2-6.61-.41-9.91-.29-5.56.19-11,.38-16.11-2.62-2.8-1.64-5.89.15-6.97,3.27-.78,2.27-1.63,4.58-2.83,6.64-2.77,4.71-5.32,9.65-8.78,13.81-6.14,7.38-4.75,6.08-12.26,3.52-2.05-.7-2.6-1.64-2.66-3.79-.27-10.43-.73-20.87-1.29-31.29-.05-.91-1.19-1.9-2.04-2.57-.55-.45-1.49-.49-2.27-.54-1.28-.07-1.67-.67-1.72-1.91-.38-10.51-.81-21.01-1.24-31.52-.13-3.16-.3-6.32-.46-9.48,32.56,15.72,66,18.39,100.94,8.98v9.43c0,19.46-.02,38.91.01,58.36.01,4.75.13,9.51.32,14.26Z"/>
      <path class="cls-1" d="M269.63,299.16c-42.14,15.73-84.23,31.45-126.59,47.26-.12-2.36-.38-4.58-.31-6.78.19-6.63.46-13.25.86-19.86.04-.66,1.1-1.54,1.87-1.81,11.36-4.01,22.75-7.93,34.14-11.87,21.62-7.48,43.23-14.97,64.88-22.38,1.08-.36,2.53-.18,3.63.23,1.53.56,2.97,1.46,4.3,2.43,5.67,4.14,11.28,8.36,17.22,12.78Z"/>
      <path class="cls-1" d="M135.4,436.76c.01.36-.06.71-.14,1.6-1.45-.63-2.75-1.06-3.93-1.72-1.95-1.09-3.74-2.44-5.72-3.44-2.62-1.32-3.45-.82-5.35,1.31-2.05,2.27-4.27,4.5-6.76,6.25-4.52,3.18-9.33,5.96-13.97,8.98-3.07,2-6.05,4.14-9.42,6.46-2.72-2.99-5.66-6.1-8.41-9.38-.52-.63-.59-2.05-.27-2.88,3.72-9.86,7.58-19.68,11.31-29.54.29-.76.12-2.01-.34-2.67-2.7-3.82-5.57-7.52-8.34-11.29-3.65-4.94-6.78-10.15-8.57-16.1-.23-.79-1.22-1.58-2.04-1.93-5.02-2.12-10.29-1.65-15.53-1.23-5.95.47-11.89,1.01-17.83,1.49-2,.16-3.46-.52-4.12-2.61-1.19-3.74-2.76-7.39-3.62-11.2-.5-2.22-.17-4.73.27-7.02.22-1.11,1.33-2.4,2.38-2.96,10.16-5.37,20.38-10.63,30.61-15.85,1.31-.67,1.79-1.46,1.91-2.95,1.07-13.11,1.76-26.26,4.66-39.15.75-3.35,1.59-6.71,2.72-9.95.6-1.7.38-2.78-.91-3.89-5.62-4.84-11.2-9.72-16.81-14.57-.98-.84-2.01-1.63-3.03-2.44-4.37-3.48-5.59-7.99-3.69-13.1,1.29-3.48,3.11-6.78,4.86-10.07.28-.53,1.4-.86,2.14-.88,13.91-.32,27.81-.63,41.71-.8,1.87-.02,2.76-.65,3.58-2.23,5.9-11.28,11.61-22.69,19.3-32.91,2.46-3.27,5.26-6.29,7.93-9.4.44-.51,1-.91,1.75-1.57,0,2.66-.11,4.93.02,7.19.32,5.9.7,11.78,1.13,17.67.66,9.02-.04,17.99-1.25,26.92-2.68,19.75-8.89,38.7-13.39,58.03-1.39,5.98-2.49,11.95-1.8,18.34,6.09.53,10.93-3.18,16.39-4.25.16.21.3.32.31.43.17,8.07.31,16.13.53,24.2.03,1.35-.34,2.03-1.68,2.51-4.79,1.72-9.54,3.58-14.29,5.4-.54.2-1.06.45-1.57.71-3.29,1.68-3.44,3.17-1.18,6.02,1.59,1.99,2.84,4.29,3.98,6.58,2.4,4.82,4.49,9.79,6.95,14.58,1.79,3.48,4.25,6.49,7.66,8.62.49.31.95,1.11.96,1.69.34,14.33.62,28.67.9,43Z"/>
      <path class="cls-1" d="M181.23,205.04c-14.08,14.72-28.54,29.05-38.96,46.98-.14-2.08-.4-4.16-.41-6.23-.06-12.9-.03-25.8-.1-38.7-.02-3.88-.26-7.77-.41-11.65-.13-3.17.75-6.01,2.94-8.31,4.73-4.97,6.81-10.99,7.59-17.68.18-1.5,1.54-2.87,2.36-4.32,4.41,2.55,7.26,6.24,9.65,10.28,4.35,7.37,8.54,14.82,12.83,22.22,1.41,2.43,2.91,4.79,4.51,7.41Z"/>
      <path class="cls-1" d="M438.46,184.19c-.02.06-.04.11-.07.17-1.19,2.65-2.77,5.12-4.25,7.81-.1-.05-.19-.1-.28-.15,1.56-2.59,3.08-5.21,4.6-7.83Z"/>
      <path class="cls-1" d="M442.07,185.92s-.02.05-.03.08c-.9,2-1.98,3.87-3.02,5.68-.46.79-.92,1.59-1.37,2.42l-1.87,3.38-.44-.22c.32-.47.64-.97.94-1.47,1.96-3.27,3.89-6.56,5.79-9.87Z"/>
      <path class="cls-1" d="M462.28,151.12c-3.55,6.53-7.43,13.52-11.84,21.36-.4.7-1.03,1.41-1.82,1.98,3.2-5.61,6.27-11.3,9.53-16.87,2.58-4.42,4.39-8.97,4.83-13.76,1.58,3.08-.13,6.24-.7,7.29Z"/>
      <path class="cls-1" d="M438.46,184.19c-.02.06-.04.11-.07.17-1.19,2.65-2.77,5.12-4.25,7.81-.1-.05-.19-.1-.28-.15,1.56-2.59,3.08-5.21,4.6-7.83Z"/>
    </g>
  </g>
</svg>