<?xml version="1.0" encoding="UTF-8"?>
<svg id="Layer_2" data-name="Layer 2" xmlns="http://www.w3.org/2000/svg" viewBox="0 0 464.26 758.08">
  <defs>
    <style>
      .cls-1, .cls-2 {
        stroke-width: 0px;
      }

      .cls-2 {
        fill: #fff;
      }
    </style>
  </defs>
  <g id="Layer_3" data-name="Layer 3">
    <g>
      <path class="cls-1" d="M463.63,128.24c-2.02-3.97-4.2-7.87-6.42-11.74-.54-.95-1.32-1.9-2.23-2.48-7.16-4.57-14.41-9-21.58-13.56-25.44-16.21-50.87-32.45-76.28-48.71-4.38-2.8-9-4.54-14.26-3.92-1.37.16-1.74-.63-2.21-1.54-3.04-5.88-6.04-11.78-9.19-17.61-.47-.88-1.53-1.77-2.48-2.04-5.62-1.53-11.24-3.12-16.95-4.23-12.15-2.35-24.37-4.33-36.53-6.63-5.83-1.11-5.81-1.29-9.22,3.59-1.35,1.92-2.6,3.9-4.37,6.58-1.29-1.61-2.27-2.95-3.37-4.17-2.08-2.3-4.18-4.59-6.38-6.76-1.16-1.14-4.17-3.49-6.54-2.15,1.86,2.85,5.02,7.12,7.16,9.55,2.69,3.08,5.89,5.71,8.88,8.52,5.34,5.02,10.65,10.08,16.07,15.03,1.26,1.15,3.15,2.95,4.61,1.37,1.4-1.53-.59-3.08-1.81-4.27-4.79-4.68-9.62-9.34-14.42-14-.49-.48-.94-.99-1.3-1.37,2.16-2.41,4.07-4.67,6.13-6.77.53-.54,1.59-.93,2.33-.82,9.46,1.41,18.96,2.69,28.35,4.5,8.11,1.56,16.1,3.72,24.12,5.71.88.22,1.88.89,2.34,1.65,2.26,3.76,4.39,7.6,6.52,11.44.75,1.36,1.37,2.8,2.05,4.22-.36.14-.48.23-.61.23-1.08.02-2.16.02-3.24.03-2.79.03-4.13.8-3.81,2.35.48,2.36,2.43,1.73,4.01,1.69,3.01-.08,6.09-.66,9-.18,4.01.65,8.16,1.54,11.77,3.31,12.61,6.19,24.71,13.29,36.08,21.59,7.26,5.29,14.61,10.5,22.04,15.55,5,3.39,10.38,6.24,15.32,9.71,7.83,5.5,15.57,11.15,23.08,17.07,3.88,3.06,6.62,7.22,7.94,12.11,2.2,8.12.04,15.47-4.06,22.5-3.34,5.71-6.48,11.54-9.76,17.28-3.99,7-7.96,14.01-12.11,20.92-4.15,6.92-10.13,11.29-18.3,12.34-.78.1-1.54.37-2.31.54-6.4,1.37-12.75,3.1-19.21,4.03-10.24,1.46-20.57.9-30.84,0-6.38-.57-12.73-1.36-19.24-2.06,1.98-6.83,4.58-13.16,8.13-19,5.45-8.98,10.98-17.94,16.98-26.55,3.4-4.89,4.7-9.73,3.19-15.42-.4-1.53-.94-3.14-.8-4.66.46-5.09-2.72-8.21-5.74-11.47-.4-.42-.8-.83-1.2-1.25-7.37-7.59-16-13.62-24.52-19.79-7.52-5.45-15.24-10.65-21.67-17.46-.84-.89-2.05-1.44-3.16-2.2-1.28,2.19-.29,3.66.97,4.87,3.2,3.11,6.31,6.38,9.82,9.1,5.75,4.45,11.93,8.34,17.67,12.79,5.79,4.49,11.47,9.17,16.84,14.16,6.12,5.69,7.78,13.03,6.52,21.17-1.21,7.79-4.69,14.61-8.81,21.17-6.81,10.83-14.92,20.89-19.56,33.47-8.11-1.78-16.04-3.26-23.82-5.28-25.89-6.75-50.74-16.49-75.36-26.82-23.23-9.74-45.56-21.24-65.57-36.72-8.08-6.25-15.61-13.2-23.33-19.9-3.61-3.13-4.83-7.18-3.4-11.72,1.39-4.44,2.84-8.92,4.85-13.1,8.36-17.4,21.65-29.02,40.59-33.73,13.75-3.42,27.62-2.58,41.44-.68,14.05,1.93,28.04,4.23,42.04,6.45,1.36.22,2.75.81,3.91,1.55,7.05,4.48,14.52,7.04,22.94,5.13,1.1-.25,2.34-1.21,2.91-2.19,2.96-5.06-1.1-12.58-7.08-13.29-2.15-.26-4.31-.38-6.47-.43-9.14-.22-18.35.22-27.42-.7-15.46-1.58-30.83-4.04-46.24-6.05-7.44-.98-14.98-1.96-22.39-.45-28.71,5.87-47.69,22.61-56.03,50.97-.46,1.57-.82,3.16-1.26,4.88-.49-.31-.85-.44-1.08-.69-6.02-6.58-12.05-13.15-17.98-19.8-.5-.56-.54-1.73-.47-2.58.4-4.72,1.16-9.43,1.32-14.15.55-16.57.89-33.14,1.4-49.71.03-.77.76-1.92,1.45-2.2,3.91-1.63,7.81-3.38,11.88-4.49,14.2-3.88,28.69-3.52,43.14-2.02,16.04,1.66,32.03,3.83,48.05,5.6,5.44.6,10.93.73,16.4.95,1.41.06,2.96.08,4.14-1.52.19-.26.38-.57.55-.93-2.51-.75-4.75-1.67-7.09-2.06-15.88-2.67-31.95-3.12-47.99-3.94-12.08-.63-24.16-1.36-36.04-3.89-.75-.16-1.88-.32-2.1-.82-.82-1.81-2.05-1.2-3.22-.78-9.54,3.44-19.09,6.87-28.6,10.39-1.74.64-3.4,1.57-4.97,2.57-.57.36-1.06,1.33-1.07,2.02-.04,10.22.01,20.45.04,30.67.04,11.37.1,22.75.12,34.12,0,.66-.26,1.35-.5,1.98-.81,2.11-2.13,4.15-2.43,6.32-.99,7.22.35,14.75-3,21.64-.41.84-.81,1.83-1.5,2.36-6.73,5.15-12.78,11-18.27,17.43-10.73,12.56-19.37,26.51-26.91,41.13-2.85,5.51-7.02,8.7-12.92,9.58-6.12.92-12.28,1.63-18.44,2.12-11.4.91-14.02,2.27-20.63,11.5-2.69,3.74-4.38,7.92-5.45,12.37-1.03,4.28-.47,8.12,3.15,11.16,1.08.91,1.91,2.15,2.79,3.29,15.81,20.6,23.44,43.94,23.81,69.87.12,8.29-2.71,14.44-10.2,18.14-5.21,2.57-10.49,5.03-15.83,7.35-8.15,3.54-9.79,6.3-8.55,15.04.05.36.14.71.21,1.06,2.08,10.54,6.44,20.11,12.5,28.93,4.77,6.95,9.61,13.84,14.51,20.69.46.65,1.53,1.22,2.32,1.23,4.81.03,9.61-.06,14.41-.23,2.47-.09,4.93-.42,7.64-.67-.2,1.79-.14,3.2-.53,4.48-.98,3.23-2.11,6.42-3.27,9.59-.59,1.58-.45,2.92.31,4.48,6.19,12.75,12.43,25.48,18.34,38.36,2.17,4.72,4.97,8.49,9.6,10.93,2.86,1.51,5.6,3.22,7.11,6.37.66,1.37,1.82,1.88,3.38.83,2.26-1.53,4.67-2.84,6.96-4.34,5.96-3.9,11.91-7.83,17.83-11.8,1.18-.8,2.07-.76,2.96.31,2.34,2.82,4.82,5.53,7.01,8.46,3.75,5.02,7.41,10.1,10.9,15.29,1.12,1.67,2.07,3.75,2.19,5.71.3,4.44-.1,8.92.06,13.38.06,1.82-.61,2.63-2.07,3.46-4.05,2.33-8.15,4.63-11.95,7.32-4,2.84-6.6,6.82-7.43,11.76-.9,5.43.41,10.44,3.11,15.14,1.42,2.47,2.94,4.89,4.46,7.4-9.33,7.64-13.94,17.89-16.93,29.08-2.74,10.28-4.02,20.78-4.61,31.36-.66,11.87-.97,23.76-1.47,35.64-1.56,37.59-2.32,75.2-1.55,112.82.02,1.14.44,2.43,1.09,3.36,3.67,5.33,9.15,6.81,15.17,6.33,2.59-.2,4.32.39,6.02,2.27.93,1.03,2.61,2.25,3.75,2.08,7.67-1.17,15.75-.7,22.7-5.23.62,1.43,1.09,2.71,1.7,3.91,1.29,2.49,3.04,4.03,6.16,4.3,3.17.28,6.27,1.45,9.4,2.2.59.14,1.43.48,1.75.23,2.61-2.07,5.42-1.42,8.27-.88.66.12,1.39.15,2.04,0,2.29-.55,4.58-1.13,6.83-1.84,2.44-.76,5.39-1.08,7.12-2.68,3-2.78,6.74-4.51,9.54-7.64,1.72-1.92,2.42-3.64,2.6-5.97.94-11.95-.64-23.72-2.35-35.5-1.94-13.39-4.03-26.78-5.3-40.24-2.1-22.3-3.43-44.68-5.41-66.99-1.08-12.2-3.24-24.26-7.25-35.9-4.21-12.27-10.48-23.06-21.94-30.06-.07-.04-.11-.16-.15-.27-.02-.03-.03-.07-.05-.1.49-.66.96-1.33,1.39-2.01.64-1.02,1.21-2.07,1.71-3.12.32-.71.62-1.42.9-2.14.26-.71.5-1.43.71-2.15,2.79-9.79,0-20.15-6.86-26.49-.51-.47-1.04-.92-1.59-1.34-2.76-2.12-6.07-3.64-9.84-4.33-.49-3.15-.97-6.29-1.52-9.86,4.81,1.96,9.15,3.73,13.59,5.55-.5.77-.87,1.34-1.35,2.08.53.13.85.24,1.18.27,4.93.48,7.66-2.6,10-6.25,4.26-6.68,8.74-13.23,12.62-20.12,1.84-3.27,3.85-4.01,7.29-3.45,2.41.4,4.14,1.11,5.69,3.12,9.29,12.03,18.76,23.92,28.08,35.93,1.66,2.15,3.27,3.37,6.07,2.1,1.29-.59,2.79-.68,4.19-1,5.03-1.16,10.06-2.31,15.2-3.5.34-9.56.67-19,1.02-28.91,2.3,2.11,4.4,3.77,6.18,5.72,4.12,4.53,8.03,9.23,12.12,13.79,4,4.47,5.99,4.86,11.32,2.19,4.76-2.38,9.47-4.88,14.13-7.44.55-.3.88-1.32.97-2.05.74-6.06.93-12.23,2.2-18.17,2.03-9.56,4.74-18.98,7.24-28.44.21-.8.91-1.63,1.61-2.12,7.68-5.47,15.58-10.66,23.06-16.39,3.93-3.02,6.89-2.91,10.94-.2,7.17,4.8,14.75,8.98,22.19,13.36.64.37,1.76.67,2.3.37,6.92-3.88,12.66-9.02,16.4-16.13.26-.49.18-1.33-.04-1.89-1.19-3.06-2.83-6-3.67-9.15-2.23-8.48-4.16-17.04-6.14-25.59-.12-.54.28-1.3.64-1.82,1.93-2.78,4.02-5.45,5.85-8.28,2.39-3.68,4.5-7.55,6.9-11.22,4.09-6.26,9.85-10.34,17.2-11.73,6.28-1.2,12.66-1.85,18.99-2.82,2.13-.33,4.07-.63,5.54,1.55.58.88,1.49.84,2.24-.27,4.67-6.95,8.31-14.32,9.48-22.71.1-.69-.41-1.81-.99-2.21-8.14-5.56-13.57-13.41-18.5-21.69-.27-.46-.34-1.28-.12-1.76,3.04-6.56,4.28-13.58,5.14-20.66,1.38-11.4,5.13-21.53,13.6-29.8,7.33-7.13,14.1-14.83,21.13-22.26,1.81-1.92,2.95-4.04,2.55-6.81-1.01-6.88-1.98-13.77-3.02-21.06h-12.23c.47-1.45.77-2.48,1.14-3.49,3.99-10.96,9.94-20.91,16.1-30.73,2.14-3.42,3.82-6.86,4.1-10.97.26-3.87.86-7.72,1.15-11.6.08-1.18-.08-2.54-.61-3.58ZM281.67,57.69c1.93-.7,4.21-.89,6.27-.67,4.28.46,8.2,2.05,11.21,5.29,1.99,2.14,1.66,3.22-1.11,3.97-1.24.34-2.53.47-3.46.63-5.2-.33-9.6-1.83-13.41-4.89-1.97-1.58-1.9-3.46.5-4.33ZM131.28,434.36c-1.45-.63-2.75-1.06-3.93-1.72-1.95-1.09-3.74-2.44-5.72-3.44-2.62-1.32-3.45-.82-5.35,1.31-2.05,2.27-4.27,4.5-6.76,6.25-4.52,3.18-9.33,5.96-13.97,8.98-3.07,2-6.05,4.14-9.42,6.46-2.72-2.99-5.66-6.1-8.41-9.38-.52-.63-.59-2.05-.27-2.88,3.72-9.86,7.58-19.68,11.31-29.54.29-.76.12-2.01-.34-2.67-2.7-3.82-5.57-7.52-8.34-11.29-3.65-4.94-6.78-10.15-8.57-16.1-.23-.79-1.22-1.58-2.04-1.93-5.02-2.12-10.29-1.65-15.53-1.23-5.95.47-11.89,1.01-17.83,1.49-2,.16-3.46-.52-4.12-2.61-1.19-3.74-2.76-7.39-3.62-11.2-.5-2.22-.17-4.73.27-7.02.22-1.11,1.33-2.4,2.38-2.96,10.16-5.37,20.38-10.63,30.61-15.85,1.31-.67,1.79-1.46,1.91-2.95,1.07-13.11,1.76-26.26,4.66-39.15.75-3.35,1.59-6.71,2.72-9.95.6-1.7.38-2.78-.91-3.89-5.62-4.84-11.2-9.72-16.81-14.57-.98-.84-2.01-1.63-3.03-2.44-4.37-3.48-5.59-7.99-3.69-13.1,1.29-3.48,3.11-6.78,4.86-10.07.28-.53,1.4-.86,2.14-.88,13.91-.32,27.81-.63,41.71-.8,1.87-.02,2.76-.65,3.58-2.23,5.9-11.28,11.61-22.69,19.3-32.91,2.46-3.27,5.26-6.29,7.93-9.4.44-.51,1-.91,1.75-1.57,0,2.66-.11,4.93.02,7.19.32,5.9.7,11.78,1.13,17.67.66,9.02-.04,17.99-1.25,26.92-2.68,19.75-8.89,38.7-13.39,58.03-1.39,5.98-2.49,11.95-1.8,18.34,6.09.53,10.93-3.18,16.39-4.25.16.21.3.32.31.43.17,8.07.31,16.13.53,24.2.03,1.35-.34,2.03-1.68,2.51-4.79,1.72-9.54,3.58-14.29,5.4-.54.2-1.06.45-1.57.71-3.29,1.68-3.44,3.17-1.18,6.02,1.59,1.99,2.84,4.29,3.98,6.58,2.4,4.82,4.49,9.79,6.95,14.58,1.79,3.48,4.25,6.49,7.66,8.62.49.31.95,1.11.96,1.69.34,14.33.62,28.67.9,43,.01.36-.06.71-.14,1.6ZM131.45,705.42c-1.05.97-1.57,2.51-2.32,3.8-.17.02-.35.04-.52.06-.24-1.62-.65-3.23-.71-4.85-.22-6.26-.37-12.52-.42-18.79-.01-.84.68-1.68,1-2.54.26-.69.64-1.41.65-2.12.19-11.38.32-22.75.46-34.13.03-2.66.01-5.33.07-7.99.03-.98.21-1.96.75-2.92.29,5.76.72,11.51.85,17.27.25,11.88.29,23.77.55,35.65.09,4.38.52,8.76.81,13.14.09,1.31-.04,2.37-1.17,3.42ZM153.8,636.51c.02-.32.07-.65.53-1.05.22.77.56,1.52.63,2.3.8,9.46,1.51,18.93,2.34,28.39.75,8.53,1.75,17.03,2.4,25.56,1,13.08,1.55,26.18.7,39.29-.17,2.66-.34,5.32-.54,7.97-.07.84-.25,1.67-.38,2.51-4.35-1.02-4.67-1.59-4.85-5.65-.34-7.9-1.09-15.8-1.28-23.71-.35-15.05-.6-30.1-.55-45.16.03-10.15.65-20.3,1-30.45ZM348.78,247.73c-.43,16.96-.85,33.9-1.28,51.01-4.57.75-9.06,1.49-13.93,2.29.52-18.17,1.03-36.06,1.55-54.33,4.48.34,8.95.67,13.66,1.03ZM330.01,218.88c1.71-1.35,3.99-1.97,6.01-2.91.09.18.18.37.26.55,4.33.01,5.01.68,4.28,4.89-.64,3.65-2.3,6.79-5.4,9.01-2.83,2.03-5.86,2.22-8.93.65-.55-.28-1.18-1.21-1.12-1.75.5-3.99,1.61-7.87,4.9-10.44ZM294.76,264.64v-24.37c3.14.62,6.06,1.19,8.81,1.73v57.77c-2.9-.73-5.47-1.29-7.96-2.11-.46-.15-.81-1.37-.82-2.1-.05-10.31-.03-20.62-.03-30.92ZM137.37,191.44c-.13-3.17.75-6.01,2.94-8.31,4.73-4.97,6.81-10.99,7.59-17.68.18-1.5,1.54-2.87,2.36-4.32,4.41,2.55,7.26,6.24,9.65,10.28,4.35,7.37,8.54,14.82,12.83,22.22,1.41,2.43,2.91,4.79,4.51,7.41-14.08,14.72-28.54,29.05-38.96,46.98-.14-2.08-.4-4.16-.41-6.23-.06-12.9-.03-25.8-.1-38.7-.02-3.88-.26-7.77-.41-11.65ZM141.05,254.73c6.53-10.62,13.4-21.03,21.89-30.21,5.51-5.97,11.4-11.59,17.53-17.78,8.91,12.43,17.43,24.32,26.14,36.46-23.2,7.99-45.88,15.8-68.68,23.65-.54-4.66.92-8.55,3.12-12.12ZM138.75,335.64c.19-6.63.46-13.25.86-19.86.04-.66,1.1-1.54,1.87-1.81,11.36-4.01,22.75-7.93,34.14-11.87,21.62-7.48,43.23-14.97,64.88-22.38,1.08-.36,2.53-.18,3.63.23,1.53.56,2.97,1.46,4.3,2.43,5.67,4.14,11.28,8.36,17.22,12.78-42.14,15.73-84.23,31.45-126.59,47.26-.12-2.36-.38-4.58-.31-6.78ZM240.44,489.27c-4.25,1.02-8.48,2.11-12.75,3.02-.48.1-1.49-.67-1.7-1.24-4.44-11.82-8.85-23.64-13.11-35.52-.68-1.9-1.82-2.71-3.54-2.82-3.3-.2-6.61-.41-9.91-.29-5.56.19-11,.38-16.11-2.62-2.8-1.64-5.89.15-6.97,3.27-.78,2.27-1.63,4.58-2.83,6.64-2.77,4.71-5.32,9.65-8.78,13.81-6.14,7.38-4.75,6.08-12.26,3.52-2.05-.7-2.6-1.64-2.66-3.79-.27-10.43-.73-20.87-1.29-31.29-.05-.91-1.19-1.9-2.04-2.57-.55-.45-1.49-.49-2.27-.54-1.28-.07-1.67-.67-1.72-1.91-.38-10.51-.81-21.01-1.24-31.52-.13-3.16-.3-6.32-.46-9.48,32.56,15.72,66,18.39,100.94,8.98v9.43c0,19.46-.02,38.91.01,58.36.01,4.75.13,9.51.32,14.26.05,1.33-.39,2-1.63,2.3ZM254.6,350.96c-5.07,1.96-10.25,3.63-15.11,5.34v31.89c-1.07-.9-2.05-1.62-2.92-2.45-6.02-5.8-12-11.63-18.06-17.38-.34-.33-1.34-.32-1.83-.08-11.69,5.88-24.19,6.89-36.98,6.27-11.03-.54-21.77-2.59-32.25-6.17-3.16-1.08-5.33-3.26-7.67-5.33-.44-.39-.64-1.26-.65-1.92-.06-3.31-.09-6.63.02-9.94.03-.64.64-1.67,1.17-1.83,21.31-6.01,41.18-15.58,61.3-24.55,16.53-7.37,33.2-14.43,50.91-18.46,7.88-1.79,15.93-3.28,23.97-3.88,11-.82,21.72,1.5,32.14,5.11.11.04.19.2.38.4-3.85,7.28-8.87,13.7-14.85,19.39-11.4,10.86-25.04,18-39.57,23.59ZM448.35,193.97c1.29-.11,1.89.31,2.19,1.69.92,4.29,2.25,8.57,1.16,12.97-.52,2.09-1.41,4.23-2.66,5.98-1.4,1.96-3.24,3.69-5.13,5.22-11.82,9.56-19.62,22.02-24.94,35.95-4.08,10.7-7.19,21.77-10.47,32.75-.49,1.63.04,3.93.89,5.48,1.29,2.36,3.27,4.36,4.97,6.49,4.26,5.34,8.53,10.68,12.81,16.01,1.02,1.27,1.44,2.52.69,4.13-.51,1.09-.69,2.33-1.02,3.51-1.62,5.77-3.63,7.46-9.58,8.28-10.23,1.41-20.47,2.86-30.69,4.38-.71.1-1.5.77-1.96,1.39-6.25,8.63-12.17,17.51-18.78,25.86-3.23,4.08-3.57,7.59-2.11,12.43,2.71,9.05,4.56,18.36,6.85,27.54.8,3.24.17,6.02-1.79,8.72-5.03,6.93-8.15,7.75-15.29,3.28-6.04-3.79-11.84-7.92-17.85-11.75-5.11-3.26-5.14-3.13-9.79.57-7.26,5.79-14.64,11.42-23.07,15.48-3.22,1.55-5.24,4.18-6.67,7.35-2.8,6.21-3.91,12.88-5.25,19.49-1.62,8.08-3.44,16.12-5.04,24.21-.87,4.43-3.42,7.05-7.72,8.17-1.16.3-2.26.81-3.57,1.3-.14-2.86-.37-5.5-.4-8.15-.19-19.81-.46-39.63-.45-59.45,0-6.9.68-13.8,1.15-20.7.05-.65.72-1.57,1.33-1.82,17.23-6.91,31.95-17.6,45.49-30.07,10.6-9.76,21.09-19.66,29.44-31.54,5.43-7.72,10.35-15.72,13-24.91,1.39-4.82,4.2-8.78,7.88-12.18,16.27-15.04,29.64-32.33,40.16-51.84,2.95-5.46,5.32-11.11,6.4-17.28,1.1-6.37,4.57-11.58,8.58-16.44,2.98-3.61,6.06-7.15,9.14-10.68.38-.43,1.01-.84,1.57-.89,3.5-.37,7.02-.61,10.53-.93Z"/>
      <path class="cls-2" d="M131.45,705.42c-1.05.97-1.57,2.51-2.32,3.8-.17.02-.35.04-.52.06-.24-1.62-.65-3.23-.71-4.85-.22-6.26-.37-12.52-.42-18.79-.01-.84.68-1.68,1-2.54.26-.69.64-1.41.65-2.12.19-11.38.32-22.75.46-34.13.03-2.66.01-5.33.07-7.99.03-.98.21-1.96.75-2.92.29,5.76.72,11.51.85,17.27.25,11.88.29,23.77.55,35.65.09,4.38.52,8.76.81,13.14.09,1.31-.04,2.37-1.17,3.42Z"/>
      <path class="cls-2" d="M160.4,731c-.17,2.66-.34,5.32-.54,7.97-.07.84-.25,1.67-.38,2.51-4.35-1.02-4.67-1.59-4.85-5.65-.34-7.9-1.09-15.8-1.28-23.71-.35-15.05-.6-30.1-.55-45.16.03-10.15.65-20.3,1-30.45.02-.32.07-.65.53-1.05.22.77.56,1.52.63,2.3.8,9.46,1.51,18.93,2.34,28.39.75,8.53,1.75,17.03,2.4,25.56,1,13.08,1.55,26.18.7,39.29Z"/>
      <path class="cls-2" d="M340.56,221.41c-.64,3.65-2.3,6.79-5.4,9.01-2.83,2.03-5.86,2.22-8.93.65-.55-.28-1.18-1.21-1.12-1.75.5-3.99,1.61-7.87,4.9-10.44,1.71-1.35,3.99-1.97,6.01-2.91.09.18.18.37.26.55,4.33.01,5.01.68,4.28,4.89Z"/>
      <path class="cls-2" d="M303.57,242v57.77c-2.9-.73-5.47-1.29-7.96-2.11-.46-.15-.81-1.37-.82-2.1-.05-10.31-.03-20.62-.03-30.92v-24.37c3.14.62,6.06,1.19,8.81,1.73Z"/>
      <path class="cls-2" d="M348.78,247.73c-.43,16.96-.85,33.9-1.28,51.01-4.57.75-9.06,1.49-13.93,2.29.52-18.17,1.03-36.06,1.55-54.33,4.48.34,8.95.67,13.66,1.03Z"/>
      <path class="cls-2" d="M451.7,208.63c-.52,2.09-1.41,4.23-2.66,5.98-1.4,1.96-3.24,3.69-5.13,5.22-11.82,9.56-19.62,22.02-24.94,35.95-4.08,10.7-7.19,21.77-10.47,32.75-.49,1.63.04,3.93.89,5.48,1.29,2.36,3.27,4.36,4.97,6.49,4.26,5.34,8.53,10.68,12.81,16.01,1.02,1.27,1.44,2.52.69,4.13-.51,1.09-.69,2.33-1.02,3.51-1.62,5.77-3.63,7.46-9.58,8.28-10.23,1.41-20.47,2.86-30.69,4.38-.71.1-1.5.77-1.96,1.39-6.25,8.63-12.17,17.51-18.78,25.86-3.23,4.08-3.57,7.59-2.11,12.43,2.71,9.05,4.56,18.36,6.85,27.54.8,3.24.17,6.02-1.79,8.72-5.03,6.93-8.15,7.75-15.29,3.28-6.04-3.79-11.84-7.92-17.85-11.75-5.11-3.26-5.14-3.13-9.79.57-7.26,5.79-14.64,11.42-23.07,15.48-3.22,1.55-5.24,4.18-6.67,7.35-2.8,6.21-3.91,12.88-5.25,19.49-1.62,8.08-3.44,16.12-5.04,24.21-.87,4.43-3.42,7.05-7.72,8.17-1.16.3-2.26.81-3.57,1.3-.14-2.86-.37-5.5-.4-8.15-.19-19.81-.46-39.63-.45-59.45,0-6.9.68-13.8,1.15-20.7.05-.65.72-1.57,1.33-1.82,17.23-6.91,31.95-17.6,45.49-30.07,10.6-9.76,21.09-19.66,29.44-31.54,5.43-7.72,10.35-15.72,13-24.91,1.39-4.82,4.2-8.78,7.88-12.18,16.27-15.04,29.64-32.33,40.16-51.84,2.95-5.46,5.32-11.11,6.4-17.28,1.1-6.37,4.57-11.58,8.58-16.44,2.98-3.61,6.06-7.15,9.14-10.68.38-.43,1.01-.84,1.57-.89,3.5-.37,7.02-.61,10.53-.93,1.29-.11,1.89.31,2.19,1.69.92,4.29,2.25,8.57,1.16,12.97Z"/>
      <path class="cls-2" d="M242.07,486.97c.05,1.33-.39,2-1.63,2.3-4.25,1.02-8.48,2.11-12.75,3.02-.48.1-1.49-.67-1.7-1.24-4.44-11.82-8.85-23.64-13.11-35.52-.68-1.9-1.82-2.71-3.54-2.82-3.3-.2-6.61-.41-9.91-.29-5.56.19-11,.38-16.11-2.62-2.8-1.64-5.89.15-6.97,3.27-.78,2.27-1.63,4.58-2.83,6.64-2.77,4.71-5.32,9.65-8.78,13.81-6.14,7.38-4.75,6.08-12.26,3.52-2.05-.7-2.6-1.64-2.66-3.79-.27-10.43-.73-20.87-1.29-31.29-.05-.91-1.19-1.9-2.04-2.57-.55-.45-1.49-.49-2.27-.54-1.28-.07-1.67-.67-1.72-1.91-.38-10.51-.81-21.01-1.24-31.52-.13-3.16-.3-6.32-.46-9.48,32.56,15.72,66,18.39,100.94,8.98v9.43c0,19.46-.02,38.91.01,58.36.01,4.75.13,9.51.32,14.26Z"/>
      <path class="cls-2" d="M265.65,295.16c-42.14,15.73-84.23,31.45-126.59,47.26-.12-2.36-.38-4.58-.31-6.78.19-6.63.46-13.25.86-19.86.04-.66,1.1-1.54,1.87-1.81,11.36-4.01,22.75-7.93,34.14-11.87,21.62-7.48,43.23-14.97,64.88-22.38,1.08-.36,2.53-.18,3.63.23,1.53.56,2.97,1.46,4.3,2.43,5.67,4.14,11.28,8.36,17.22,12.78Z"/>
      <path class="cls-2" d="M131.42,432.76c.01.36-.06.71-.14,1.6-1.45-.63-2.75-1.06-3.93-1.72-1.95-1.09-3.74-2.44-5.72-3.44-2.62-1.32-3.45-.82-5.35,1.31-2.05,2.27-4.27,4.5-6.76,6.25-4.52,3.18-9.33,5.96-13.97,8.98-3.07,2-6.05,4.14-9.42,6.46-2.72-2.99-5.66-6.1-8.41-9.38-.52-.63-.59-2.05-.27-2.88,3.72-9.86,7.58-19.68,11.31-29.54.29-.76.12-2.01-.34-2.67-2.7-3.82-5.57-7.52-8.34-11.29-3.65-4.94-6.78-10.15-8.57-16.1-.23-.79-1.22-1.58-2.04-1.93-5.02-2.12-10.29-1.65-15.53-1.23-5.95.47-11.89,1.01-17.83,1.49-2,.16-3.46-.52-4.12-2.61-1.19-3.74-2.76-7.39-3.62-11.2-.5-2.22-.17-4.73.27-7.02.22-1.11,1.33-2.4,2.38-2.96,10.16-5.37,20.38-10.63,30.61-15.85,1.31-.67,1.79-1.46,1.91-2.95,1.07-13.11,1.76-26.26,4.66-39.15.75-3.35,1.59-6.71,2.72-9.95.6-1.7.38-2.78-.91-3.89-5.62-4.84-11.2-9.72-16.81-14.57-.98-.84-2.01-1.63-3.03-2.44-4.37-3.48-5.59-7.99-3.69-13.1,1.29-3.48,3.11-6.78,4.86-10.07.28-.53,1.4-.86,2.14-.88,13.91-.32,27.81-.63,41.71-.8,1.87-.02,2.76-.65,3.58-2.23,5.9-11.28,11.61-22.69,19.3-32.91,2.46-3.27,5.26-6.29,7.93-9.4.44-.51,1-.91,1.75-1.57,0,2.66-.11,4.93.02,7.19.32,5.9.7,11.78,1.13,17.67.66,9.02-.04,17.99-1.25,26.92-2.68,19.75-8.89,38.7-13.39,58.03-1.39,5.98-2.49,11.95-1.8,18.34,6.09.53,10.93-3.18,16.39-4.25.16.21.3.32.31.43.17,8.07.31,16.13.53,24.2.03,1.35-.34,2.03-1.68,2.51-4.79,1.72-9.54,3.58-14.29,5.4-.54.2-1.06.45-1.57.71-3.29,1.68-3.44,3.17-1.18,6.02,1.59,1.99,2.84,4.29,3.98,6.58,2.4,4.82,4.49,9.79,6.95,14.58,1.79,3.48,4.25,6.49,7.66,8.62.49.31.95,1.11.96,1.69.34,14.33.62,28.67.9,43Z"/>
      <path class="cls-2" d="M298.04,66.28c-1.24.34-2.53.47-3.46.63-5.2-.33-9.6-1.83-13.41-4.89-1.97-1.58-1.9-3.46.5-4.33,1.93-.7,4.21-.89,6.27-.67,4.28.46,8.2,2.05,11.21,5.29,1.99,2.14,1.66,3.22-1.11,3.97Z"/>
      <path class="cls-1" d="M209.38,94.23c-2.69,9.37-5.33,18.6-8.01,27.97-.77-.08-1.37-.15-2.1-.24-.75,7.25-1.5,14.47-2.23,21.7-.36,3.53-1.27,4.29-5.08,3.94,1.98-18.79,3.97-37.57,5.97-56.47,3.85,1.04,7.45,2.01,11.45,3.1Z"/>
      <path class="cls-1" d="M454.78,145.22c-3.88,7.13-7.83,14.23-11.81,21.3-.3.52-1.12,1.11-1.64,1.07-1.57-.14-2.18.71-2.65,1.94-1.39,3.62-2.68,7.29-4.27,10.83-1.19,2.65-2.77,5.12-4.25,7.81-2.55-1.29-3.22-2.91-2.77-4.95.3-1.32.74-2.63,1.3-3.86,5.59-12.38,11.2-24.75,16.89-37.08.38-.83,1.38-1.66,2.26-1.9,1.34-.37,2.86-.44,4.25-.27,3.61.43,4.41,1.93,2.69,5.11Z"/>
      <path class="cls-1" d="M145.44,34.16c-1.64,5.81-3.13,11.5-4.85,17.11-2.91,9.56-6.12,19.05-7.32,29.04-.24,1.93-.42,3.86-.65,5.91-2.83.33-3.77-.71-3.33-3.75.51-3.63,1.36-7.23,1.7-10.87.29-3.04-.09-6.14.1-9.19.18-2.93.65-5.85,1.1-8.76.98-6.47,2.04-12.93,3.08-19.49h10.17Z"/>
      <path class="cls-1" d="M162.97,24.37c0,.31-.81.92-1.23.9-1.99-.11-4.03-.17-5.95-.65-3.12-.79-6.13-2.1-9.27-2.82-5.84-1.34-10.07,1.82-13.96,5.57-.34.33-.36,1.05-.43,1.6-1.14,8.85-2.34,17.7-3.35,26.56-.25,2.19-1.46,2.83-3.38,3.28-.85-4.69.17-9.11.94-13.56.6-3.47,1.28-6.93,1.73-10.43.24-1.84.51-3.87-.03-5.56-.9-2.81.29-4.39,2.35-5.7,3.4-2.16,6.83-4.26,10.31-6.27.58-.34,1.53-.34,2.21-.14,6.02,1.69,12.02,3.46,18.02,5.22.41.12.92.19,1.18.47.41.42.85,1.01.86,1.53Z"/>
      <path class="cls-2" d="M458.23,131.09c-1.32-4.89-4.06-9.05-7.94-12.11-7.51-5.92-15.25-11.57-23.08-17.07-4.94-3.47-10.32-6.32-15.32-9.71-7.43-5.05-14.78-10.26-22.04-15.55-11.37-8.3-23.47-15.4-36.08-21.59-3.61-1.77-7.76-2.66-11.77-3.31-2.91-.48-5.99.1-9,.18-1.58.04-3.53.67-4.01-1.69-.32-1.55,1.02-2.32,3.81-2.35,1.08-.01,2.16-.01,3.24-.03.13,0,.25-.09.61-.23-.68-1.42-1.3-2.86-2.05-4.22-2.13-3.84-4.26-7.68-6.52-11.44-.46-.76-1.46-1.43-2.34-1.65-8.02-1.99-16.01-4.15-24.12-5.71-9.39-1.81-18.89-3.09-28.35-4.5-.74-.11-1.8.28-2.33.82-2.06,2.1-3.97,4.36-6.13,6.77.36.38.81.89,1.3,1.37,4.8,4.66,9.63,9.32,14.42,14,1.22,1.19,3.21,2.74,1.81,4.27-1.46,1.58-3.35-.22-4.61-1.37-5.42-4.95-10.73-10.01-16.07-15.03-2.99-2.81-6.19-5.44-8.88-8.52-2.14-2.43-5.3-6.7-7.16-9.55-1.18,1.6-2.73,1.58-4.14,1.52-5.47-.22-10.96-.35-16.4-.95-16.02-1.77-32.01-3.94-48.05-5.6-14.45-1.5-28.94-1.86-43.14,2.02-4.07,1.11-7.97,2.86-11.88,4.49-.69.28-1.42,1.43-1.45,2.2-.51,16.57-.85,33.14-1.4,49.71-.16,4.72-.92,9.43-1.32,14.15-.07.85-.03,2.02.47,2.58,5.93,6.65,11.96,13.22,17.98,19.8.23.25.59.38,1.08.69.44-1.72.8-3.31,1.26-4.88,8.34-28.36,27.32-45.1,56.03-50.97,7.41-1.51,14.95-.53,22.39.45,15.41,2.01,30.78,4.47,46.24,6.05,9.07.92,18.28.48,27.42.7,2.16.05,4.32.17,6.47.43,5.98.71,10.04,8.23,7.08,13.29-.57.98-1.81,1.94-2.91,2.19-8.42,1.91-15.89-.65-22.94-5.13-1.16-.74-2.55-1.33-3.91-1.55-14-2.22-27.99-4.52-42.04-6.45-13.82-1.9-27.69-2.74-41.44.68-18.94,4.71-32.23,16.33-40.59,33.73-2.01,4.18-3.46,8.66-4.85,13.1-1.43,4.54-.21,8.59,3.4,11.72,7.72,6.7,15.25,13.65,23.33,19.9,20.01,15.48,42.34,26.98,65.57,36.72,24.62,10.33,49.47,20.07,75.36,26.82,7.78,2.02,15.71,3.5,23.82,5.28,4.64-12.58,12.75-22.64,19.56-33.47,4.12-6.56,7.6-13.38,8.81-21.17,1.26-8.14-.4-15.48-6.52-21.17-5.37-4.99-11.05-9.67-16.84-14.16-5.74-4.45-11.92-8.34-17.67-12.79-3.51-2.72-6.62-5.99-9.82-9.1-1.26-1.21-2.25-2.68-.97-4.87,1.11.76,2.32,1.31,3.16,2.2,6.43,6.81,14.15,12.01,21.67,17.46,8.52,6.17,17.15,12.2,24.52,19.79.4.42.8.83,1.2,1.25,3.02,3.26,6.2,6.38,5.74,11.47-.14,1.52.4,3.13.8,4.66,1.51,5.69.21,10.53-3.19,15.42-6,8.61-11.53,17.57-16.98,26.55-3.55,5.84-6.15,12.17-8.13,19,6.51.7,12.86,1.49,19.24,2.06,10.27.91,20.6,1.47,30.84,0,6.46-.93,12.81-2.66,19.21-4.03.77-.17,1.53-.44,2.31-.54,8.17-1.05,14.15-5.42,18.3-12.34,4.15-6.91,8.12-13.92,12.11-20.92,3.28-5.74,6.42-11.57,9.76-17.28,4.1-7.03,6.26-14.38,4.06-22.5ZM140.59,51.27c-2.91,9.56-6.12,19.05-7.32,29.04-.24,1.93-.42,3.86-.65,5.91-2.83.33-3.77-.71-3.33-3.75.51-3.63,1.36-7.23,1.7-10.87.29-3.04-.09-6.14.1-9.19.18-2.93.65-5.85,1.1-8.76.98-6.47,2.04-12.93,3.08-19.49h10.17c-1.64,5.81-3.13,11.5-4.85,17.11ZM161.74,25.27c-1.99-.11-4.03-.17-5.95-.65-3.12-.79-6.13-2.1-9.27-2.82-5.84-1.34-10.07,1.82-13.96,5.57-.34.33-.36,1.05-.43,1.6-1.14,8.85-2.34,17.7-3.35,26.56-.25,2.19-1.46,2.83-3.38,3.28-.85-4.69.17-9.11.94-13.56.6-3.47,1.28-6.93,1.73-10.43.24-1.84.51-3.87-.03-5.56-.9-2.81.29-4.39,2.35-5.7,3.4-2.16,6.83-4.26,10.31-6.27.58-.34,1.53-.34,2.21-.14,6.02,1.69,12.02,3.46,18.02,5.22.41.12.92.19,1.18.47.41.42.85,1.01.86,1.53,0,.31-.81.92-1.23.9ZM201.37,122.2c-.77-.08-1.37-.15-2.1-.24-.75,7.25-1.5,14.47-2.23,21.7-.36,3.53-1.27,4.29-5.08,3.94,1.98-18.79,3.97-37.57,5.97-56.47,3.85,1.04,7.45,2.01,11.45,3.1-2.69,9.37-5.33,18.6-8.01,27.97ZM205.16,82.09c-3.78,2.87-7.68,5.59-11.44,8.5-.72.56-1.32,1.67-1.44,2.59-.59,4.7-1,9.43-1.48,14.24h-3.59c.61-7.4,1.2-14.75,1.82-22.33,6.72-.12,12.18-2.94,17.06-7.15,2.51-2.16,5.1-4.23,7.7-6.28.88-.69,1.9-1.2,2.96-1.87.49.79.85,1.39,1.38,2.26-4.34,3.37-8.62,6.75-12.97,10.04ZM454.78,145.22c-3.88,7.13-7.83,14.23-11.81,21.3-.3.52-1.12,1.11-1.64,1.07-1.57-.14-2.18.71-2.65,1.94-1.39,3.62-2.68,7.29-4.27,10.83-1.19,2.65-2.77,5.12-4.25,7.81-2.55-1.29-3.22-2.91-2.77-4.95.3-1.32.74-2.63,1.3-3.86,5.59-12.38,11.2-24.75,16.89-37.08.38-.83,1.38-1.66,2.26-1.9,1.34-.37,2.86-.44,4.25-.27,3.61.43,4.41,1.93,2.69,5.11Z"/>
      <path class="cls-1" d="M218.13,72.05c-4.34,3.37-8.62,6.75-12.97,10.04-3.78,2.87-7.68,5.59-11.44,8.5-.72.56-1.32,1.67-1.44,2.59-.59,4.7-1,9.43-1.48,14.24h-3.59c.61-7.4,1.2-14.75,1.82-22.33,6.72-.12,12.18-2.94,17.06-7.15,2.51-2.16,5.1-4.23,7.7-6.28.88-.69,1.9-1.2,2.96-1.87.49.79.85,1.39,1.38,2.26Z"/>
    </g>
  </g>
</svg>